<svg xmlns="http://www.w3.org/2000/svg" xmlns:xlink="http://www.w3.org/1999/xlink" width="480" zoomAndPan="magnify" viewBox="0 0 360 359.999987" height="480" preserveAspectRatio="xMidYMid meet" version="1.0"><defs><clipPath id="bc9c823a61"><path d="M 282 203 L 355 203 L 355 249 L 282 249 Z M 282 203 " clip-rule="nonzero"/></clipPath><clipPath id="6b6a44f451"><path d="M 289.074219 195.578125 L 360.121094 215.4375 L 348.59375 256.679688 L 277.542969 236.820312 Z M 289.074219 195.578125 " clip-rule="nonzero"/></clipPath><clipPath id="1bf46b040b"><path d="M 324.535156 205.488281 C 304.949219 200.015625 286.492188 204.808594 283.308594 216.199219 C 280.125 227.589844 293.421875 241.257812 313.007812 246.734375 C 332.59375 252.207031 351.050781 247.414062 354.234375 236.023438 C 357.417969 224.632812 344.121094 210.964844 324.535156 205.488281 Z M 324.535156 205.488281 " clip-rule="nonzero"/></clipPath><clipPath id="3a184a801e"><path d="M 0 0 L 73 0 L 73 46 L 0 46 Z M 0 0 " clip-rule="nonzero"/></clipPath><clipPath id="f2ade930f7"><path d="M 7.074219 -7.421875 L 78.121094 12.4375 L 66.59375 53.679688 L -4.457031 33.820312 Z M 7.074219 -7.421875 " clip-rule="nonzero"/></clipPath><clipPath id="2e50101dd2"><path d="M 42.535156 2.488281 C 22.949219 -2.984375 4.492188 1.808594 1.308594 13.199219 C -1.875 24.589844 11.421875 38.257812 31.007812 43.734375 C 50.59375 49.207031 69.050781 44.414062 72.234375 33.023438 C 75.417969 21.632812 62.121094 7.964844 42.535156 2.488281 Z M 42.535156 2.488281 " clip-rule="nonzero"/></clipPath><clipPath id="4e5d75a2b6"><rect x="0" width="73" y="0" height="46"/></clipPath><clipPath id="9615a7644f"><path d="M 5 203 L 78 203 L 78 250 L 5 250 Z M 5 203 " clip-rule="nonzero"/></clipPath><clipPath id="2bdf6e118c"><path d="M 0 215.914062 L 70.902344 195.539062 L 82.730469 236.699219 L 11.828125 257.074219 Z M 0 215.914062 " clip-rule="nonzero"/></clipPath><clipPath id="7ff17c356a"><path d="M 35.390625 205.746094 C 15.84375 211.363281 2.648438 225.128906 5.914062 236.496094 C 9.179688 247.859375 27.671875 252.519531 47.21875 246.90625 C 66.765625 241.289062 79.960938 227.519531 76.695312 216.15625 C 73.429688 204.789062 54.9375 200.128906 35.390625 205.746094 Z M 35.390625 205.746094 " clip-rule="nonzero"/></clipPath><clipPath id="97f0b20cfa"><path d="M 0 0 L 73 0 L 73 47 L 0 47 Z M 0 0 " clip-rule="nonzero"/></clipPath><clipPath id="b89a4822dd"><path d="M -5 12.914062 L 65.902344 -7.460938 L 77.730469 33.699219 L 6.828125 54.074219 Z M -5 12.914062 " clip-rule="nonzero"/></clipPath><clipPath id="928a1990bd"><path d="M 30.390625 2.746094 C 10.84375 8.363281 -2.351562 22.128906 0.914062 33.496094 C 4.179688 44.859375 22.671875 49.519531 42.21875 43.90625 C 61.765625 38.289062 74.960938 24.519531 71.695312 13.15625 C 68.429688 1.789062 49.9375 -2.871094 30.390625 2.746094 Z M 30.390625 2.746094 " clip-rule="nonzero"/></clipPath><clipPath id="b7d6356cb8"><rect x="0" width="73" y="0" height="47"/></clipPath><clipPath id="f5c8167cef"><path d="M 41.265625 41.265625 L 318.734375 41.265625 L 318.734375 318.734375 L 41.265625 318.734375 Z M 41.265625 41.265625 " clip-rule="nonzero"/></clipPath><clipPath id="11b4327057"><path d="M 180 41.265625 C 103.378906 41.265625 41.265625 103.378906 41.265625 180 C 41.265625 256.621094 103.378906 318.734375 180 318.734375 C 256.621094 318.734375 318.734375 256.621094 318.734375 180 C 318.734375 103.378906 256.621094 41.265625 180 41.265625 Z M 180 41.265625 " clip-rule="nonzero"/></clipPath><clipPath id="3397c8d51f"><path d="M 0.265625 0.265625 L 277.734375 0.265625 L 277.734375 277.734375 L 0.265625 277.734375 Z M 0.265625 0.265625 " clip-rule="nonzero"/></clipPath><clipPath id="806b7038b1"><path d="M 139 0.265625 C 62.378906 0.265625 0.265625 62.378906 0.265625 139 C 0.265625 215.621094 62.378906 277.734375 139 277.734375 C 215.621094 277.734375 277.734375 215.621094 277.734375 139 C 277.734375 62.378906 215.621094 0.265625 139 0.265625 Z M 139 0.265625 " clip-rule="nonzero"/></clipPath><clipPath id="15bd51b7d9"><rect x="0" width="278" y="0" height="278"/></clipPath><clipPath id="4e71f57a19"><path d="M 61.132812 198.851562 L 107.53125 198.851562 L 107.53125 245.25 L 61.132812 245.25 Z M 61.132812 198.851562 " clip-rule="nonzero"/></clipPath><clipPath id="c0a368bbf0"><path d="M 84.332031 198.851562 C 71.519531 198.851562 61.132812 209.238281 61.132812 222.050781 C 61.132812 234.863281 71.519531 245.25 84.332031 245.25 C 97.144531 245.25 107.53125 234.863281 107.53125 222.050781 C 107.53125 209.238281 97.144531 198.851562 84.332031 198.851562 Z M 84.332031 198.851562 " clip-rule="nonzero"/></clipPath><clipPath id="0368af506c"><path d="M 0.132812 0.851562 L 46.53125 0.851562 L 46.53125 47.25 L 0.132812 47.25 Z M 0.132812 0.851562 " clip-rule="nonzero"/></clipPath><clipPath id="286cc36fb7"><path d="M 23.332031 0.851562 C 10.519531 0.851562 0.132812 11.238281 0.132812 24.050781 C 0.132812 36.863281 10.519531 47.25 23.332031 47.25 C 36.144531 47.25 46.53125 36.863281 46.53125 24.050781 C 46.53125 11.238281 36.144531 0.851562 23.332031 0.851562 Z M 23.332031 0.851562 " clip-rule="nonzero"/></clipPath><clipPath id="35120312ba"><rect x="0" width="47" y="0" height="48"/></clipPath><clipPath id="d0895df89f"><path d="M 252.46875 198.851562 L 298.867188 198.851562 L 298.867188 245.25 L 252.46875 245.25 Z M 252.46875 198.851562 " clip-rule="nonzero"/></clipPath><clipPath id="91216784ad"><path d="M 275.667969 198.851562 C 262.855469 198.851562 252.46875 209.238281 252.46875 222.050781 C 252.46875 234.863281 262.855469 245.25 275.667969 245.25 C 288.480469 245.25 298.867188 234.863281 298.867188 222.050781 C 298.867188 209.238281 288.480469 198.851562 275.667969 198.851562 Z M 275.667969 198.851562 " clip-rule="nonzero"/></clipPath><clipPath id="6af820fdbd"><path d="M 0.46875 0.851562 L 46.867188 0.851562 L 46.867188 47.25 L 0.46875 47.25 Z M 0.46875 0.851562 " clip-rule="nonzero"/></clipPath><clipPath id="7c321f7023"><path d="M 23.667969 0.851562 C 10.855469 0.851562 0.46875 11.238281 0.46875 24.050781 C 0.46875 36.863281 10.855469 47.25 23.667969 47.25 C 36.480469 47.25 46.867188 36.863281 46.867188 24.050781 C 46.867188 11.238281 36.480469 0.851562 23.667969 0.851562 Z M 23.667969 0.851562 " clip-rule="nonzero"/></clipPath><clipPath id="520fbc645b"><rect x="0" width="47" y="0" height="48"/></clipPath><clipPath id="81dc4dea58"><path d="M 42 260.984375 L 318.765625 260.984375 L 318.765625 318.734375 L 42 318.734375 Z M 42 260.984375 " clip-rule="nonzero"/></clipPath><clipPath id="4921d6f442"><path d="M 41.265625 260.984375 L 318.765625 260.984375 L 318.765625 318.734375 L 41.265625 318.734375 Z M 41.265625 260.984375 " clip-rule="nonzero"/></clipPath></defs><g clip-path="url(#bc9c823a61)"><g clip-path="url(#6b6a44f451)"><g clip-path="url(#1bf46b040b)"><g transform="matrix(1, 0, 0, 1, 282, 203)"><g clip-path="url(#4e5d75a2b6)"><g clip-path="url(#3a184a801e)"><g clip-path="url(#f2ade930f7)"><g clip-path="url(#2e50101dd2)"><path fill="#9f79ed" d="M 7.074219 -7.421875 L 77.960938 12.390625 L 66.433594 53.636719 L -4.457031 33.820312 Z M 7.074219 -7.421875 " fill-opacity="1" fill-rule="nonzero"/></g></g></g></g></g></g></g></g><g clip-path="url(#9615a7644f)"><g clip-path="url(#2bdf6e118c)"><g clip-path="url(#7ff17c356a)"><g transform="matrix(1, 0, 0, 1, 5, 203)"><g clip-path="url(#b7d6356cb8)"><g clip-path="url(#97f0b20cfa)"><g clip-path="url(#b89a4822dd)"><g clip-path="url(#928a1990bd)"><path fill="#9f79ed" d="M -5 12.914062 L 65.742188 -7.414062 L 77.570312 33.746094 L 6.828125 54.074219 Z M -5 12.914062 " fill-opacity="1" fill-rule="nonzero"/></g></g></g></g></g></g></g></g><g clip-path="url(#f5c8167cef)"><g clip-path="url(#11b4327057)"><g transform="matrix(1, 0, 0, 1, 41, 41)"><g clip-path="url(#15bd51b7d9)"><g clip-path="url(#3397c8d51f)"><g clip-path="url(#806b7038b1)"><path fill="#b28cff" d="M 0.265625 0.265625 L 277.734375 0.265625 L 277.734375 277.734375 L 0.265625 277.734375 Z M 0.265625 0.265625 " fill-opacity="1" fill-rule="nonzero"/></g></g></g></g></g></g><g clip-path="url(#4e71f57a19)"><g clip-path="url(#c0a368bbf0)"><g transform="matrix(1, 0, 0, 1, 61, 198)"><g clip-path="url(#35120312ba)"><g clip-path="url(#0368af506c)"><g clip-path="url(#286cc36fb7)"><path fill="#000000" d="M 0.132812 0.851562 L 46.53125 0.851562 L 46.53125 47.25 L 0.132812 47.25 Z M 0.132812 0.851562 " fill-opacity="1" fill-rule="nonzero"/></g></g></g></g></g></g><g clip-path="url(#d0895df89f)"><g clip-path="url(#91216784ad)"><g transform="matrix(1, 0, 0, 1, 252, 198)"><g clip-path="url(#520fbc645b)"><g clip-path="url(#6af820fdbd)"><g clip-path="url(#7c321f7023)"><path fill="#000000" d="M 0.46875 0.851562 L 46.867188 0.851562 L 46.867188 47.25 L 0.46875 47.25 Z M 0.46875 0.851562 " fill-opacity="1" fill-rule="nonzero"/></g></g></g></g></g></g><g clip-path="url(#81dc4dea58)"><path fill="#fffbf0" d="M 318.09375 190.855469 C 312.480469 262.097656 252.660156 318.265625 180.015625 318.265625 C 107.371094 318.265625 47.648438 262.097656 42.03125 190.855469 Z M 317.160156 190.855469 C 311.542969 261.535156 252.191406 317.328125 180.015625 317.328125 C 107.839844 317.328125 48.582031 261.535156 42.871094 190.855469 Z M 317.160156 190.855469 " fill-opacity="1" fill-rule="nonzero"/><path fill="#fffbf0" d="M 317.160156 190.855469 L 318.09375 190.855469 C 312.480469 262.097656 252.660156 318.265625 180.015625 318.265625 C 107.371094 318.265625 47.648438 262.097656 42.03125 190.855469 L 318.09375 190.855469 C 312.480469 262.097656 252.660156 318.265625 180.015625 318.265625 C 107.371094 318.265625 47.648438 262.097656 42.03125 190.855469 Z M 317.160156 190.855469 " fill-opacity="1" fill-rule="nonzero"/></g><g clip-path="url(#4921d6f442)"><path stroke-linecap="butt" transform="matrix(-0.936132, 0, 0, -0.936132, 420.601822, 455.876412)" fill="none" stroke-linejoin="miter" d="M 110.498988 283.102037 L 109.5017 283.102037 C 115.497948 206.99934 179.39951 146.999304 257.000226 146.999304 C 334.600941 146.999304 398.398184 206.99934 404.398605 283.102037 L 109.5017 283.102037 C 115.497948 206.99934 179.39951 146.999304 257.000226 146.999304 C 334.600941 146.999304 398.398184 206.99934 404.398605 283.102037 Z M 110.498988 283.102037 " stroke="#fef8fb" stroke-width="1" stroke-opacity="1" stroke-miterlimit="10"/></g></svg>