<svg xmlns="http://www.w3.org/2000/svg" xmlns:xlink="http://www.w3.org/1999/xlink" width="480" zoomAndPan="magnify" viewBox="0 0 360 359.999987" height="480" preserveAspectRatio="xMidYMid meet" version="1.0"><defs><clipPath id="d237cac466"><path d="M 5 203 L 78 203 L 78 250 L 5 250 Z M 5 203 " clip-rule="nonzero"/></clipPath><clipPath id="aeb2b080d9"><path d="M 70.921875 257.070312 L -0.125 237.210938 L 11.402344 195.96875 L 82.449219 215.824219 Z M 70.921875 257.070312 " clip-rule="nonzero"/></clipPath><clipPath id="e50dbcfe62"><path d="M 35.460938 247.15625 C 55.046875 252.632812 73.503906 247.835938 76.6875 236.449219 C 79.871094 225.058594 66.574219 211.386719 46.988281 205.914062 C 27.402344 200.4375 8.941406 205.234375 5.761719 216.625 C 2.578125 228.011719 15.875 241.683594 35.460938 247.15625 Z M 35.460938 247.15625 " clip-rule="nonzero"/></clipPath><clipPath id="e4141100e4"><path d="M 0 0 L 73 0 L 73 47 L 0 47 Z M 0 0 " clip-rule="nonzero"/></clipPath><clipPath id="ab2fe7fcf3"><path d="M 65.921875 54.070312 L -5.125 34.210938 L 6.402344 -7.03125 L 77.449219 12.824219 Z M 65.921875 54.070312 " clip-rule="nonzero"/></clipPath><clipPath id="903f7da2d3"><path d="M 30.460938 44.15625 C 50.046875 49.632812 68.503906 44.835938 71.6875 33.449219 C 74.871094 22.058594 61.574219 8.386719 41.988281 2.914062 C 22.402344 -2.5625 3.941406 2.234375 0.761719 13.625 C -2.421875 25.011719 10.875 38.683594 30.460938 44.15625 Z M 30.460938 44.15625 " clip-rule="nonzero"/></clipPath><clipPath id="ad186ca9a8"><rect x="0" width="73" y="0" height="47"/></clipPath><clipPath id="2f8e4cdaed"><path d="M 282 203 L 355 203 L 355 250 L 282 250 Z M 282 203 " clip-rule="nonzero"/></clipPath><clipPath id="541dcdd20b"><path d="M 359.996094 236.730469 L 289.089844 257.105469 L 277.265625 215.945312 L 348.167969 195.574219 Z M 359.996094 236.730469 " clip-rule="nonzero"/></clipPath><clipPath id="612a8044d5"><path d="M 324.605469 246.902344 C 344.148438 241.285156 357.347656 227.519531 354.082031 216.152344 C 350.816406 204.785156 332.324219 200.125 312.777344 205.742188 C 293.230469 211.359375 280.035156 225.125 283.300781 236.492188 C 286.566406 247.855469 305.058594 252.519531 324.605469 246.902344 Z M 324.605469 246.902344 " clip-rule="nonzero"/></clipPath><clipPath id="7cf33abf4e"><path d="M 0 0 L 73 0 L 73 47 L 0 47 Z M 0 0 " clip-rule="nonzero"/></clipPath><clipPath id="7175fc44be"><path d="M 77.996094 33.730469 L 7.089844 54.105469 L -4.734375 12.945312 L 66.167969 -7.425781 Z M 77.996094 33.730469 " clip-rule="nonzero"/></clipPath><clipPath id="3ca86f1690"><path d="M 42.605469 43.902344 C 62.148438 38.285156 75.347656 24.519531 72.082031 13.152344 C 68.816406 1.785156 50.324219 -2.875 30.777344 2.742188 C 11.230469 8.359375 -1.964844 22.125 1.300781 33.492188 C 4.566406 44.855469 23.058594 49.519531 42.605469 43.902344 Z M 42.605469 43.902344 " clip-rule="nonzero"/></clipPath><clipPath id="f21679da57"><rect x="0" width="73" y="0" height="47"/></clipPath><clipPath id="4ec3c929df"><path d="M 41.265625 41.265625 L 318.734375 41.265625 L 318.734375 318.734375 L 41.265625 318.734375 Z M 41.265625 41.265625 " clip-rule="nonzero"/></clipPath><clipPath id="241738aed7"><path d="M 180 41.265625 C 103.378906 41.265625 41.265625 103.378906 41.265625 180 C 41.265625 256.621094 103.378906 318.734375 180 318.734375 C 256.621094 318.734375 318.734375 256.621094 318.734375 180 C 318.734375 103.378906 256.621094 41.265625 180 41.265625 Z M 180 41.265625 " clip-rule="nonzero"/></clipPath><clipPath id="28b6a2a4f7"><path d="M 0.265625 0.265625 L 277.734375 0.265625 L 277.734375 277.734375 L 0.265625 277.734375 Z M 0.265625 0.265625 " clip-rule="nonzero"/></clipPath><clipPath id="d86c3bc06d"><path d="M 139 0.265625 C 62.378906 0.265625 0.265625 62.378906 0.265625 139 C 0.265625 215.621094 62.378906 277.734375 139 277.734375 C 215.621094 277.734375 277.734375 215.621094 277.734375 139 C 277.734375 62.378906 215.621094 0.265625 139 0.265625 Z M 139 0.265625 " clip-rule="nonzero"/></clipPath><clipPath id="f5f4b1f5fe"><rect x="0" width="278" y="0" height="278"/></clipPath><clipPath id="4b307eb600"><path d="M 42 260.984375 L 318.765625 260.984375 L 318.765625 318.734375 L 42 318.734375 Z M 42 260.984375 " clip-rule="nonzero"/></clipPath><clipPath id="fd7081fde6"><path d="M 41.265625 260.984375 L 318.765625 260.984375 L 318.765625 318.734375 L 41.265625 318.734375 Z M 41.265625 260.984375 " clip-rule="nonzero"/></clipPath><clipPath id="3bbda4e167"><path d="M 62 199 L 109 199 L 109 231.773438 L 62 231.773438 Z M 62 199 " clip-rule="nonzero"/></clipPath><clipPath id="8d013f6a97"><path d="M 58 195 L 112.308594 195 L 112.308594 231.773438 L 58 231.773438 Z M 58 195 " clip-rule="nonzero"/></clipPath><clipPath id="8523bc7e59"><path d="M 63 208 L 109 208 L 109 231.773438 L 63 231.773438 Z M 63 208 " clip-rule="nonzero"/></clipPath><clipPath id="f7ea7fc2de"><path d="M 63 211 L 109 211 L 109 231.773438 L 63 231.773438 Z M 63 211 " clip-rule="nonzero"/></clipPath><clipPath id="07c03bd4ad"><path d="M 63 200 L 109 200 L 109 231.773438 L 63 231.773438 Z M 63 200 " clip-rule="nonzero"/></clipPath><clipPath id="ae6e3bc924"><path d="M 254 199 L 301 199 L 301 231.773438 L 254 231.773438 Z M 254 199 " clip-rule="nonzero"/></clipPath><clipPath id="4acce8dae6"><path d="M 250 195 L 303.925781 195 L 303.925781 231.773438 L 250 231.773438 Z M 250 195 " clip-rule="nonzero"/></clipPath><clipPath id="88d5814565"><path d="M 254 208 L 301 208 L 301 231.773438 L 254 231.773438 Z M 254 208 " clip-rule="nonzero"/></clipPath><clipPath id="9f5aec48e3"><path d="M 255 211 L 301 211 L 301 231.773438 L 255 231.773438 Z M 255 211 " clip-rule="nonzero"/></clipPath><clipPath id="a179b3b02c"><path d="M 254 200 L 301 200 L 301 231.773438 L 254 231.773438 Z M 254 200 " clip-rule="nonzero"/></clipPath></defs><g clip-path="url(#d237cac466)"><g clip-path="url(#aeb2b080d9)"><g clip-path="url(#e50dbcfe62)"><g transform="matrix(1, 0, 0, 1, 5, 203)"><g clip-path="url(#ad186ca9a8)"><g clip-path="url(#e4141100e4)"><g clip-path="url(#ab2fe7fcf3)"><g clip-path="url(#903f7da2d3)"><path fill="#6dc448" d="M 65.921875 54.070312 L -4.964844 34.257812 L 6.5625 -6.988281 L 77.449219 12.824219 Z M 65.921875 54.070312 " fill-opacity="1" fill-rule="nonzero"/></g></g></g></g></g></g></g></g><g clip-path="url(#2f8e4cdaed)"><g clip-path="url(#541dcdd20b)"><g clip-path="url(#612a8044d5)"><g transform="matrix(1, 0, 0, 1, 282, 203)"><g clip-path="url(#f21679da57)"><g clip-path="url(#7cf33abf4e)"><g clip-path="url(#7175fc44be)"><g clip-path="url(#3ca86f1690)"><path fill="#6dc448" d="M 77.996094 33.730469 L 7.253906 54.058594 L -4.574219 12.902344 L 66.167969 -7.425781 Z M 77.996094 33.730469 " fill-opacity="1" fill-rule="nonzero"/></g></g></g></g></g></g></g></g><g clip-path="url(#4ec3c929df)"><g clip-path="url(#241738aed7)"><g transform="matrix(1, 0, 0, 1, 41, 41)"><g clip-path="url(#f5f4b1f5fe)"><g clip-path="url(#28b6a2a4f7)"><g clip-path="url(#d86c3bc06d)"><path fill="#7ed957" d="M 0.265625 0.265625 L 277.734375 0.265625 L 277.734375 277.734375 L 0.265625 277.734375 Z M 0.265625 0.265625 " fill-opacity="1" fill-rule="nonzero"/></g></g></g></g></g></g><g clip-path="url(#4b307eb600)"><path fill="#fffbf0" d="M 318.09375 190.855469 C 312.480469 262.097656 252.660156 318.265625 180.015625 318.265625 C 107.371094 318.265625 47.648438 262.097656 42.03125 190.855469 Z M 317.160156 190.855469 C 311.542969 261.535156 252.191406 317.328125 180.015625 317.328125 C 107.839844 317.328125 48.582031 261.535156 42.871094 190.855469 Z M 317.160156 190.855469 " fill-opacity="1" fill-rule="nonzero"/><path fill="#fffbf0" d="M 317.160156 190.855469 L 318.09375 190.855469 C 312.480469 262.097656 252.660156 318.265625 180.015625 318.265625 C 107.371094 318.265625 47.648438 262.097656 42.03125 190.855469 L 318.09375 190.855469 C 312.480469 262.097656 252.660156 318.265625 180.015625 318.265625 C 107.371094 318.265625 47.648438 262.097656 42.03125 190.855469 Z M 317.160156 190.855469 " fill-opacity="1" fill-rule="nonzero"/></g><g clip-path="url(#fd7081fde6)"><path stroke-linecap="butt" transform="matrix(-0.936132, 0, 0, -0.936132, 420.601822, 455.876412)" fill="none" stroke-linejoin="miter" d="M 110.498988 283.102037 L 109.5017 283.102037 C 115.497948 206.99934 179.39951 146.999304 257.000226 146.999304 C 334.600941 146.999304 398.398184 206.99934 404.398605 283.102037 L 109.5017 283.102037 C 115.497948 206.99934 179.39951 146.999304 257.000226 146.999304 C 334.600941 146.999304 398.398184 206.99934 404.398605 283.102037 Z M 110.498988 283.102037 " stroke="#fef8fb" stroke-width="1" stroke-opacity="1" stroke-miterlimit="10"/></g><g clip-path="url(#3bbda4e167)"><path fill="#000000" d="M 63.289062 231.375 C 56.058594 192.46875 112.296875 186.554688 108.683594 228.644531 C 105.519531 219.542969 78.871094 204.527344 63.289062 231.375 Z M 63.289062 231.375 " fill-opacity="1" fill-rule="evenodd"/></g><g clip-path="url(#8d013f6a97)"><path stroke-linecap="butt" transform="matrix(0, -0.551783, 0.547712, 0, 57.976541, 246.392618)" fill="none" stroke-linejoin="miter" d="M 27.216514 9.699485 C 97.72653 -3.501745 108.444619 99.176868 32.164958 92.579819 C 48.659771 86.802944 75.872673 38.148814 27.216514 9.699485 Z M 27.216514 9.699485 " stroke="#000000" stroke-width="1.25" stroke-opacity="1" stroke-miterlimit="4"/></g><g clip-path="url(#8523bc7e59)"><path fill="#000000" d="M 63.1875 231.132812 C 66.347656 203.148438 101.128906 199.734375 108.582031 228.40625 C 105.417969 219.304688 78.769531 204.285156 63.1875 231.132812 Z M 63.1875 231.132812 " fill-opacity="0.05" fill-rule="evenodd"/></g><path fill="#000000" d="M 62.949219 230.882812 C 68.144531 204.941406 99.761719 202.210938 108.34375 228.152344 C 105.183594 219.050781 78.53125 204.03125 62.949219 230.882812 Z M 62.949219 230.882812 " fill-opacity="0.05" fill-rule="evenodd"/><g clip-path="url(#f7ea7fc2de)"><path fill="#000000" d="M 63.398438 231.347656 C 70.628906 207.683594 97.050781 203.816406 108.796875 228.617188 C 105.632812 219.515625 78.984375 204.496094 63.398438 231.347656 Z M 63.398438 231.347656 " fill-opacity="0.05" fill-rule="evenodd"/></g><g clip-path="url(#07c03bd4ad)"><path fill="#000000" d="M 63.636719 231.363281 C 56.863281 193.136719 111.515625 187.675781 108.582031 228.632812 C 110.613281 199.734375 64.765625 186.085938 63.636719 231.363281 Z M 63.636719 231.363281 " fill-opacity="0.5" fill-rule="evenodd"/></g><g clip-path="url(#ae6e3bc924)"><path fill="#000000" d="M 254.902344 231.375 C 247.675781 192.46875 303.910156 186.554688 300.296875 228.644531 C 297.136719 219.542969 270.488281 204.527344 254.902344 231.375 Z M 254.902344 231.375 " fill-opacity="1" fill-rule="evenodd"/></g><g clip-path="url(#4acce8dae6)"><path stroke-linecap="butt" transform="matrix(0, -0.551783, 0.547712, 0, 249.592194, 246.392618)" fill="none" stroke-linejoin="miter" d="M 27.216514 9.695154 C 97.72653 -3.498945 108.444619 99.172537 32.164958 92.575488 C 48.659771 86.805744 75.872673 38.151615 27.216514 9.695154 Z M 27.216514 9.695154 " stroke="#000000" stroke-width="1.25" stroke-opacity="1" stroke-miterlimit="4"/></g><g clip-path="url(#88d5814565)"><path fill="#000000" d="M 254.800781 231.132812 C 257.964844 203.148438 292.742188 199.734375 300.195312 228.40625 C 297.035156 219.304688 270.386719 204.285156 254.800781 231.132812 Z M 254.800781 231.132812 " fill-opacity="0.05" fill-rule="evenodd"/></g><path fill="#000000" d="M 254.5625 230.882812 C 259.757812 204.941406 291.378906 202.210938 299.960938 228.152344 C 296.796875 219.050781 270.148438 204.03125 254.5625 230.882812 Z M 254.5625 230.882812 " fill-opacity="0.05" fill-rule="evenodd"/><g clip-path="url(#9f5aec48e3)"><path fill="#000000" d="M 255.015625 231.347656 C 262.242188 207.683594 288.667969 203.816406 300.410156 228.617188 C 297.25 219.515625 270.597656 204.496094 255.015625 231.347656 Z M 255.015625 231.347656 " fill-opacity="0.05" fill-rule="evenodd"/></g><g clip-path="url(#a179b3b02c)"><path fill="#000000" d="M 255.253906 231.363281 C 248.476562 193.136719 303.132812 187.675781 300.195312 228.632812 C 302.230469 199.734375 256.382812 186.085938 255.253906 231.363281 Z M 255.253906 231.363281 " fill-opacity="0.5" fill-rule="evenodd"/></g></svg>