<svg xmlns="http://www.w3.org/2000/svg" xmlns:xlink="http://www.w3.org/1999/xlink" width="480" zoomAndPan="magnify" viewBox="0 0 360 359.999987" height="480" preserveAspectRatio="xMidYMid meet" version="1.0"><defs><clipPath id="94024cb1f6"><path d="M 5 203 L 78 203 L 78 250 L 5 250 Z M 5 203 " clip-rule="nonzero"/></clipPath><clipPath id="720639e3e7"><path d="M 70.925781 257.0625 L -0.121094 237.207031 L 11.40625 195.960938 L 82.457031 215.820312 Z M 70.925781 257.0625 " clip-rule="nonzero"/></clipPath><clipPath id="4c65a3fbd4"><path d="M 35.464844 247.152344 C 55.050781 252.625 73.507812 247.832031 76.691406 236.441406 C 79.875 225.054688 66.578125 211.382812 46.992188 205.90625 C 27.40625 200.433594 8.949219 205.226562 5.765625 216.617188 C 2.582031 228.007812 15.878906 241.675781 35.464844 247.152344 Z M 35.464844 247.152344 " clip-rule="nonzero"/></clipPath><clipPath id="3b9ab75bde"><path d="M 0 0 L 73 0 L 73 47 L 0 47 Z M 0 0 " clip-rule="nonzero"/></clipPath><clipPath id="3814be5d89"><path d="M 65.925781 54.0625 L -5.121094 34.207031 L 6.40625 -7.039062 L 77.457031 12.820312 Z M 65.925781 54.0625 " clip-rule="nonzero"/></clipPath><clipPath id="035cdc1c8c"><path d="M 30.464844 44.152344 C 50.050781 49.625 68.507812 44.832031 71.691406 33.441406 C 74.875 22.054688 61.578125 8.382812 41.992188 2.90625 C 22.40625 -2.566406 3.949219 2.226562 0.765625 13.617188 C -2.417969 25.007812 10.878906 38.675781 30.464844 44.152344 Z M 30.464844 44.152344 " clip-rule="nonzero"/></clipPath><clipPath id="e4bf182c28"><rect x="0" width="73" y="0" height="47"/></clipPath><clipPath id="13118c811f"><path d="M 282 203 L 355 203 L 355 250 L 282 250 Z M 282 203 " clip-rule="nonzero"/></clipPath><clipPath id="4d7ef23153"><path d="M 360 236.726562 L 289.097656 257.101562 L 277.269531 215.941406 L 348.171875 195.566406 Z M 360 236.726562 " clip-rule="nonzero"/></clipPath><clipPath id="d008463e4f"><path d="M 324.609375 246.894531 C 344.15625 241.28125 357.351562 227.511719 354.085938 216.148438 C 350.820312 204.78125 332.328125 200.121094 312.78125 205.738281 C 293.234375 211.351562 280.039062 225.121094 283.304688 236.484375 C 286.570312 247.851562 305.0625 252.511719 324.609375 246.894531 Z M 324.609375 246.894531 " clip-rule="nonzero"/></clipPath><clipPath id="7f44d37a27"><path d="M 0 0 L 73 0 L 73 47 L 0 47 Z M 0 0 " clip-rule="nonzero"/></clipPath><clipPath id="3a8ea00750"><path d="M 78 33.726562 L 7.097656 54.101562 L -4.730469 12.941406 L 66.171875 -7.433594 Z M 78 33.726562 " clip-rule="nonzero"/></clipPath><clipPath id="29980a92b3"><path d="M 42.609375 43.894531 C 62.15625 38.28125 75.351562 24.511719 72.085938 13.148438 C 68.820312 1.78125 50.328125 -2.878906 30.78125 2.738281 C 11.234375 8.351562 -1.960938 22.121094 1.304688 33.484375 C 4.570312 44.851562 23.0625 49.511719 42.609375 43.894531 Z M 42.609375 43.894531 " clip-rule="nonzero"/></clipPath><clipPath id="caac4388fe"><rect x="0" width="73" y="0" height="47"/></clipPath><clipPath id="114f673c3e"><path d="M 41.265625 41.265625 L 318.734375 41.265625 L 318.734375 318.734375 L 41.265625 318.734375 Z M 41.265625 41.265625 " clip-rule="nonzero"/></clipPath><clipPath id="cb1841341f"><path d="M 180 41.265625 C 103.378906 41.265625 41.265625 103.378906 41.265625 180 C 41.265625 256.621094 103.378906 318.734375 180 318.734375 C 256.621094 318.734375 318.734375 256.621094 318.734375 180 C 318.734375 103.378906 256.621094 41.265625 180 41.265625 Z M 180 41.265625 " clip-rule="nonzero"/></clipPath><clipPath id="74216e93b7"><path d="M 0.265625 0.265625 L 277.734375 0.265625 L 277.734375 277.734375 L 0.265625 277.734375 Z M 0.265625 0.265625 " clip-rule="nonzero"/></clipPath><clipPath id="5f17616750"><path d="M 139 0.265625 C 62.378906 0.265625 0.265625 62.378906 0.265625 139 C 0.265625 215.621094 62.378906 277.734375 139 277.734375 C 215.621094 277.734375 277.734375 215.621094 277.734375 139 C 277.734375 62.378906 215.621094 0.265625 139 0.265625 Z M 139 0.265625 " clip-rule="nonzero"/></clipPath><clipPath id="409b8de3d1"><rect x="0" width="278" y="0" height="278"/></clipPath><clipPath id="b6a26e9e8e"><path d="M 42 260.984375 L 318.765625 260.984375 L 318.765625 318.734375 L 42 318.734375 Z M 42 260.984375 " clip-rule="nonzero"/></clipPath><clipPath id="0510d22c16"><path d="M 41.265625 260.984375 L 318.765625 260.984375 L 318.765625 318.734375 L 41.265625 318.734375 Z M 41.265625 260.984375 " clip-rule="nonzero"/></clipPath><clipPath id="6fe3ae9954"><path d="M 62 199 L 109 199 L 109 231.773438 L 62 231.773438 Z M 62 199 " clip-rule="nonzero"/></clipPath><clipPath id="f6bf9ba8f2"><path d="M 58 195 L 112.308594 195 L 112.308594 231.773438 L 58 231.773438 Z M 58 195 " clip-rule="nonzero"/></clipPath><clipPath id="ba06e720e1"><path d="M 63 208 L 109 208 L 109 231.773438 L 63 231.773438 Z M 63 208 " clip-rule="nonzero"/></clipPath><clipPath id="100d1dc0d0"><path d="M 63 211 L 109 211 L 109 231.773438 L 63 231.773438 Z M 63 211 " clip-rule="nonzero"/></clipPath><clipPath id="9fd9df88ab"><path d="M 63 200 L 109 200 L 109 231.773438 L 63 231.773438 Z M 63 200 " clip-rule="nonzero"/></clipPath><clipPath id="1b4ec8199a"><path d="M 254 199 L 301 199 L 301 231.773438 L 254 231.773438 Z M 254 199 " clip-rule="nonzero"/></clipPath><clipPath id="854a4ad579"><path d="M 250 195 L 303.925781 195 L 303.925781 231.773438 L 250 231.773438 Z M 250 195 " clip-rule="nonzero"/></clipPath><clipPath id="4c73ec2e64"><path d="M 254 208 L 301 208 L 301 231.773438 L 254 231.773438 Z M 254 208 " clip-rule="nonzero"/></clipPath><clipPath id="03278253ef"><path d="M 255 211 L 301 211 L 301 231.773438 L 255 231.773438 Z M 255 211 " clip-rule="nonzero"/></clipPath><clipPath id="0fcb21b0b9"><path d="M 254 200 L 301 200 L 301 231.773438 L 254 231.773438 Z M 254 200 " clip-rule="nonzero"/></clipPath></defs><g clip-path="url(#94024cb1f6)"><g clip-path="url(#720639e3e7)"><g clip-path="url(#4c65a3fbd4)"><g transform="matrix(1, 0, 0, 1, 5, 203)"><g clip-path="url(#e4bf182c28)"><g clip-path="url(#3b9ab75bde)"><g clip-path="url(#3814be5d89)"><g clip-path="url(#035cdc1c8c)"><path fill="#9f79ed" d="M 65.925781 54.0625 L -4.960938 34.25 L 6.566406 -6.992188 L 77.457031 12.820312 Z M 65.925781 54.0625 " fill-opacity="1" fill-rule="nonzero"/></g></g></g></g></g></g></g></g><g clip-path="url(#13118c811f)"><g clip-path="url(#4d7ef23153)"><g clip-path="url(#d008463e4f)"><g transform="matrix(1, 0, 0, 1, 282, 203)"><g clip-path="url(#caac4388fe)"><g clip-path="url(#7f44d37a27)"><g clip-path="url(#3a8ea00750)"><g clip-path="url(#29980a92b3)"><path fill="#9f79ed" d="M 78 33.726562 L 7.257812 54.054688 L -4.570312 12.894531 L 66.171875 -7.433594 Z M 78 33.726562 " fill-opacity="1" fill-rule="nonzero"/></g></g></g></g></g></g></g></g><g clip-path="url(#114f673c3e)"><g clip-path="url(#cb1841341f)"><g transform="matrix(1, 0, 0, 1, 41, 41)"><g clip-path="url(#409b8de3d1)"><g clip-path="url(#74216e93b7)"><g clip-path="url(#5f17616750)"><path fill="#b28cff" d="M 0.265625 0.265625 L 277.734375 0.265625 L 277.734375 277.734375 L 0.265625 277.734375 Z M 0.265625 0.265625 " fill-opacity="1" fill-rule="nonzero"/></g></g></g></g></g></g><g clip-path="url(#b6a26e9e8e)"><path fill="#fffbf0" d="M 318.09375 190.855469 C 312.480469 262.097656 252.660156 318.265625 180.015625 318.265625 C 107.371094 318.265625 47.648438 262.097656 42.03125 190.855469 Z M 317.160156 190.855469 C 311.542969 261.535156 252.191406 317.328125 180.015625 317.328125 C 107.839844 317.328125 48.582031 261.535156 42.871094 190.855469 Z M 317.160156 190.855469 " fill-opacity="1" fill-rule="nonzero"/><path fill="#fffbf0" d="M 317.160156 190.855469 L 318.09375 190.855469 C 312.480469 262.097656 252.660156 318.265625 180.015625 318.265625 C 107.371094 318.265625 47.648438 262.097656 42.03125 190.855469 L 318.09375 190.855469 C 312.480469 262.097656 252.660156 318.265625 180.015625 318.265625 C 107.371094 318.265625 47.648438 262.097656 42.03125 190.855469 Z M 317.160156 190.855469 " fill-opacity="1" fill-rule="nonzero"/></g><g clip-path="url(#0510d22c16)"><path stroke-linecap="butt" transform="matrix(-0.936132, 0, 0, -0.936132, 420.601822, 455.876364)" fill="none" stroke-linejoin="miter" d="M 110.498988 283.101985 L 109.5017 283.101985 C 115.497948 206.999289 179.39951 146.999252 257.000226 146.999252 C 334.600941 146.999252 398.398184 206.999289 404.398605 283.101985 L 109.5017 283.101985 C 115.497948 206.999289 179.39951 146.999252 257.000226 146.999252 C 334.600941 146.999252 398.398184 206.999289 404.398605 283.101985 Z M 110.498988 283.101985 " stroke="#fef8fb" stroke-width="1" stroke-opacity="1" stroke-miterlimit="10"/></g><g clip-path="url(#6fe3ae9954)"><path fill="#000000" d="M 63.289062 231.375 C 56.058594 192.46875 112.296875 186.554688 108.683594 228.644531 C 105.519531 219.542969 78.871094 204.527344 63.289062 231.375 Z M 63.289062 231.375 " fill-opacity="1" fill-rule="evenodd"/></g><g clip-path="url(#f6bf9ba8f2)"><path stroke-linecap="butt" transform="matrix(0, -0.551783, 0.547712, 0, 57.976541, 246.392618)" fill="none" stroke-linejoin="miter" d="M 27.216514 9.699485 C 97.72653 -3.501745 108.444619 99.176868 32.164958 92.579819 C 48.659771 86.802944 75.872673 38.148814 27.216514 9.699485 Z M 27.216514 9.699485 " stroke="#000000" stroke-width="1.25" stroke-opacity="1" stroke-miterlimit="4"/></g><g clip-path="url(#ba06e720e1)"><path fill="#000000" d="M 63.1875 231.132812 C 66.347656 203.148438 101.128906 199.734375 108.582031 228.40625 C 105.417969 219.304688 78.769531 204.285156 63.1875 231.132812 Z M 63.1875 231.132812 " fill-opacity="0.05" fill-rule="evenodd"/></g><path fill="#000000" d="M 62.949219 230.882812 C 68.144531 204.941406 99.761719 202.210938 108.34375 228.152344 C 105.183594 219.050781 78.53125 204.03125 62.949219 230.882812 Z M 62.949219 230.882812 " fill-opacity="0.05" fill-rule="evenodd"/><g clip-path="url(#100d1dc0d0)"><path fill="#000000" d="M 63.398438 231.347656 C 70.628906 207.683594 97.050781 203.816406 108.796875 228.617188 C 105.632812 219.515625 78.984375 204.496094 63.398438 231.347656 Z M 63.398438 231.347656 " fill-opacity="0.05" fill-rule="evenodd"/></g><g clip-path="url(#9fd9df88ab)"><path fill="#000000" d="M 63.636719 231.363281 C 56.863281 193.136719 111.515625 187.675781 108.582031 228.632812 C 110.613281 199.734375 64.765625 186.085938 63.636719 231.363281 Z M 63.636719 231.363281 " fill-opacity="0.5" fill-rule="evenodd"/></g><g clip-path="url(#1b4ec8199a)"><path fill="#000000" d="M 254.902344 231.375 C 247.675781 192.46875 303.910156 186.554688 300.296875 228.644531 C 297.136719 219.542969 270.488281 204.527344 254.902344 231.375 Z M 254.902344 231.375 " fill-opacity="1" fill-rule="evenodd"/></g><g clip-path="url(#854a4ad579)"><path stroke-linecap="butt" transform="matrix(0, -0.551783, 0.547712, 0, 249.592194, 246.392618)" fill="none" stroke-linejoin="miter" d="M 27.216514 9.695154 C 97.72653 -3.498945 108.444619 99.172537 32.164958 92.575488 C 48.659771 86.805744 75.872673 38.151615 27.216514 9.695154 Z M 27.216514 9.695154 " stroke="#000000" stroke-width="1.25" stroke-opacity="1" stroke-miterlimit="4"/></g><g clip-path="url(#4c73ec2e64)"><path fill="#000000" d="M 254.800781 231.132812 C 257.964844 203.148438 292.742188 199.734375 300.195312 228.40625 C 297.035156 219.304688 270.386719 204.285156 254.800781 231.132812 Z M 254.800781 231.132812 " fill-opacity="0.05" fill-rule="evenodd"/></g><path fill="#000000" d="M 254.5625 230.882812 C 259.757812 204.941406 291.378906 202.210938 299.960938 228.152344 C 296.796875 219.050781 270.148438 204.03125 254.5625 230.882812 Z M 254.5625 230.882812 " fill-opacity="0.05" fill-rule="evenodd"/><g clip-path="url(#03278253ef)"><path fill="#000000" d="M 255.015625 231.347656 C 262.242188 207.683594 288.667969 203.816406 300.410156 228.617188 C 297.25 219.515625 270.597656 204.496094 255.015625 231.347656 Z M 255.015625 231.347656 " fill-opacity="0.05" fill-rule="evenodd"/></g><g clip-path="url(#0fcb21b0b9)"><path fill="#000000" d="M 255.253906 231.363281 C 248.476562 193.136719 303.132812 187.675781 300.195312 228.632812 C 302.230469 199.734375 256.382812 186.085938 255.253906 231.363281 Z M 255.253906 231.363281 " fill-opacity="0.5" fill-rule="evenodd"/></g></svg>