<svg xmlns="http://www.w3.org/2000/svg" xmlns:xlink="http://www.w3.org/1999/xlink" width="480" zoomAndPan="magnify" viewBox="0 0 360 359.999987" height="480" preserveAspectRatio="xMidYMid meet" version="1.0"><defs><clipPath id="7165c598fe"><path d="M 141 81 L 178 81 L 178 105 L 141 105 Z M 141 81 " clip-rule="nonzero"/></clipPath><clipPath id="bbc2280a3b"><path d="M 144.46875 77.804688 L 179.949219 87.722656 L 174.191406 108.320312 L 138.710938 98.402344 Z M 144.46875 77.804688 " clip-rule="nonzero"/></clipPath><clipPath id="5b8175003c"><path d="M 162.179688 82.757812 C 152.398438 80.023438 143.179688 82.417969 141.589844 88.105469 C 140 93.792969 146.640625 100.621094 156.421875 103.351562 C 166.203125 106.085938 175.417969 103.691406 177.007812 98.003906 C 178.597656 92.316406 171.957031 85.488281 162.179688 82.757812 Z M 162.179688 82.757812 " clip-rule="nonzero"/></clipPath><clipPath id="0454a89417"><path d="M 0 0 L 37 0 L 37 24 L 0 24 Z M 0 0 " clip-rule="nonzero"/></clipPath><clipPath id="30ee8a62be"><path d="M 3.46875 -3.195312 L 38.949219 6.722656 L 33.191406 27.320312 L -2.289062 17.402344 Z M 3.46875 -3.195312 " clip-rule="nonzero"/></clipPath><clipPath id="b5cba3c91a"><path d="M 21.179688 1.757812 C 11.398438 -0.976562 2.179688 1.417969 0.589844 7.105469 C -1 12.792969 5.640625 19.621094 15.421875 22.351562 C 25.203125 25.085938 34.417969 22.691406 36.007812 17.003906 C 37.597656 11.316406 30.957031 4.488281 21.179688 1.757812 Z M 21.179688 1.757812 " clip-rule="nonzero"/></clipPath><clipPath id="01c3e329c8"><rect x="0" width="37" y="0" height="24"/></clipPath><clipPath id="a1b09411d4"><path d="M 2 81 L 39 81 L 39 105 L 2 105 Z M 2 81 " clip-rule="nonzero"/></clipPath><clipPath id="220456e4ef"><path d="M 0.113281 87.964844 L 35.519531 77.789062 L 41.425781 98.34375 L 6.019531 108.519531 Z M 0.113281 87.964844 " clip-rule="nonzero"/></clipPath><clipPath id="a335860a91"><path d="M 17.785156 82.882812 C 8.023438 85.6875 1.433594 92.5625 3.066406 98.242188 C 4.695312 103.917969 13.929688 106.242188 23.691406 103.4375 C 33.453125 100.632812 40.042969 93.757812 38.414062 88.082031 C 36.78125 82.40625 27.546875 80.078125 17.785156 82.882812 Z M 17.785156 82.882812 " clip-rule="nonzero"/></clipPath><clipPath id="5d2852785a"><path d="M 0 0 L 37 0 L 37 24 L 0 24 Z M 0 0 " clip-rule="nonzero"/></clipPath><clipPath id="344c0d1196"><path d="M -1.886719 6.964844 L 33.519531 -3.210938 L 39.425781 17.34375 L 4.019531 27.519531 Z M -1.886719 6.964844 " clip-rule="nonzero"/></clipPath><clipPath id="ea33a4e4e2"><path d="M 15.785156 1.882812 C 6.023438 4.6875 -0.566406 11.5625 1.066406 17.242188 C 2.695312 22.917969 11.929688 25.242188 21.691406 22.4375 C 31.453125 19.632812 38.042969 12.757812 36.414062 7.082031 C 34.78125 1.40625 25.546875 -0.921875 15.785156 1.882812 Z M 15.785156 1.882812 " clip-rule="nonzero"/></clipPath><clipPath id="63648e554f"><rect x="0" width="37" y="0" height="24"/></clipPath><clipPath id="19e021b396"><path d="M 20.71875 0.746094 L 159.28125 0.746094 L 159.28125 139.308594 L 20.71875 139.308594 Z M 20.71875 0.746094 " clip-rule="nonzero"/></clipPath><clipPath id="f44fcf84b5"><path d="M 90 0.746094 C 51.738281 0.746094 20.71875 31.765625 20.71875 70.027344 C 20.71875 108.292969 51.738281 139.308594 90 139.308594 C 128.261719 139.308594 159.28125 108.292969 159.28125 70.027344 C 159.28125 31.765625 128.261719 0.746094 90 0.746094 Z M 90 0.746094 " clip-rule="nonzero"/></clipPath><clipPath id="a6e16beaad"><path d="M 0.71875 0.746094 L 139.28125 0.746094 L 139.28125 139.308594 L 0.71875 139.308594 Z M 0.71875 0.746094 " clip-rule="nonzero"/></clipPath><clipPath id="dc5b70ae9a"><path d="M 70 0.746094 C 31.738281 0.746094 0.71875 31.765625 0.71875 70.027344 C 0.71875 108.292969 31.738281 139.308594 70 139.308594 C 108.261719 139.308594 139.28125 108.292969 139.28125 70.027344 C 139.28125 31.765625 108.261719 0.746094 70 0.746094 Z M 70 0.746094 " clip-rule="nonzero"/></clipPath><clipPath id="bef2fd071f"><rect x="0" width="140" y="0" height="140"/></clipPath><clipPath id="fde886f3a2"><path d="M 30.640625 79.441406 L 53.808594 79.441406 L 53.808594 102.613281 L 30.640625 102.613281 Z M 30.640625 79.441406 " clip-rule="nonzero"/></clipPath><clipPath id="149ddcce23"><path d="M 42.226562 79.441406 C 35.828125 79.441406 30.640625 84.628906 30.640625 91.027344 C 30.640625 97.425781 35.828125 102.613281 42.226562 102.613281 C 48.621094 102.613281 53.808594 97.425781 53.808594 91.027344 C 53.808594 84.628906 48.621094 79.441406 42.226562 79.441406 Z M 42.226562 79.441406 " clip-rule="nonzero"/></clipPath><clipPath id="bc2c03cc31"><path d="M 0.640625 0.441406 L 23.808594 0.441406 L 23.808594 23.613281 L 0.640625 23.613281 Z M 0.640625 0.441406 " clip-rule="nonzero"/></clipPath><clipPath id="83965bce39"><path d="M 12.226562 0.441406 C 5.828125 0.441406 0.640625 5.628906 0.640625 12.027344 C 0.640625 18.425781 5.828125 23.613281 12.226562 23.613281 C 18.621094 23.613281 23.808594 18.425781 23.808594 12.027344 C 23.808594 5.628906 18.621094 0.441406 12.226562 0.441406 Z M 12.226562 0.441406 " clip-rule="nonzero"/></clipPath><clipPath id="b3aa79d02e"><rect x="0" width="24" y="0" height="24"/></clipPath><clipPath id="8f8514cf1b"><path d="M 126.191406 79.441406 L 149.359375 79.441406 L 149.359375 102.613281 L 126.191406 102.613281 Z M 126.191406 79.441406 " clip-rule="nonzero"/></clipPath><clipPath id="89d8d00a36"><path d="M 137.773438 79.441406 C 131.378906 79.441406 126.191406 84.628906 126.191406 91.027344 C 126.191406 97.425781 131.378906 102.613281 137.773438 102.613281 C 144.171875 102.613281 149.359375 97.425781 149.359375 91.027344 C 149.359375 84.628906 144.171875 79.441406 137.773438 79.441406 Z M 137.773438 79.441406 " clip-rule="nonzero"/></clipPath><clipPath id="44018e5c1e"><path d="M 0.191406 0.441406 L 23.359375 0.441406 L 23.359375 23.613281 L 0.191406 23.613281 Z M 0.191406 0.441406 " clip-rule="nonzero"/></clipPath><clipPath id="1ced4f8643"><path d="M 11.773438 0.441406 C 5.378906 0.441406 0.191406 5.628906 0.191406 12.027344 C 0.191406 18.425781 5.378906 23.613281 11.773438 23.613281 C 18.171875 23.613281 23.359375 18.425781 23.359375 12.027344 C 23.359375 5.628906 18.171875 0.441406 11.773438 0.441406 Z M 11.773438 0.441406 " clip-rule="nonzero"/></clipPath><clipPath id="0df8ba3d92"><rect x="0" width="24" y="0" height="24"/></clipPath><clipPath id="22cd082fdf"><path d="M 19 110.25 L 161 110.25 L 161 139.289062 L 19 139.289062 Z M 19 110.25 " clip-rule="nonzero"/></clipPath><clipPath id="5b197da768"><path d="M 18.699219 110.25 L 161 110.25 L 161 139.289062 L 18.699219 139.289062 Z M 18.699219 110.25 " clip-rule="nonzero"/></clipPath><clipPath id="cf361b0fb9"><rect x="0" width="180" y="0" height="142"/></clipPath><clipPath id="157fc76e4b"><path d="M 148 137 L 180 137 L 180 167 L 148 167 Z M 148 137 " clip-rule="nonzero"/></clipPath><clipPath id="b104fe0d69"><path d="M 156.832031 131.550781 L 184.820312 155.507812 L 170.910156 171.753906 L 142.921875 147.796875 Z M 156.832031 131.550781 " clip-rule="nonzero"/></clipPath><clipPath id="e9fcb7eb45"><path d="M 170.800781 143.507812 C 163.085938 136.90625 153.71875 135.1875 149.878906 139.675781 C 146.035156 144.160156 149.179688 153.152344 156.894531 159.753906 C 164.609375 166.359375 173.976562 168.078125 177.816406 163.589844 C 181.65625 159.101562 178.515625 150.113281 170.800781 143.507812 Z M 170.800781 143.507812 " clip-rule="nonzero"/></clipPath><clipPath id="fbbf1246df"><path d="M 0 0 L 32 0 L 32 30 L 0 30 Z M 0 0 " clip-rule="nonzero"/></clipPath><clipPath id="0e3b44ef36"><path d="M 8.832031 -5.449219 L 36.820312 18.507812 L 22.910156 34.753906 L -5.078125 10.796875 Z M 8.832031 -5.449219 " clip-rule="nonzero"/></clipPath><clipPath id="e208a34902"><path d="M 22.800781 6.507812 C 15.085938 -0.09375 5.71875 -1.8125 1.878906 2.675781 C -1.964844 7.160156 1.179688 16.152344 8.894531 22.753906 C 16.609375 29.359375 25.976562 31.078125 29.816406 26.589844 C 33.65625 22.101562 30.515625 13.113281 22.800781 6.507812 Z M 22.800781 6.507812 " clip-rule="nonzero"/></clipPath><clipPath id="176fc74e31"><rect x="0" width="32" y="0" height="30"/></clipPath><clipPath id="853b38ec14"><path d="M 19 82 L 57 82 L 57 105 L 19 105 Z M 19 82 " clip-rule="nonzero"/></clipPath><clipPath id="8e79e8c0a3"><path d="M 21.65625 79.875 L 58.050781 85.582031 L 54.738281 106.710938 L 18.34375 101 Z M 21.65625 79.875 " clip-rule="nonzero"/></clipPath><clipPath id="e66adcca2a"><path d="M 39.824219 82.722656 C 29.789062 81.148438 20.914062 84.601562 20 90.4375 C 19.085938 96.273438 26.476562 102.277344 36.507812 103.851562 C 46.542969 105.425781 55.417969 101.96875 56.332031 96.136719 C 57.246094 90.300781 49.855469 84.296875 39.824219 82.722656 Z M 39.824219 82.722656 " clip-rule="nonzero"/></clipPath><clipPath id="f1834a135a"><path d="M 0 0 L 38 0 L 38 23 L 0 23 Z M 0 0 " clip-rule="nonzero"/></clipPath><clipPath id="95af018354"><path d="M 2.65625 -2.125 L 39.050781 3.582031 L 35.738281 24.710938 L -0.65625 19 Z M 2.65625 -2.125 " clip-rule="nonzero"/></clipPath><clipPath id="f09d18600f"><path d="M 20.824219 0.722656 C 10.789062 -0.851562 1.914062 2.601562 1 8.4375 C 0.0859375 14.273438 7.476562 20.277344 17.507812 21.851562 C 27.542969 23.425781 36.417969 19.96875 37.332031 14.136719 C 38.246094 8.300781 30.855469 2.296875 20.824219 0.722656 Z M 20.824219 0.722656 " clip-rule="nonzero"/></clipPath><clipPath id="84f44db00f"><rect x="0" width="38" y="0" height="23"/></clipPath><clipPath id="27aeb89829"><path d="M 41 32 L 181 32 L 181 171 L 41 171 Z M 41 32 " clip-rule="nonzero"/></clipPath><clipPath id="57f30614d0"><path d="M 77.125 9.484375 L 202.761719 67.925781 L 144.320312 193.5625 L 18.683594 135.121094 Z M 77.125 9.484375 " clip-rule="nonzero"/></clipPath><clipPath id="eb452d375f"><path d="M 139.945312 38.707031 C 105.25 22.566406 64.042969 37.609375 47.90625 72.304688 C 31.765625 106.996094 46.808594 148.203125 81.503906 164.34375 C 116.195312 180.480469 157.402344 165.4375 173.542969 130.746094 C 189.679688 96.050781 174.636719 54.84375 139.945312 38.707031 Z M 139.945312 38.707031 " clip-rule="nonzero"/></clipPath><clipPath id="b2608f6ee4"><path d="M 0 0 L 140 0 L 140 139 L 0 139 Z M 0 0 " clip-rule="nonzero"/></clipPath><clipPath id="1678fe727e"><path d="M 36.125 -22.515625 L 161.761719 35.925781 L 103.320312 161.5625 L -22.316406 103.121094 Z M 36.125 -22.515625 " clip-rule="nonzero"/></clipPath><clipPath id="550139fd07"><path d="M 98.945312 6.707031 C 64.25 -9.433594 23.042969 5.609375 6.90625 40.304688 C -9.234375 74.996094 5.808594 116.203125 40.503906 132.34375 C 75.195312 148.480469 116.402344 133.4375 132.542969 98.746094 C 148.679688 64.050781 133.636719 22.84375 98.945312 6.707031 Z M 98.945312 6.707031 " clip-rule="nonzero"/></clipPath><clipPath id="473a5c9f24"><rect x="0" width="140" y="0" height="139"/></clipPath><clipPath id="acc133bbcd"><path d="M 46 88 L 71 88 L 71 112 L 46 112 Z M 46 88 " clip-rule="nonzero"/></clipPath><clipPath id="0ee4191394"><path d="M 52.929688 85.023438 L 73.9375 94.796875 L 64.167969 115.804688 L 43.160156 106.03125 Z M 52.929688 85.023438 " clip-rule="nonzero"/></clipPath><clipPath id="a838d4ed3f"><path d="M 63.433594 89.910156 C 57.632812 87.210938 50.742188 89.726562 48.042969 95.527344 C 45.347656 101.328125 47.863281 108.21875 53.664062 110.917969 C 59.464844 113.617188 66.355469 111.101562 69.054688 105.300781 C 71.75 99.5 69.238281 92.609375 63.433594 89.910156 Z M 63.433594 89.910156 " clip-rule="nonzero"/></clipPath><clipPath id="d02476dfcc"><path d="M 0 0 L 25 0 L 25 24 L 0 24 Z M 0 0 " clip-rule="nonzero"/></clipPath><clipPath id="ac7c1547ab"><path d="M 6.929688 -2.976562 L 27.9375 6.796875 L 18.167969 27.804688 L -2.839844 18.03125 Z M 6.929688 -2.976562 " clip-rule="nonzero"/></clipPath><clipPath id="8ee9cb9222"><path d="M 17.433594 1.910156 C 11.632812 -0.789062 4.742188 1.726562 2.042969 7.527344 C -0.652344 13.328125 1.863281 20.21875 7.664062 22.917969 C 13.464844 25.617188 20.355469 23.101562 23.054688 17.300781 C 25.75 11.5 23.238281 4.609375 17.433594 1.910156 Z M 17.433594 1.910156 " clip-rule="nonzero"/></clipPath><clipPath id="31c8bd3948"><rect x="0" width="25" y="0" height="24"/></clipPath><clipPath id="88287f3c60"><path d="M 133 129 L 157 129 L 157 153 L 133 153 Z M 133 129 " clip-rule="nonzero"/></clipPath><clipPath id="7210ecb89d"><path d="M 139.566406 125.324219 L 160.574219 135.097656 L 150.804688 156.105469 L 129.792969 146.332031 Z M 139.566406 125.324219 " clip-rule="nonzero"/></clipPath><clipPath id="ff1075227d"><path d="M 150.070312 130.210938 C 144.269531 127.511719 137.378906 130.027344 134.679688 135.828125 C 131.984375 141.628906 134.496094 148.519531 140.300781 151.21875 C 146.101562 153.917969 152.992188 151.402344 155.6875 145.601562 C 158.386719 139.800781 155.871094 132.910156 150.070312 130.210938 Z M 150.070312 130.210938 " clip-rule="nonzero"/></clipPath><clipPath id="43cad8dda4"><path d="M 0 0 L 24 0 L 24 24 L 0 24 Z M 0 0 " clip-rule="nonzero"/></clipPath><clipPath id="22b5d51ee2"><path d="M 6.566406 -3.675781 L 27.574219 6.097656 L 17.804688 27.105469 L -3.207031 17.332031 Z M 6.566406 -3.675781 " clip-rule="nonzero"/></clipPath><clipPath id="cefbd42c82"><path d="M 17.070312 1.210938 C 11.269531 -1.488281 4.378906 1.027344 1.679688 6.828125 C -1.015625 12.628906 1.496094 19.519531 7.300781 22.21875 C 13.101562 24.917969 19.992188 22.402344 22.6875 16.601562 C 25.386719 10.800781 22.871094 3.910156 17.070312 1.210938 Z M 17.070312 1.210938 " clip-rule="nonzero"/></clipPath><clipPath id="01f7cdf639"><rect x="0" width="24" y="0" height="24"/></clipPath><clipPath id="3de53684eb"><path d="M 40 108 L 159 108 L 159 171 L 40 171 Z M 40 108 " clip-rule="nonzero"/></clipPath><clipPath id="f5089801b0"><path d="M 145.878906 194.277344 L 17.378906 134.503906 L 29.707031 108 L 158.207031 167.773438 Z M 145.878906 194.277344 " clip-rule="nonzero"/></clipPath><clipPath id="a1bd255f12"><path d="M 145.878906 194.277344 L 17.378906 134.503906 L 45.023438 75.070312 L 173.523438 134.84375 Z M 145.878906 194.277344 " clip-rule="nonzero"/></clipPath><clipPath id="6f2eb463f7"><path d="M 33 108 L 159 108 L 159 178 L 33 178 Z M 33 108 " clip-rule="nonzero"/></clipPath><clipPath id="ffd9df18e3"><path d="M 145.878906 194.277344 L 17.378906 134.503906 L 29.707031 108 L 158.207031 167.773438 Z M 145.878906 194.277344 " clip-rule="nonzero"/></clipPath><clipPath id="3ee11fd502"><path d="M 145.878906 194.277344 L 17.378906 134.503906 L 45.023438 75.070312 L 173.523438 134.84375 Z M 145.878906 194.277344 " clip-rule="nonzero"/></clipPath><clipPath id="fd9897d00a"><rect x="0" width="222" y="0" height="205"/></clipPath><clipPath id="a011756930"><path d="M 165 82 L 203 82 L 203 105 L 165 105 Z M 165 82 " clip-rule="nonzero"/></clipPath><clipPath id="eab553ec0f"><path d="M 163.914062 85.53125 L 200.265625 79.53125 L 203.746094 100.632812 L 167.398438 106.628906 Z M 163.914062 85.53125 " clip-rule="nonzero"/></clipPath><clipPath id="181a35e3bf"><path d="M 182.058594 82.535156 C 172.039062 84.1875 164.695312 90.253906 165.65625 96.082031 C 166.617188 101.90625 175.519531 105.289062 185.542969 103.636719 C 195.5625 101.984375 202.90625 95.917969 201.945312 90.09375 C 200.980469 84.265625 192.078125 80.882812 182.058594 82.535156 Z M 182.058594 82.535156 " clip-rule="nonzero"/></clipPath><clipPath id="a0df4f5d14"><path d="M 0 0 L 38 0 L 38 23 L 0 23 Z M 0 0 " clip-rule="nonzero"/></clipPath><clipPath id="4438429377"><path d="M -1.085938 3.53125 L 35.265625 -2.46875 L 38.746094 18.632812 L 2.398438 24.628906 Z M -1.085938 3.53125 " clip-rule="nonzero"/></clipPath><clipPath id="f4e35bc37b"><path d="M 17.058594 0.535156 C 7.039062 2.1875 -0.304688 8.253906 0.65625 14.082031 C 1.617188 19.90625 10.519531 23.289062 20.542969 21.636719 C 30.5625 19.984375 37.90625 13.917969 36.945312 8.09375 C 35.980469 2.265625 27.078125 -1.117188 17.058594 0.535156 Z M 17.058594 0.535156 " clip-rule="nonzero"/></clipPath><clipPath id="dd187a8aef"><rect x="0" width="38" y="0" height="23"/></clipPath><clipPath id="976e3c867b"><path d="M 42 137 L 74 137 L 74 167 L 42 167 Z M 42 137 " clip-rule="nonzero"/></clipPath><clipPath id="1ec85e1516"><path d="M 37.355469 155.710938 L 65.152344 131.535156 L 79.191406 147.667969 L 51.394531 171.847656 Z M 37.355469 155.710938 " clip-rule="nonzero"/></clipPath><clipPath id="ce2570376b"><path d="M 51.230469 143.644531 C 43.570312 150.308594 40.5 159.324219 44.375 163.78125 C 48.25 168.234375 57.605469 166.445312 65.265625 159.78125 C 72.929688 153.113281 76 144.097656 72.125 139.644531 C 68.25 135.1875 58.894531 136.976562 51.230469 143.644531 Z M 51.230469 143.644531 " clip-rule="nonzero"/></clipPath><clipPath id="861ed6f5e8"><path d="M 0 0 L 32 0 L 32 30 L 0 30 Z M 0 0 " clip-rule="nonzero"/></clipPath><clipPath id="018aed7c19"><path d="M -4.644531 18.710938 L 23.152344 -5.464844 L 37.191406 10.667969 L 9.394531 34.847656 Z M -4.644531 18.710938 " clip-rule="nonzero"/></clipPath><clipPath id="f9b2d7e255"><path d="M 9.230469 6.644531 C 1.570312 13.308594 -1.5 22.324219 2.375 26.78125 C 6.25 31.234375 15.605469 29.445312 23.265625 22.78125 C 30.929688 16.113281 34 7.097656 30.125 2.644531 C 26.25 -1.8125 16.894531 -0.0234375 9.230469 6.644531 Z M 9.230469 6.644531 " clip-rule="nonzero"/></clipPath><clipPath id="037d2ac648"><rect x="0" width="32" y="0" height="30"/></clipPath><clipPath id="8102408c34"><path d="M 41 32 L 181 32 L 181 171 L 41 171 Z M 41 32 " clip-rule="nonzero"/></clipPath><clipPath id="0c7f188407"><path d="M 19.195312 67.953125 L 144.792969 9.421875 L 203.320312 135.019531 L 77.726562 193.550781 Z M 19.195312 67.953125 " clip-rule="nonzero"/></clipPath><clipPath id="541d372cf3"><path d="M 81.992188 38.6875 C 47.3125 54.851562 32.296875 96.070312 48.460938 130.75 C 64.621094 165.433594 105.839844 180.445312 140.523438 164.285156 C 175.207031 148.121094 190.21875 106.902344 174.054688 72.222656 C 157.894531 37.539062 116.675781 22.527344 81.992188 38.6875 Z M 81.992188 38.6875 " clip-rule="nonzero"/></clipPath><clipPath id="c6fb1ca543"><path d="M 0 0 L 140 0 L 140 139 L 0 139 Z M 0 0 " clip-rule="nonzero"/></clipPath><clipPath id="b712ba3e87"><path d="M -21.804688 35.953125 L 103.792969 -22.578125 L 162.320312 103.019531 L 36.726562 161.550781 Z M -21.804688 35.953125 " clip-rule="nonzero"/></clipPath><clipPath id="6b435abdae"><path d="M 40.992188 6.6875 C 6.3125 22.851562 -8.703125 64.070312 7.460938 98.75 C 23.621094 133.433594 64.839844 148.445312 99.523438 132.285156 C 134.207031 116.121094 149.21875 74.902344 133.054688 40.222656 C 116.894531 5.539062 75.675781 -9.472656 40.992188 6.6875 Z M 40.992188 6.6875 " clip-rule="nonzero"/></clipPath><clipPath id="111f305bc9"><rect x="0" width="140" y="0" height="139"/></clipPath><clipPath id="6dcf5d434c"><path d="M 65 129 L 89 129 L 89 153 L 65 153 Z M 65 129 " clip-rule="nonzero"/></clipPath><clipPath id="0d80ef77ec"><path d="M 61.429688 135.09375 L 82.433594 125.304688 L 92.21875 146.308594 L 71.21875 156.09375 Z M 61.429688 135.09375 " clip-rule="nonzero"/></clipPath><clipPath id="1495fef9b1"><path d="M 71.929688 130.199219 C 66.132812 132.902344 63.621094 139.792969 66.324219 145.59375 C 69.027344 151.394531 75.917969 153.902344 81.71875 151.203125 C 87.515625 148.5 90.027344 141.605469 87.324219 135.808594 C 84.621094 130.007812 77.730469 127.496094 71.929688 130.199219 Z M 71.929688 130.199219 " clip-rule="nonzero"/></clipPath><clipPath id="b25b8557a6"><path d="M 0 0 L 24 0 L 24 24 L 0 24 Z M 0 0 " clip-rule="nonzero"/></clipPath><clipPath id="cbdbc69672"><path d="M -3.570312 6.09375 L 17.433594 -3.695312 L 27.21875 17.308594 L 6.21875 27.09375 Z M -3.570312 6.09375 " clip-rule="nonzero"/></clipPath><clipPath id="70b46eca44"><path d="M 6.929688 1.199219 C 1.132812 3.902344 -1.378906 10.792969 1.324219 16.59375 C 4.027344 22.394531 10.917969 24.902344 16.71875 22.203125 C 22.515625 19.5 25.027344 12.605469 22.324219 6.808594 C 19.621094 1.007812 12.730469 -1.503906 6.929688 1.199219 Z M 6.929688 1.199219 " clip-rule="nonzero"/></clipPath><clipPath id="5ced09a370"><rect x="0" width="24" y="0" height="24"/></clipPath><clipPath id="f5091d1376"><path d="M 151 88 L 176 88 L 176 112 L 151 112 Z M 151 88 " clip-rule="nonzero"/></clipPath><clipPath id="7ef065f4cc"><path d="M 148.039062 94.734375 L 169.039062 84.945312 L 178.828125 105.949219 L 157.824219 115.734375 Z M 148.039062 94.734375 " clip-rule="nonzero"/></clipPath><clipPath id="6d58916b6d"><path d="M 158.539062 89.839844 C 152.738281 92.542969 150.230469 99.433594 152.933594 105.234375 C 155.632812 111.03125 162.527344 113.542969 168.324219 110.839844 C 174.125 108.136719 176.636719 101.246094 173.933594 95.445312 C 171.230469 89.648438 164.339844 87.136719 158.539062 89.839844 Z M 158.539062 89.839844 " clip-rule="nonzero"/></clipPath><clipPath id="1c13721a0d"><path d="M 0 0 L 25 0 L 25 24 L 0 24 Z M 0 0 " clip-rule="nonzero"/></clipPath><clipPath id="baf871d979"><path d="M -2.960938 6.734375 L 18.039062 -3.054688 L 27.828125 17.949219 L 6.824219 27.734375 Z M -2.960938 6.734375 " clip-rule="nonzero"/></clipPath><clipPath id="5feec77538"><path d="M 7.539062 1.839844 C 1.738281 4.542969 -0.769531 11.433594 1.933594 17.234375 C 4.632812 23.03125 11.527344 25.542969 17.324219 22.839844 C 23.125 20.136719 25.636719 13.246094 22.933594 7.445312 C 20.230469 1.648438 13.339844 -0.863281 7.539062 1.839844 Z M 7.539062 1.839844 " clip-rule="nonzero"/></clipPath><clipPath id="70e701597e"><rect x="0" width="25" y="0" height="24"/></clipPath><clipPath id="083fe16139"><path d="M 64 107 L 182 107 L 182 171 L 64 171 Z M 64 107 " clip-rule="nonzero"/></clipPath><clipPath id="3e2c02f34d"><path d="M 204.867188 134.285156 L 76.410156 194.148438 L 64.0625 167.65625 L 192.523438 107.792969 Z M 204.867188 134.285156 " clip-rule="nonzero"/></clipPath><clipPath id="f877059213"><path d="M 204.867188 134.285156 L 76.410156 194.148438 L 48.722656 134.738281 L 177.183594 74.875 Z M 204.867188 134.285156 " clip-rule="nonzero"/></clipPath><clipPath id="b9eb5afa83"><path d="M 64 107 L 189 107 L 189 178 L 64 178 Z M 64 107 " clip-rule="nonzero"/></clipPath><clipPath id="973c999dab"><path d="M 204.867188 134.285156 L 76.410156 194.148438 L 64.0625 167.65625 L 192.523438 107.792969 Z M 204.867188 134.285156 " clip-rule="nonzero"/></clipPath><clipPath id="19c495b9b1"><path d="M 204.867188 134.285156 L 76.410156 194.148438 L 48.722656 134.738281 L 177.183594 74.875 Z M 204.867188 134.285156 " clip-rule="nonzero"/></clipPath><clipPath id="352147ef76"><rect x="0" width="222" y="0" height="205"/></clipPath></defs><g transform="matrix(1, 0, 0, 1, 90, 34)"><g clip-path="url(#cf361b0fb9)"><g clip-path="url(#7165c598fe)"><g clip-path="url(#bbc2280a3b)"><g clip-path="url(#5b8175003c)"><g transform="matrix(1, 0, 0, 1, 141, 81)"><g clip-path="url(#01c3e329c8)"><g clip-path="url(#0454a89417)"><g clip-path="url(#30ee8a62be)"><g clip-path="url(#b5cba3c91a)"><path fill="#9f79ed" d="M 3.46875 -3.195312 L 38.867188 6.699219 L 33.113281 27.296875 L -2.289062 17.402344 Z M 3.46875 -3.195312 " fill-opacity="1" fill-rule="nonzero"/></g></g></g></g></g></g></g></g><g clip-path="url(#a1b09411d4)"><g clip-path="url(#220456e4ef)"><g clip-path="url(#a335860a91)"><g transform="matrix(1, 0, 0, 1, 2, 81)"><g clip-path="url(#63648e554f)"><g clip-path="url(#5d2852785a)"><g clip-path="url(#344c0d1196)"><g clip-path="url(#ea33a4e4e2)"><path fill="#9f79ed" d="M -1.886719 6.964844 L 33.441406 -3.1875 L 39.347656 17.367188 L 4.019531 27.519531 Z M -1.886719 6.964844 " fill-opacity="1" fill-rule="nonzero"/></g></g></g></g></g></g></g></g><g clip-path="url(#19e021b396)"><g clip-path="url(#f44fcf84b5)"><g transform="matrix(1, 0, 0, 1, 20, 0)"><g clip-path="url(#bef2fd071f)"><g clip-path="url(#a6e16beaad)"><g clip-path="url(#dc5b70ae9a)"><path fill="#b28cff" d="M 0.71875 0.746094 L 139.28125 0.746094 L 139.28125 139.308594 L 0.71875 139.308594 Z M 0.71875 0.746094 " fill-opacity="1" fill-rule="nonzero"/></g></g></g></g></g></g><g clip-path="url(#fde886f3a2)"><g clip-path="url(#149ddcce23)"><g transform="matrix(1, 0, 0, 1, 30, 79)"><g clip-path="url(#b3aa79d02e)"><g clip-path="url(#bc2c03cc31)"><g clip-path="url(#83965bce39)"><path fill="#000000" d="M 0.640625 0.441406 L 23.808594 0.441406 L 23.808594 23.613281 L 0.640625 23.613281 Z M 0.640625 0.441406 " fill-opacity="1" fill-rule="nonzero"/></g></g></g></g></g></g><g clip-path="url(#8f8514cf1b)"><g clip-path="url(#89d8d00a36)"><g transform="matrix(1, 0, 0, 1, 126, 79)"><g clip-path="url(#0df8ba3d92)"><g clip-path="url(#44018e5c1e)"><g clip-path="url(#1ced4f8643)"><path fill="#000000" d="M 0.191406 0.441406 L 23.359375 0.441406 L 23.359375 23.613281 L 0.191406 23.613281 Z M 0.191406 0.441406 " fill-opacity="1" fill-rule="nonzero"/></g></g></g></g></g></g><g clip-path="url(#22cd082fdf)"><path fill="#fffbf0" d="M 160.636719 73.871094 C 157.761719 110.316406 127.160156 139.050781 89.996094 139.050781 C 52.832031 139.050781 22.277344 110.316406 19.40625 73.871094 Z M 160.15625 73.871094 C 157.285156 110.027344 126.921875 138.570312 89.996094 138.570312 C 53.074219 138.570312 22.757812 110.027344 19.835938 73.871094 Z M 160.15625 73.871094 " fill-opacity="1" fill-rule="nonzero"/><path fill="#fffbf0" d="M 160.15625 73.871094 L 160.636719 73.871094 C 157.761719 110.316406 127.160156 139.050781 89.996094 139.050781 C 52.832031 139.050781 22.277344 110.316406 19.40625 73.871094 L 160.636719 73.871094 C 157.761719 110.316406 127.160156 139.050781 89.996094 139.050781 C 52.832031 139.050781 22.277344 110.316406 19.40625 73.871094 Z M 160.15625 73.871094 " fill-opacity="1" fill-rule="nonzero"/></g><g clip-path="url(#5b197da768)"><path stroke-linecap="butt" transform="matrix(-0.478911, 0, 0, -0.478911, 213.077385, 209.451006)" fill="none" stroke-linejoin="miter" d="M 110.503083 283.10047 L 109.49983 283.10047 C 115.503034 207.000073 179.401267 147.000661 257.002465 147.000661 C 334.603663 147.000661 398.404017 207.000073 404.399064 283.10047 L 109.49983 283.10047 C 115.503034 207.000073 179.401267 147.000661 257.002465 147.000661 C 334.603663 147.000661 398.404017 207.000073 404.399064 283.10047 Z M 110.503083 283.10047 " stroke="#fef8fb" stroke-width="1" stroke-opacity="1" stroke-miterlimit="10"/></g></g></g><g transform="matrix(1, 0, 0, 1, 0, 123)"><g clip-path="url(#fd9897d00a)"><g clip-path="url(#157fc76e4b)"><g clip-path="url(#b104fe0d69)"><g clip-path="url(#e9fcb7eb45)"><g transform="matrix(1, 0, 0, 1, 148, 137)"><g clip-path="url(#176fc74e31)"><g clip-path="url(#fbbf1246df)"><g clip-path="url(#0e3b44ef36)"><g clip-path="url(#e208a34902)"><path fill="#2fa3e6" d="M 8.832031 -5.449219 L 36.753906 18.453125 L 22.847656 34.699219 L -5.078125 10.796875 Z M 8.832031 -5.449219 " fill-opacity="1" fill-rule="nonzero"/></g></g></g></g></g></g></g></g><g clip-path="url(#853b38ec14)"><g clip-path="url(#8e79e8c0a3)"><g clip-path="url(#e66adcca2a)"><g transform="matrix(1, 0, 0, 1, 19, 82)"><g clip-path="url(#84f44db00f)"><g clip-path="url(#f1834a135a)"><g clip-path="url(#95af018354)"><g clip-path="url(#f09d18600f)"><path fill="#2fa3e6" d="M 2.65625 -2.125 L 38.96875 3.570312 L 35.65625 24.695312 L -0.65625 19 Z M 2.65625 -2.125 " fill-opacity="1" fill-rule="nonzero"/></g></g></g></g></g></g></g></g><g clip-path="url(#27aeb89829)"><g clip-path="url(#57f30614d0)"><g clip-path="url(#eb452d375f)"><g transform="matrix(1, 0, 0, 1, 41, 32)"><g clip-path="url(#473a5c9f24)"><g clip-path="url(#b2608f6ee4)"><g clip-path="url(#1678fe727e)"><g clip-path="url(#550139fd07)"><path fill="#38b6ff" d="M 36.125 -22.515625 L 161.761719 35.925781 L 103.320312 161.5625 L -22.316406 103.121094 Z M 36.125 -22.515625 " fill-opacity="1" fill-rule="nonzero"/></g></g></g></g></g></g></g></g><g clip-path="url(#acc133bbcd)"><g clip-path="url(#0ee4191394)"><g clip-path="url(#a838d4ed3f)"><g transform="matrix(1, 0, 0, 1, 46, 88)"><g clip-path="url(#31c8bd3948)"><g clip-path="url(#d02476dfcc)"><g clip-path="url(#ac7c1547ab)"><g clip-path="url(#8ee9cb9222)"><path fill="#000000" d="M 6.929688 -2.976562 L 27.9375 6.796875 L 18.167969 27.804688 L -2.839844 18.03125 Z M 6.929688 -2.976562 " fill-opacity="1" fill-rule="nonzero"/></g></g></g></g></g></g></g></g><g clip-path="url(#88287f3c60)"><g clip-path="url(#7210ecb89d)"><g clip-path="url(#ff1075227d)"><g transform="matrix(1, 0, 0, 1, 133, 129)"><g clip-path="url(#01f7cdf639)"><g clip-path="url(#43cad8dda4)"><g clip-path="url(#22b5d51ee2)"><g clip-path="url(#cefbd42c82)"><path fill="#000000" d="M 6.566406 -3.675781 L 27.574219 6.097656 L 17.804688 27.105469 L -3.207031 17.332031 Z M 6.566406 -3.675781 " fill-opacity="1" fill-rule="nonzero"/></g></g></g></g></g></g></g></g><g clip-path="url(#3de53684eb)"><g clip-path="url(#f5089801b0)"><g clip-path="url(#a1bd255f12)"><path fill="#fffbf0" d="M 173.160156 134.800781 C 155.179688 166.640625 115.304688 179.789062 81.605469 164.113281 C 47.902344 148.4375 32.3125 109.488281 45.082031 75.226562 Z M 172.726562 134.601562 C 154.867188 166.179688 115.292969 179.253906 81.804688 163.679688 C 48.320312 148.101562 32.871094 109.429688 45.472656 75.40625 Z M 172.726562 134.601562 " fill-opacity="1" fill-rule="nonzero"/><path fill="#fffbf0" d="M 172.726562 134.601562 L 172.941406 134.703125 L 173.160156 134.800781 C 155.179688 166.640625 115.304688 179.789062 81.605469 164.113281 C 47.902344 148.4375 32.3125 109.488281 45.082031 75.226562 L 45.300781 75.324219 L 45.515625 75.425781 L 172.726562 134.601562 L 172.941406 134.703125 L 173.160156 134.800781 C 155.179688 166.640625 115.304688 179.789062 81.605469 164.113281 C 47.902344 148.4375 32.3125 109.488281 45.082031 75.226562 L 45.300781 75.324219 L 45.515625 75.425781 Z M 172.726562 134.601562 " fill-opacity="1" fill-rule="nonzero"/></g></g></g><g clip-path="url(#6f2eb463f7)"><g clip-path="url(#ffd9df18e3)"><g clip-path="url(#3ee11fd502)"><path stroke-linecap="butt" transform="matrix(-0.434311, -0.202026, 0.202026, -0.434311, 163.524047, 279.877819)" fill="none" stroke-linejoin="miter" d="M 110.498307 283.098369 L 110.002199 283.095293 L 109.502136 283.10305 C 115.502163 207.000907 179.404705 147.001526 256.997174 147.001771 C 334.597037 146.998576 398.402625 206.999 404.39895 283.097238 L 403.898888 283.104995 L 403.40278 283.101919 L 110.498307 283.098369 L 110.002199 283.095293 L 109.502136 283.10305 C 115.502163 207.000907 179.404705 147.001526 256.997174 147.001771 C 334.597037 146.998576 398.402625 206.999 404.39895 283.097238 L 403.898888 283.104995 L 403.40278 283.101919 Z M 110.498307 283.098369 " stroke="#fef8fb" stroke-width="1" stroke-opacity="1" stroke-miterlimit="10"/></g></g></g></g></g><g transform="matrix(1, 0, 0, 1, 138, 123)"><g clip-path="url(#352147ef76)"><g clip-path="url(#a011756930)"><g clip-path="url(#eab553ec0f)"><g clip-path="url(#181a35e3bf)"><g transform="matrix(1, 0, 0, 1, 165, 82)"><g clip-path="url(#dd187a8aef)"><g clip-path="url(#a0df4f5d14)"><g clip-path="url(#4438429377)"><g clip-path="url(#f4e35bc37b)"><path fill="#6dc448" d="M -1.085938 3.53125 L 35.183594 -2.453125 L 38.664062 18.644531 L 2.398438 24.628906 Z M -1.085938 3.53125 " fill-opacity="1" fill-rule="nonzero"/></g></g></g></g></g></g></g></g><g clip-path="url(#976e3c867b)"><g clip-path="url(#1ec85e1516)"><g clip-path="url(#ce2570376b)"><g transform="matrix(1, 0, 0, 1, 42, 137)"><g clip-path="url(#037d2ac648)"><g clip-path="url(#861ed6f5e8)"><g clip-path="url(#018aed7c19)"><g clip-path="url(#f9b2d7e255)"><path fill="#6dc448" d="M -4.644531 18.710938 L 23.089844 -5.410156 L 37.125 10.722656 L 9.394531 34.847656 Z M -4.644531 18.710938 " fill-opacity="1" fill-rule="nonzero"/></g></g></g></g></g></g></g></g><g clip-path="url(#8102408c34)"><g clip-path="url(#0c7f188407)"><g clip-path="url(#541d372cf3)"><g transform="matrix(1, 0, 0, 1, 41, 32)"><g clip-path="url(#111f305bc9)"><g clip-path="url(#c6fb1ca543)"><g clip-path="url(#b712ba3e87)"><g clip-path="url(#6b435abdae)"><path fill="#7ed957" d="M -21.804688 35.953125 L 103.792969 -22.578125 L 162.320312 103.019531 L 36.726562 161.550781 Z M -21.804688 35.953125 " fill-opacity="1" fill-rule="nonzero"/></g></g></g></g></g></g></g></g><g clip-path="url(#6dcf5d434c)"><g clip-path="url(#0d80ef77ec)"><g clip-path="url(#1495fef9b1)"><g transform="matrix(1, 0, 0, 1, 65, 129)"><g clip-path="url(#5ced09a370)"><g clip-path="url(#b25b8557a6)"><g clip-path="url(#cbdbc69672)"><g clip-path="url(#70b46eca44)"><path fill="#000000" d="M -3.570312 6.09375 L 17.433594 -3.695312 L 27.21875 17.308594 L 6.21875 27.09375 Z M -3.570312 6.09375 " fill-opacity="1" fill-rule="nonzero"/></g></g></g></g></g></g></g></g><g clip-path="url(#f5091d1376)"><g clip-path="url(#7ef065f4cc)"><g clip-path="url(#6d58916b6d)"><g transform="matrix(1, 0, 0, 1, 151, 88)"><g clip-path="url(#70e701597e)"><g clip-path="url(#1c13721a0d)"><g clip-path="url(#baf871d979)"><g clip-path="url(#5feec77538)"><path fill="#000000" d="M -2.960938 6.734375 L 18.039062 -3.054688 L 27.828125 17.949219 L 6.824219 27.734375 Z M -2.960938 6.734375 " fill-opacity="1" fill-rule="nonzero"/></g></g></g></g></g></g></g></g><g clip-path="url(#083fe16139)"><g clip-path="url(#3e2c02f34d)"><g clip-path="url(#f877059213)"><path fill="#fffbf0" d="M 176.914062 75.125 C 189.707031 109.378906 174.105469 148.359375 140.414062 164.058594 C 106.722656 179.761719 66.882812 166.617188 48.878906 134.792969 Z M 176.480469 75.328125 C 189.152344 109.320312 173.683594 148.027344 140.210938 163.625 C 106.734375 179.226562 67.195312 166.15625 49.269531 134.609375 Z M 176.480469 75.328125 " fill-opacity="1" fill-rule="nonzero"/><path fill="#fffbf0" d="M 176.480469 75.328125 L 176.699219 75.226562 L 176.914062 75.125 C 189.707031 109.378906 174.105469 148.359375 140.414062 164.058594 C 106.722656 179.761719 66.882812 166.617188 48.878906 134.792969 L 49.097656 134.691406 L 49.3125 134.589844 L 176.480469 75.328125 L 176.699219 75.226562 L 176.914062 75.125 C 189.707031 109.378906 174.105469 148.359375 140.414062 164.058594 C 106.722656 179.761719 66.882812 166.617188 48.878906 134.792969 L 49.097656 134.691406 L 49.3125 134.589844 Z M 176.480469 75.328125 " fill-opacity="1" fill-rule="nonzero"/></g></g></g><g clip-path="url(#b9eb5afa83)"><g clip-path="url(#973c999dab)"><g clip-path="url(#19c495b9b1)"><path stroke-linecap="butt" transform="matrix(-0.43417, 0.202329, -0.202329, -0.43417, 281.736828, 175.88444)" fill="none" stroke-linejoin="miter" d="M 110.502321 283.101381 L 109.99882 283.100666 L 109.50271 283.103396 C 115.500907 207.003481 179.398088 146.998808 256.99642 147.001481 C 334.598196 146.996762 398.395761 207.002333 404.400798 283.099744 L 403.897296 283.099029 L 403.401186 283.101759 L 110.502321 283.101381 L 109.99882 283.100666 L 109.50271 283.103396 C 115.500907 207.003481 179.398088 146.998808 256.99642 147.001481 C 334.598196 146.996762 398.395761 207.002333 404.400798 283.099744 L 403.897296 283.099029 L 403.401186 283.101759 Z M 110.502321 283.101381 " stroke="#fef8fb" stroke-width="1" stroke-opacity="1" stroke-miterlimit="10"/></g></g></g></g></g></svg>