<svg xmlns="http://www.w3.org/2000/svg" xmlns:xlink="http://www.w3.org/1999/xlink" width="480" zoomAndPan="magnify" viewBox="0 0 360 359.999987" height="480" preserveAspectRatio="xMidYMid meet" version="1.0"><defs><clipPath id="6954e6f790"><path d="M 115 63.257812 L 249 63.257812 L 249 198 L 115 198 Z M 115 63.257812 " clip-rule="nonzero"/></clipPath></defs><path fill="#cb81df" d="M 302.792969 103.097656 C 302.792969 104.1875 302.769531 105.28125 302.714844 106.371094 C 302.660156 107.457031 302.582031 108.546875 302.472656 109.632812 C 302.367188 110.71875 302.234375 111.800781 302.074219 112.878906 C 301.914062 113.957031 301.726562 115.03125 301.511719 116.101562 C 301.300781 117.171875 301.0625 118.238281 300.796875 119.292969 C 300.53125 120.351562 300.242188 121.402344 299.925781 122.449219 C 299.609375 123.492188 299.265625 124.527344 298.898438 125.554688 C 298.53125 126.582031 298.136719 127.597656 297.71875 128.605469 C 297.304688 129.613281 296.859375 130.613281 296.394531 131.597656 C 295.929688 132.582031 295.4375 133.558594 294.921875 134.519531 C 294.410156 135.480469 293.871094 136.429688 293.3125 137.367188 C 292.75 138.300781 292.167969 139.222656 291.5625 140.128906 C 290.953125 141.039062 290.328125 141.929688 289.675781 142.804688 C 289.027344 143.683594 288.355469 144.542969 287.664062 145.386719 C 286.972656 146.226562 286.257812 147.054688 285.527344 147.863281 C 284.792969 148.671875 284.042969 149.460938 283.269531 150.230469 C 282.5 151.003906 281.710938 151.753906 280.902344 152.488281 C 280.09375 153.21875 279.269531 153.933594 278.425781 154.625 C 277.582031 155.316406 276.722656 155.988281 275.84375 156.636719 C 274.96875 157.289062 274.078125 157.914062 273.171875 158.519531 C 272.261719 159.128906 271.34375 159.710938 270.40625 160.273438 C 269.46875 160.832031 268.523438 161.371094 267.558594 161.882812 C 266.597656 162.398438 265.625 162.890625 264.636719 163.355469 C 263.652344 163.820312 262.652344 164.261719 261.644531 164.679688 C 260.636719 165.097656 259.621094 165.492188 258.59375 165.859375 C 257.566406 166.226562 256.53125 166.566406 255.488281 166.882812 C 254.445312 167.203125 253.390625 167.492188 252.335938 167.757812 C 251.277344 168.023438 250.210938 168.261719 249.140625 168.472656 C 248.070312 168.6875 246.996094 168.875 245.917969 169.035156 C 244.839844 169.195312 243.757812 169.328125 242.671875 169.433594 C 241.585938 169.539062 240.5 169.621094 239.410156 169.675781 C 238.320312 169.726562 237.230469 169.753906 236.136719 169.753906 C 235.046875 169.753906 233.957031 169.726562 232.867188 169.675781 C 231.777344 169.621094 230.691406 169.539062 229.605469 169.433594 C 228.519531 169.328125 227.4375 169.195312 226.359375 169.035156 C 225.277344 168.875 224.203125 168.6875 223.132812 168.472656 C 222.0625 168.261719 221 168.023438 219.941406 167.757812 C 218.882812 167.492188 217.832031 167.203125 216.789062 166.882812 C 215.746094 166.566406 214.710938 166.226562 213.683594 165.859375 C 212.65625 165.492188 211.636719 165.097656 210.628906 164.679688 C 209.621094 164.261719 208.625 163.820312 207.640625 163.355469 C 206.652344 162.890625 205.679688 162.398438 204.714844 161.882812 C 203.753906 161.371094 202.804688 160.832031 201.871094 160.273438 C 200.933594 159.710938 200.011719 159.128906 199.105469 158.519531 C 198.199219 157.914062 197.308594 157.289062 196.429688 156.636719 C 195.554688 155.988281 194.695312 155.316406 193.851562 154.625 C 193.007812 153.933594 192.183594 153.21875 191.375 152.488281 C 190.566406 151.753906 189.777344 151.003906 189.003906 150.230469 C 188.234375 149.460938 187.480469 148.671875 186.75 147.863281 C 186.015625 147.054688 185.304688 146.226562 184.613281 145.386719 C 183.917969 144.542969 183.25 143.683594 182.597656 142.804688 C 181.949219 141.929688 181.320312 141.039062 180.714844 140.128906 C 180.109375 139.222656 179.527344 138.300781 178.964844 137.367188 C 178.402344 136.429688 177.867188 135.480469 177.351562 134.519531 C 176.839844 133.558594 176.347656 132.582031 175.882812 131.597656 C 175.414062 130.613281 174.972656 129.613281 174.554688 128.605469 C 174.136719 127.597656 173.746094 126.582031 173.378906 125.554688 C 173.011719 124.527344 172.667969 123.492188 172.351562 122.449219 C 172.035156 121.402344 171.746094 120.351562 171.480469 119.292969 C 171.214844 118.238281 170.976562 117.171875 170.761719 116.101562 C 170.550781 115.03125 170.363281 113.957031 170.203125 112.878906 C 170.042969 111.800781 169.910156 110.71875 169.800781 109.632812 C 169.695312 108.546875 169.617188 107.457031 169.5625 106.371094 C 169.507812 105.28125 169.480469 104.1875 169.480469 103.097656 C 169.480469 102.007812 169.507812 100.917969 169.5625 99.828125 C 169.617188 98.738281 169.695312 97.652344 169.800781 96.566406 C 169.910156 95.480469 170.042969 94.398438 170.203125 93.316406 C 170.363281 92.238281 170.550781 91.164062 170.761719 90.09375 C 170.976562 89.023438 171.214844 87.960938 171.480469 86.902344 C 171.746094 85.84375 172.035156 84.792969 172.351562 83.75 C 172.667969 82.707031 173.011719 81.667969 173.378906 80.644531 C 173.746094 79.617188 174.136719 78.597656 174.554688 77.589844 C 174.972656 76.582031 175.414062 75.585938 175.882812 74.597656 C 176.347656 73.613281 176.839844 72.640625 177.351562 71.675781 C 177.867188 70.714844 178.402344 69.765625 178.964844 68.832031 C 179.527344 67.894531 180.109375 66.972656 180.714844 66.066406 C 181.320312 65.160156 181.949219 64.265625 182.597656 63.390625 C 183.25 62.515625 183.917969 61.65625 184.613281 60.8125 C 185.304688 59.96875 186.015625 59.144531 186.75 58.335938 C 187.480469 57.527344 188.234375 56.738281 189.003906 55.964844 C 189.777344 55.195312 190.566406 54.441406 191.375 53.710938 C 192.183594 52.976562 193.007812 52.265625 193.851562 51.574219 C 194.695312 50.878906 195.554688 50.210938 196.429688 49.558594 C 197.308594 48.910156 198.199219 48.28125 199.105469 47.675781 C 200.011719 47.070312 200.933594 46.484375 201.871094 45.925781 C 202.804688 45.363281 203.753906 44.828125 204.714844 44.3125 C 205.679688 43.796875 206.652344 43.308594 207.640625 42.84375 C 208.625 42.375 209.621094 41.933594 210.628906 41.515625 C 211.636719 41.097656 212.65625 40.707031 213.683594 40.339844 C 214.710938 39.972656 215.746094 39.628906 216.789062 39.3125 C 217.832031 38.996094 218.882812 38.703125 219.941406 38.441406 C 221 38.175781 222.0625 37.9375 223.132812 37.722656 C 224.203125 37.511719 225.277344 37.324219 226.359375 37.164062 C 227.4375 37.003906 228.519531 36.871094 229.605469 36.761719 C 230.691406 36.65625 231.777344 36.574219 232.867188 36.523438 C 233.957031 36.46875 235.046875 36.441406 236.136719 36.441406 C 237.230469 36.441406 238.320312 36.46875 239.410156 36.523438 C 240.5 36.574219 241.585938 36.65625 242.671875 36.761719 C 243.757812 36.871094 244.839844 37.003906 245.917969 37.164062 C 246.996094 37.324219 248.070312 37.511719 249.140625 37.722656 C 250.210938 37.9375 251.277344 38.175781 252.335938 38.441406 C 253.390625 38.703125 254.445312 38.996094 255.488281 39.3125 C 256.53125 39.628906 257.566406 39.972656 258.59375 40.339844 C 259.621094 40.707031 260.636719 41.097656 261.644531 41.515625 C 262.652344 41.933594 263.652344 42.375 264.636719 42.84375 C 265.625 43.308594 266.597656 43.796875 267.558594 44.3125 C 268.523438 44.828125 269.46875 45.363281 270.40625 45.925781 C 271.34375 46.484375 272.261719 47.070312 273.171875 47.675781 C 274.078125 48.28125 274.96875 48.910156 275.84375 49.558594 C 276.722656 50.210938 277.582031 50.878906 278.425781 51.574219 C 279.269531 52.265625 280.09375 52.976562 280.902344 53.710938 C 281.710938 54.441406 282.5 55.195312 283.269531 55.964844 C 284.042969 56.738281 284.792969 57.527344 285.527344 58.335938 C 286.257812 59.144531 286.972656 59.96875 287.664062 60.8125 C 288.355469 61.65625 289.027344 62.515625 289.675781 63.390625 C 290.328125 64.265625 290.953125 65.160156 291.5625 66.066406 C 292.167969 66.972656 292.75 67.894531 293.3125 68.832031 C 293.871094 69.765625 294.410156 70.714844 294.921875 71.675781 C 295.4375 72.640625 295.929688 73.613281 296.394531 74.597656 C 296.859375 75.585938 297.304688 76.582031 297.71875 77.589844 C 298.136719 78.597656 298.53125 79.617188 298.898438 80.644531 C 299.265625 81.667969 299.609375 82.707031 299.925781 83.75 C 300.242188 84.792969 300.53125 85.84375 300.796875 86.902344 C 301.0625 87.960938 301.300781 89.023438 301.511719 90.09375 C 301.726562 91.164062 301.914062 92.238281 302.074219 93.316406 C 302.234375 94.398438 302.367188 95.480469 302.472656 96.566406 C 302.582031 97.652344 302.660156 98.738281 302.714844 99.828125 C 302.769531 100.917969 302.792969 102.007812 302.792969 103.097656 Z M 302.792969 103.097656 " fill-opacity="1" fill-rule="nonzero"/><path fill="#cb81df" d="M 146.554688 290.167969 L 325.71875 290.167969 C 326.371094 290.160156 327.019531 290.132812 327.667969 290.085938 C 328.316406 290.039062 328.960938 289.976562 329.605469 289.890625 C 330.25 289.804688 330.890625 289.699219 331.53125 289.578125 C 332.167969 289.453125 332.800781 289.3125 333.429688 289.152344 C 334.0625 288.988281 334.683594 288.808594 335.304688 288.609375 C 335.921875 288.410156 336.535156 288.195312 337.140625 287.960938 C 337.746094 287.722656 338.34375 287.46875 338.9375 287.199219 C 339.527344 286.929688 340.109375 286.640625 340.683594 286.332031 C 341.253906 286.027344 341.820312 285.703125 342.371094 285.363281 C 342.925781 285.023438 343.46875 284.667969 344.003906 284.296875 C 344.535156 283.921875 345.054688 283.535156 345.566406 283.132812 C 346.074219 282.726562 346.570312 282.308594 347.054688 281.875 C 347.539062 281.441406 348.011719 280.996094 348.46875 280.53125 C 348.925781 280.070312 349.371094 279.597656 349.796875 279.109375 C 350.226562 278.621094 350.640625 278.121094 351.039062 277.605469 C 351.4375 277.09375 351.824219 276.570312 352.191406 276.03125 C 352.558594 275.496094 352.910156 274.949219 353.242188 274.394531 C 353.578125 273.835938 353.894531 273.269531 354.195312 272.691406 C 354.496094 272.117188 354.78125 271.53125 355.046875 270.9375 C 355.3125 270.347656 355.5625 269.746094 355.789062 269.136719 C 356.019531 268.53125 356.230469 267.914062 356.425781 267.292969 C 356.617188 266.675781 356.792969 266.046875 356.949219 265.417969 C 357.101562 264.785156 357.238281 264.152344 357.355469 263.511719 C 357.472656 262.871094 357.574219 262.230469 357.652344 261.585938 C 357.730469 260.941406 357.789062 260.292969 357.832031 259.644531 C 357.871094 258.996094 357.890625 258.347656 357.894531 257.695312 C 357.894531 257.046875 357.875 256.398438 357.839844 255.75 C 357.800781 255.097656 357.742188 254.453125 357.667969 253.808594 C 357.589844 253.160156 357.496094 252.519531 357.378906 251.878906 C 357.265625 251.238281 357.132812 250.605469 356.976562 249.972656 C 356.824219 249.339844 356.652344 248.714844 356.460938 248.09375 C 356.273438 247.472656 356.0625 246.855469 355.835938 246.246094 C 354.914062 243.910156 353.902344 241.613281 352.808594 239.355469 C 351.710938 237.09375 350.535156 234.878906 349.273438 232.707031 C 348.011719 230.535156 346.671875 228.414062 345.25 226.34375 C 343.832031 224.273438 342.335938 222.257812 340.761719 220.300781 C 339.191406 218.339844 337.550781 216.445312 335.835938 214.609375 C 334.125 212.773438 332.34375 211.003906 330.496094 209.300781 C 328.652344 207.597656 326.746094 205.964844 324.777344 204.40625 C 322.808594 202.847656 320.785156 201.363281 318.707031 199.953125 C 316.628906 198.546875 314.5 197.21875 312.320312 195.96875 C 310.140625 194.71875 307.917969 193.554688 305.652344 192.472656 C 303.386719 191.390625 301.082031 190.394531 298.742188 189.484375 C 296.402344 188.574219 294.03125 187.753906 291.628906 187.023438 C 289.226562 186.289062 286.800781 185.648438 284.351562 185.097656 C 281.898438 184.550781 279.433594 184.089844 276.949219 183.726562 C 274.464844 183.359375 271.96875 183.089844 269.464844 182.910156 C 266.960938 182.730469 264.453125 182.648438 261.941406 182.65625 L 210.335938 182.65625 C 207.828125 182.65625 205.320312 182.75 202.816406 182.933594 C 200.316406 183.121094 197.824219 183.398438 195.34375 183.769531 C 192.859375 184.144531 190.394531 184.605469 187.949219 185.160156 C 185.5 185.71875 183.078125 186.363281 180.679688 187.097656 C 178.28125 187.832031 175.910156 188.65625 173.574219 189.570312 C 171.238281 190.480469 168.9375 191.480469 166.671875 192.5625 C 164.410156 193.644531 162.1875 194.8125 160.011719 196.0625 C 157.835938 197.308594 155.707031 198.636719 153.632812 200.042969 C 151.554688 201.453125 149.53125 202.933594 147.5625 204.492188 C 145.597656 206.050781 143.691406 207.679688 141.84375 209.378906 C 139.996094 211.078125 138.21875 212.84375 136.503906 214.675781 C 134.789062 216.507812 133.144531 218.402344 131.570312 220.355469 C 129.996094 222.3125 128.5 224.320312 127.074219 226.386719 C 125.652344 228.453125 124.308594 230.570312 123.039062 232.738281 C 121.773438 234.902344 120.589844 237.113281 119.488281 239.367188 C 118.386719 241.625 117.371094 243.917969 116.441406 246.246094 C 116.214844 246.855469 116.003906 247.46875 115.8125 248.089844 C 115.621094 248.714844 115.449219 249.339844 115.296875 249.972656 C 115.144531 250.601562 115.011719 251.238281 114.894531 251.878906 C 114.78125 252.519531 114.683594 253.160156 114.609375 253.804688 C 114.53125 254.453125 114.472656 255.097656 114.4375 255.746094 C 114.398438 256.398438 114.378906 257.046875 114.382812 257.695312 C 114.382812 258.347656 114.402344 258.996094 114.445312 259.644531 C 114.484375 260.292969 114.542969 260.941406 114.621094 261.585938 C 114.699219 262.230469 114.800781 262.871094 114.917969 263.511719 C 115.035156 264.152344 115.171875 264.785156 115.324219 265.417969 C 115.480469 266.046875 115.65625 266.675781 115.847656 267.296875 C 116.042969 267.917969 116.253906 268.53125 116.480469 269.136719 C 116.710938 269.746094 116.960938 270.347656 117.226562 270.941406 C 117.492188 271.535156 117.773438 272.117188 118.074219 272.695312 C 118.375 273.269531 118.695312 273.835938 119.027344 274.394531 C 119.363281 274.953125 119.714844 275.496094 120.082031 276.035156 C 120.449219 276.570312 120.832031 277.09375 121.234375 277.609375 C 121.632812 278.121094 122.046875 278.621094 122.476562 279.109375 C 122.902344 279.597656 123.347656 280.074219 123.804688 280.535156 C 124.261719 280.996094 124.734375 281.445312 125.21875 281.878906 C 125.703125 282.3125 126.199219 282.730469 126.707031 283.132812 C 127.21875 283.539062 127.738281 283.925781 128.269531 284.296875 C 128.804688 284.671875 129.347656 285.027344 129.902344 285.367188 C 130.457031 285.707031 131.019531 286.027344 131.59375 286.335938 C 132.164062 286.640625 132.746094 286.929688 133.339844 287.203125 C 133.929688 287.472656 134.527344 287.726562 135.132812 287.960938 C 135.738281 288.195312 136.351562 288.414062 136.972656 288.613281 C 137.589844 288.8125 138.214844 288.992188 138.84375 289.152344 C 139.472656 289.3125 140.105469 289.457031 140.746094 289.578125 C 141.382812 289.703125 142.023438 289.804688 142.667969 289.890625 C 143.3125 289.976562 143.960938 290.039062 144.609375 290.085938 C 145.257812 290.132812 145.90625 290.160156 146.554688 290.167969 Z M 146.554688 290.167969 " fill-opacity="1" fill-rule="nonzero"/><path fill="#e2a9f1" d="M 189.648438 103.097656 C 189.648438 104.1875 189.621094 105.28125 189.566406 106.371094 C 189.515625 107.457031 189.433594 108.546875 189.328125 109.632812 C 189.21875 110.71875 189.085938 111.800781 188.925781 112.878906 C 188.765625 113.957031 188.582031 115.03125 188.367188 116.101562 C 188.15625 117.171875 187.914062 118.238281 187.652344 119.292969 C 187.386719 120.351562 187.09375 121.402344 186.777344 122.449219 C 186.460938 123.492188 186.121094 124.527344 185.75 125.554688 C 185.382812 126.582031 184.992188 127.597656 184.574219 128.605469 C 184.15625 129.613281 183.714844 130.613281 183.25 131.597656 C 182.78125 132.582031 182.292969 133.558594 181.777344 134.519531 C 181.261719 135.480469 180.726562 136.429688 180.164062 137.367188 C 179.605469 138.300781 179.019531 139.222656 178.414062 140.128906 C 177.808594 141.039062 177.179688 141.929688 176.53125 142.804688 C 175.882812 143.683594 175.210938 144.542969 174.519531 145.386719 C 173.824219 146.226562 173.113281 147.054688 172.382812 147.863281 C 171.648438 148.671875 170.894531 149.460938 170.125 150.230469 C 169.355469 151.003906 168.5625 151.753906 167.753906 152.488281 C 166.945312 153.21875 166.121094 153.933594 165.277344 154.625 C 164.433594 155.316406 163.574219 155.988281 162.699219 156.636719 C 161.824219 157.289062 160.929688 157.914062 160.023438 158.519531 C 159.117188 159.128906 158.195312 159.710938 157.261719 160.273438 C 156.324219 160.832031 155.375 161.371094 154.414062 161.882812 C 153.453125 162.398438 152.476562 162.890625 151.492188 163.355469 C 150.503906 163.820312 149.507812 164.261719 148.5 164.679688 C 147.492188 165.097656 146.476562 165.492188 145.449219 165.859375 C 144.421875 166.226562 143.386719 166.566406 142.339844 166.882812 C 141.296875 167.203125 140.246094 167.492188 139.1875 167.757812 C 138.128906 168.023438 137.066406 168.261719 135.996094 168.472656 C 134.925781 168.6875 133.851562 168.875 132.773438 169.035156 C 131.691406 169.195312 130.609375 169.328125 129.523438 169.433594 C 128.441406 169.539062 127.351562 169.621094 126.261719 169.675781 C 125.171875 169.726562 124.082031 169.753906 122.992188 169.753906 C 121.902344 169.753906 120.8125 169.726562 119.722656 169.675781 C 118.632812 169.621094 117.542969 169.539062 116.457031 169.433594 C 115.371094 169.328125 114.289062 169.195312 113.210938 169.035156 C 112.132812 168.875 111.058594 168.6875 109.988281 168.472656 C 108.917969 168.261719 107.855469 168.023438 106.796875 167.757812 C 105.738281 167.492188 104.6875 167.203125 103.640625 166.882812 C 102.597656 166.566406 101.5625 166.226562 100.535156 165.859375 C 99.507812 165.492188 98.492188 165.097656 97.484375 164.679688 C 96.476562 164.261719 95.480469 163.820312 94.492188 163.355469 C 93.507812 162.890625 92.53125 162.398438 91.570312 161.882812 C 90.609375 161.371094 89.660156 160.832031 88.722656 160.273438 C 87.789062 159.710938 86.867188 159.128906 85.960938 158.519531 C 85.050781 157.914062 84.160156 157.289062 83.285156 156.636719 C 82.410156 155.988281 81.546875 155.316406 80.707031 154.625 C 79.863281 153.933594 79.035156 153.21875 78.226562 152.488281 C 77.417969 151.753906 76.628906 151.003906 75.859375 150.230469 C 75.085938 149.460938 74.335938 148.671875 73.601562 147.863281 C 72.871094 147.054688 72.15625 146.226562 71.464844 145.386719 C 70.773438 144.542969 70.101562 143.683594 69.453125 142.804688 C 68.804688 141.929688 68.175781 141.039062 67.570312 140.128906 C 66.964844 139.222656 66.378906 138.300781 65.820312 137.367188 C 65.257812 136.429688 64.71875 135.480469 64.207031 134.519531 C 63.691406 133.558594 63.203125 132.582031 62.734375 131.597656 C 62.269531 130.613281 61.828125 129.613281 61.410156 128.605469 C 60.992188 127.597656 60.597656 126.582031 60.230469 125.554688 C 59.863281 124.527344 59.523438 123.492188 59.207031 122.449219 C 58.890625 121.402344 58.597656 120.351562 58.332031 119.292969 C 58.066406 118.238281 57.828125 117.171875 57.617188 116.101562 C 57.402344 115.03125 57.21875 113.957031 57.058594 112.878906 C 56.898438 111.800781 56.761719 110.71875 56.65625 109.632812 C 56.550781 108.546875 56.46875 107.457031 56.414062 106.371094 C 56.363281 105.28125 56.335938 104.1875 56.335938 103.097656 C 56.335938 102.007812 56.363281 100.917969 56.414062 99.828125 C 56.46875 98.738281 56.550781 97.652344 56.65625 96.566406 C 56.761719 95.480469 56.898438 94.398438 57.058594 93.316406 C 57.21875 92.238281 57.402344 91.164062 57.617188 90.09375 C 57.828125 89.023438 58.066406 87.960938 58.332031 86.902344 C 58.597656 85.84375 58.890625 84.792969 59.207031 83.75 C 59.523438 82.707031 59.863281 81.667969 60.230469 80.644531 C 60.597656 79.617188 60.992188 78.597656 61.410156 77.589844 C 61.828125 76.582031 62.269531 75.585938 62.734375 74.597656 C 63.203125 73.613281 63.691406 72.640625 64.207031 71.675781 C 64.71875 70.714844 65.257812 69.765625 65.820312 68.832031 C 66.378906 67.894531 66.964844 66.972656 67.570312 66.066406 C 68.175781 65.160156 68.804688 64.265625 69.453125 63.390625 C 70.101562 62.515625 70.773438 61.65625 71.464844 60.8125 C 72.15625 59.96875 72.871094 59.144531 73.601562 58.335938 C 74.335938 57.527344 75.085938 56.738281 75.859375 55.964844 C 76.628906 55.195312 77.417969 54.441406 78.226562 53.710938 C 79.035156 52.976562 79.863281 52.265625 80.707031 51.574219 C 81.546875 50.878906 82.410156 50.210938 83.285156 49.558594 C 84.160156 48.910156 85.050781 48.28125 85.960938 47.675781 C 86.867188 47.070312 87.789062 46.484375 88.722656 45.925781 C 89.660156 45.363281 90.609375 44.828125 91.570312 44.3125 C 92.53125 43.796875 93.507812 43.308594 94.492188 42.84375 C 95.480469 42.375 96.476562 41.933594 97.484375 41.515625 C 98.492188 41.097656 99.507812 40.707031 100.535156 40.339844 C 101.5625 39.972656 102.597656 39.628906 103.640625 39.3125 C 104.6875 38.996094 105.738281 38.703125 106.796875 38.441406 C 107.855469 38.175781 108.917969 37.9375 109.988281 37.722656 C 111.058594 37.511719 112.132812 37.324219 113.210938 37.164062 C 114.289062 37.003906 115.371094 36.871094 116.457031 36.761719 C 117.542969 36.65625 118.632812 36.574219 119.722656 36.523438 C 120.8125 36.46875 121.902344 36.441406 122.992188 36.441406 C 124.082031 36.441406 125.171875 36.46875 126.261719 36.523438 C 127.351562 36.574219 128.441406 36.65625 129.523438 36.761719 C 130.609375 36.871094 131.691406 37.003906 132.773438 37.164062 C 133.851562 37.324219 134.925781 37.511719 135.996094 37.722656 C 137.066406 37.9375 138.128906 38.175781 139.1875 38.441406 C 140.246094 38.703125 141.296875 38.996094 142.339844 39.3125 C 143.386719 39.628906 144.421875 39.972656 145.449219 40.339844 C 146.476562 40.707031 147.492188 41.097656 148.5 41.515625 C 149.507812 41.933594 150.503906 42.375 151.492188 42.84375 C 152.476562 43.308594 153.453125 43.796875 154.414062 44.3125 C 155.375 44.828125 156.324219 45.363281 157.261719 45.925781 C 158.195312 46.484375 159.117188 47.070312 160.023438 47.675781 C 160.929688 48.28125 161.824219 48.910156 162.699219 49.558594 C 163.574219 50.210938 164.433594 50.878906 165.277344 51.574219 C 166.121094 52.265625 166.945312 52.976562 167.753906 53.710938 C 168.5625 54.441406 169.355469 55.195312 170.125 55.964844 C 170.894531 56.738281 171.648438 57.527344 172.382812 58.335938 C 173.113281 59.144531 173.824219 59.96875 174.519531 60.8125 C 175.210938 61.65625 175.882812 62.515625 176.53125 63.390625 C 177.179688 64.265625 177.808594 65.160156 178.414062 66.066406 C 179.019531 66.972656 179.605469 67.894531 180.164062 68.832031 C 180.726562 69.765625 181.261719 70.714844 181.777344 71.675781 C 182.292969 72.640625 182.78125 73.613281 183.25 74.597656 C 183.714844 75.585938 184.15625 76.582031 184.574219 77.589844 C 184.992188 78.597656 185.382812 79.617188 185.75 80.644531 C 186.121094 81.667969 186.460938 82.707031 186.777344 83.75 C 187.09375 84.792969 187.386719 85.84375 187.652344 86.902344 C 187.914062 87.960938 188.15625 89.023438 188.367188 90.09375 C 188.582031 91.164062 188.765625 92.238281 188.925781 93.316406 C 189.085938 94.398438 189.21875 95.480469 189.328125 96.566406 C 189.433594 97.652344 189.515625 98.738281 189.566406 99.828125 C 189.621094 100.917969 189.648438 102.007812 189.648438 103.097656 Z M 189.648438 103.097656 " fill-opacity="1" fill-rule="nonzero"/><path fill="#e2a9f1" d="M 33.410156 290.167969 L 212.574219 290.167969 C 213.222656 290.160156 213.871094 290.132812 214.519531 290.085938 C 215.167969 290.039062 215.816406 289.976562 216.460938 289.890625 C 217.105469 289.804688 217.746094 289.699219 218.382812 289.578125 C 219.023438 289.453125 219.65625 289.3125 220.285156 289.152344 C 220.914062 288.988281 221.539062 288.808594 222.15625 288.609375 C 222.777344 288.410156 223.390625 288.195312 223.996094 287.960938 C 224.601562 287.722656 225.199219 287.46875 225.789062 287.199219 C 226.378906 286.929688 226.960938 286.640625 227.535156 286.332031 C 228.109375 286.027344 228.671875 285.703125 229.226562 285.363281 C 229.78125 285.023438 230.324219 284.667969 230.855469 284.296875 C 231.390625 283.921875 231.910156 283.535156 232.417969 283.132812 C 232.929688 282.726562 233.425781 282.308594 233.910156 281.875 C 234.394531 281.441406 234.863281 280.996094 235.324219 280.53125 C 235.78125 280.070312 236.222656 279.597656 236.652344 279.109375 C 237.082031 278.621094 237.496094 278.121094 237.894531 277.605469 C 238.292969 277.09375 238.675781 276.570312 239.042969 276.03125 C 239.410156 275.496094 239.761719 274.949219 240.097656 274.394531 C 240.433594 273.835938 240.75 273.269531 241.050781 272.691406 C 241.351562 272.117188 241.636719 271.53125 241.902344 270.9375 C 242.167969 270.347656 242.414062 269.746094 242.644531 269.136719 C 242.875 268.53125 243.085938 267.914062 243.277344 267.292969 C 243.472656 266.675781 243.644531 266.046875 243.800781 265.417969 C 243.957031 264.785156 244.09375 264.152344 244.210938 263.511719 C 244.328125 262.871094 244.425781 262.230469 244.503906 261.585938 C 244.585938 260.941406 244.644531 260.292969 244.683594 259.644531 C 244.722656 258.996094 244.746094 258.347656 244.746094 257.695312 C 244.746094 257.046875 244.730469 256.398438 244.691406 255.75 C 244.65625 255.097656 244.597656 254.453125 244.519531 253.808594 C 244.445312 253.160156 244.347656 252.519531 244.234375 251.878906 C 244.117188 251.238281 243.984375 250.605469 243.832031 249.972656 C 243.679688 249.339844 243.507812 248.714844 243.316406 248.09375 C 243.125 247.472656 242.917969 246.855469 242.691406 246.246094 C 241.765625 243.910156 240.757812 241.613281 239.660156 239.355469 C 238.566406 237.09375 237.386719 234.878906 236.125 232.707031 C 234.867188 230.535156 233.523438 228.414062 232.105469 226.34375 C 230.683594 224.273438 229.1875 222.257812 227.617188 220.300781 C 226.046875 218.339844 224.402344 216.445312 222.691406 214.609375 C 220.976562 212.773438 219.199219 211.003906 217.351562 209.300781 C 215.507812 207.597656 213.597656 205.964844 211.632812 204.40625 C 209.664062 202.847656 207.640625 201.363281 205.558594 199.953125 C 203.480469 198.546875 201.351562 197.21875 199.171875 195.96875 C 196.996094 194.71875 194.773438 193.554688 192.507812 192.472656 C 190.242188 191.390625 187.9375 190.394531 185.597656 189.484375 C 183.253906 188.574219 180.882812 187.753906 178.480469 187.023438 C 176.082031 186.289062 173.652344 185.648438 171.203125 185.097656 C 168.753906 184.550781 166.285156 184.089844 163.800781 183.726562 C 161.316406 183.359375 158.824219 183.089844 156.316406 182.910156 C 153.8125 182.730469 151.304688 182.648438 148.792969 182.65625 L 97.1875 182.65625 C 94.679688 182.65625 92.175781 182.75 89.671875 182.933594 C 87.167969 183.121094 84.675781 183.398438 82.195312 183.769531 C 79.714844 184.144531 77.25 184.605469 74.800781 185.160156 C 72.355469 185.71875 69.933594 186.363281 67.535156 187.097656 C 65.132812 187.832031 62.765625 188.65625 60.429688 189.570312 C 58.089844 190.480469 55.789062 191.480469 53.527344 192.5625 C 51.261719 193.644531 49.042969 194.8125 46.867188 196.0625 C 44.691406 197.308594 42.5625 198.636719 40.484375 200.042969 C 38.40625 201.453125 36.386719 202.933594 34.417969 204.492188 C 32.449219 206.050781 30.542969 207.679688 28.699219 209.378906 C 26.851562 211.078125 25.070312 212.84375 23.355469 214.675781 C 21.644531 216.507812 20 218.402344 18.425781 220.355469 C 16.851562 222.3125 15.351562 224.320312 13.929688 226.386719 C 12.503906 228.453125 11.160156 230.570312 9.894531 232.738281 C 8.628906 234.902344 7.445312 237.113281 6.34375 239.367188 C 5.242188 241.625 4.226562 243.917969 3.296875 246.246094 C 3.066406 246.855469 2.859375 247.46875 2.667969 248.089844 C 2.476562 248.714844 2.304688 249.339844 2.152344 249.972656 C 2 250.601562 1.863281 251.238281 1.75 251.878906 C 1.632812 252.519531 1.539062 253.160156 1.460938 253.804688 C 1.386719 254.453125 1.328125 255.097656 1.289062 255.746094 C 1.253906 256.398438 1.234375 257.046875 1.234375 257.695312 C 1.238281 258.347656 1.257812 258.996094 1.296875 259.644531 C 1.335938 260.292969 1.398438 260.941406 1.476562 261.585938 C 1.554688 262.230469 1.652344 262.871094 1.769531 263.511719 C 1.886719 264.152344 2.023438 264.785156 2.179688 265.417969 C 2.335938 266.046875 2.507812 266.675781 2.703125 267.296875 C 2.894531 267.917969 3.105469 268.53125 3.335938 269.136719 C 3.566406 269.746094 3.8125 270.347656 4.078125 270.941406 C 4.34375 271.535156 4.628906 272.117188 4.929688 272.695312 C 5.230469 273.269531 5.546875 273.835938 5.882812 274.394531 C 6.21875 274.953125 6.570312 275.496094 6.9375 276.035156 C 7.304688 276.570312 7.6875 277.09375 8.085938 277.609375 C 8.484375 278.121094 8.898438 278.621094 9.328125 279.109375 C 9.757812 279.597656 10.199219 280.074219 10.660156 280.535156 C 11.117188 280.996094 11.585938 281.445312 12.070312 281.878906 C 12.554688 282.3125 13.050781 282.730469 13.5625 283.132812 C 14.070312 283.539062 14.59375 283.925781 15.125 284.296875 C 15.65625 284.671875 16.199219 285.027344 16.753906 285.367188 C 17.308594 285.707031 17.871094 286.027344 18.445312 286.335938 C 19.019531 286.640625 19.601562 286.929688 20.191406 287.203125 C 20.78125 287.472656 21.382812 287.726562 21.988281 287.960938 C 22.59375 288.195312 23.207031 288.414062 23.824219 288.613281 C 24.445312 288.8125 25.066406 288.992188 25.699219 289.152344 C 26.328125 289.3125 26.960938 289.457031 27.597656 289.578125 C 28.238281 289.703125 28.878906 289.804688 29.523438 289.890625 C 30.167969 289.976562 30.8125 290.039062 31.460938 290.085938 C 32.109375 290.132812 32.761719 290.160156 33.410156 290.167969 Z M 33.410156 290.167969 " fill-opacity="1" fill-rule="nonzero"/><g clip-path="url(#6954e6f790)"><path fill="#ff3131" d="M 248.6875 130.355469 C 248.6875 131.449219 248.660156 132.539062 248.605469 133.628906 C 248.550781 134.714844 248.472656 135.804688 248.363281 136.890625 C 248.257812 137.976562 248.125 139.058594 247.964844 140.136719 C 247.804688 141.214844 247.617188 142.289062 247.40625 143.359375 C 247.191406 144.429688 246.953125 145.496094 246.6875 146.550781 C 246.421875 147.609375 246.132812 148.660156 245.816406 149.707031 C 245.5 150.75 245.15625 151.785156 244.789062 152.8125 C 244.421875 153.839844 244.027344 154.855469 243.613281 155.863281 C 243.195312 156.871094 242.753906 157.871094 242.285156 158.855469 C 241.820312 159.84375 241.328125 160.816406 240.816406 161.777344 C 240.300781 162.738281 239.761719 163.6875 239.203125 164.625 C 238.640625 165.558594 238.058594 166.480469 237.453125 167.390625 C 236.847656 168.296875 236.21875 169.1875 235.566406 170.0625 C 234.917969 170.941406 234.246094 171.800781 233.554688 172.644531 C 232.863281 173.484375 232.152344 174.3125 231.417969 175.121094 C 230.6875 175.929688 229.933594 176.71875 229.164062 177.488281 C 228.390625 178.261719 227.601562 179.011719 226.792969 179.746094 C 225.984375 180.476562 225.160156 181.191406 224.316406 181.882812 C 223.472656 182.574219 222.613281 183.246094 221.738281 183.894531 C 220.859375 184.546875 219.96875 185.171875 219.0625 185.777344 C 218.15625 186.386719 217.234375 186.96875 216.296875 187.53125 C 215.363281 188.089844 214.414062 188.628906 213.449219 189.140625 C 212.488281 189.65625 211.515625 190.148438 210.527344 190.613281 C 209.542969 191.078125 208.546875 191.523438 207.539062 191.9375 C 206.53125 192.355469 205.511719 192.75 204.484375 193.117188 C 203.457031 193.484375 202.421875 193.824219 201.378906 194.144531 C 200.335938 194.460938 199.285156 194.75 198.226562 195.015625 C 197.167969 195.28125 196.101562 195.519531 195.03125 195.730469 C 193.964844 195.945312 192.890625 196.132812 191.808594 196.292969 C 190.730469 196.453125 189.648438 196.585938 188.5625 196.691406 C 187.476562 196.800781 186.390625 196.878906 185.300781 196.933594 C 184.210938 196.984375 183.121094 197.011719 182.027344 197.011719 C 180.9375 197.011719 179.847656 196.984375 178.757812 196.933594 C 177.667969 196.878906 176.582031 196.800781 175.496094 196.691406 C 174.410156 196.585938 173.328125 196.453125 172.25 196.292969 C 171.167969 196.132812 170.09375 195.945312 169.023438 195.730469 C 167.957031 195.519531 166.890625 195.28125 165.832031 195.015625 C 164.773438 194.75 163.722656 194.460938 162.679688 194.144531 C 161.636719 193.824219 160.601562 193.484375 159.574219 193.117188 C 158.546875 192.75 157.527344 192.355469 156.519531 191.9375 C 155.511719 191.523438 154.515625 191.078125 153.53125 190.613281 C 152.542969 190.148438 151.570312 189.65625 150.609375 189.140625 C 149.644531 188.628906 148.695312 188.089844 147.761719 187.53125 C 146.824219 186.96875 145.902344 186.386719 144.996094 185.777344 C 144.089844 185.171875 143.199219 184.546875 142.320312 183.894531 C 141.445312 183.246094 140.585938 182.574219 139.742188 181.882812 C 138.898438 181.191406 138.074219 180.476562 137.265625 179.746094 C 136.457031 179.011719 135.667969 178.261719 134.894531 177.488281 C 134.125 176.71875 133.371094 175.929688 132.640625 175.121094 C 131.90625 174.3125 131.195312 173.484375 130.503906 172.644531 C 129.8125 171.800781 129.140625 170.941406 128.492188 170.0625 C 127.839844 169.1875 127.210938 168.296875 126.605469 167.390625 C 126 166.480469 125.417969 165.558594 124.855469 164.625 C 124.296875 163.6875 123.757812 162.738281 123.242188 161.777344 C 122.730469 160.816406 122.238281 159.84375 121.773438 158.855469 C 121.304688 157.871094 120.863281 156.871094 120.445312 155.863281 C 120.027344 154.855469 119.636719 153.839844 119.269531 152.8125 C 118.902344 151.785156 118.558594 150.75 118.242188 149.707031 C 117.925781 148.660156 117.636719 147.609375 117.371094 146.550781 C 117.105469 145.496094 116.867188 144.429688 116.652344 143.359375 C 116.441406 142.289062 116.253906 141.214844 116.09375 140.136719 C 115.933594 139.058594 115.800781 137.976562 115.695312 136.890625 C 115.585938 135.804688 115.507812 134.714844 115.453125 133.628906 C 115.398438 132.539062 115.371094 131.449219 115.371094 130.355469 C 115.371094 129.265625 115.398438 128.175781 115.453125 127.085938 C 115.507812 125.996094 115.585938 124.910156 115.695312 123.824219 C 115.800781 122.738281 115.933594 121.65625 116.09375 120.574219 C 116.253906 119.496094 116.441406 118.421875 116.652344 117.351562 C 116.867188 116.28125 117.105469 115.21875 117.371094 114.160156 C 117.636719 113.101562 117.925781 112.050781 118.242188 111.007812 C 118.558594 109.964844 118.902344 108.929688 119.269531 107.902344 C 119.636719 106.875 120.027344 105.855469 120.445312 104.847656 C 120.863281 103.839844 121.304688 102.84375 121.773438 101.855469 C 122.238281 100.871094 122.730469 99.898438 123.242188 98.933594 C 123.757812 97.972656 124.296875 97.023438 124.855469 96.089844 C 125.417969 95.152344 126 94.230469 126.605469 93.324219 C 127.210938 92.417969 127.839844 91.527344 128.492188 90.648438 C 129.140625 89.773438 129.8125 88.914062 130.503906 88.070312 C 131.195312 87.226562 131.90625 86.402344 132.640625 85.59375 C 133.371094 84.785156 134.125 83.996094 134.894531 83.222656 C 135.667969 82.453125 136.457031 81.699219 137.265625 80.96875 C 138.074219 80.234375 138.898438 79.523438 139.742188 78.832031 C 140.585938 78.136719 141.445312 77.46875 142.320312 76.816406 C 143.199219 76.167969 144.089844 75.539062 144.996094 74.933594 C 145.902344 74.328125 146.824219 73.746094 147.761719 73.183594 C 148.695312 72.621094 149.644531 72.085938 150.609375 71.570312 C 151.570312 71.054688 152.542969 70.566406 153.53125 70.101562 C 154.515625 69.632812 155.511719 69.191406 156.519531 68.773438 C 157.527344 68.355469 158.546875 67.964844 159.574219 67.597656 C 160.601562 67.230469 161.636719 66.886719 162.679688 66.570312 C 163.722656 66.253906 164.773438 65.960938 165.832031 65.699219 C 166.890625 65.433594 167.957031 65.195312 169.023438 64.980469 C 170.09375 64.769531 171.167969 64.582031 172.25 64.421875 C 173.328125 64.261719 174.410156 64.128906 175.496094 64.019531 C 176.582031 63.914062 177.667969 63.832031 178.757812 63.78125 C 179.847656 63.726562 180.9375 63.699219 182.027344 63.699219 C 183.121094 63.699219 184.210938 63.726562 185.300781 63.78125 C 186.390625 63.832031 187.476562 63.914062 188.5625 64.019531 C 189.648438 64.128906 190.730469 64.261719 191.808594 64.421875 C 192.890625 64.582031 193.964844 64.769531 195.03125 64.980469 C 196.101562 65.195312 197.167969 65.433594 198.226562 65.699219 C 199.285156 65.960938 200.335938 66.253906 201.378906 66.570312 C 202.421875 66.886719 203.457031 67.230469 204.484375 67.597656 C 205.511719 67.964844 206.53125 68.355469 207.539062 68.773438 C 208.546875 69.191406 209.542969 69.632812 210.527344 70.101562 C 211.515625 70.566406 212.488281 71.054688 213.449219 71.570312 C 214.414062 72.085938 215.363281 72.621094 216.296875 73.183594 C 217.234375 73.746094 218.15625 74.328125 219.0625 74.933594 C 219.96875 75.539062 220.859375 76.167969 221.738281 76.816406 C 222.613281 77.46875 223.472656 78.136719 224.316406 78.832031 C 225.160156 79.523438 225.984375 80.234375 226.792969 80.96875 C 227.601562 81.699219 228.390625 82.453125 229.164062 83.222656 C 229.933594 83.996094 230.6875 84.785156 231.417969 85.59375 C 232.152344 86.402344 232.863281 87.226562 233.554688 88.070312 C 234.246094 88.914062 234.917969 89.773438 235.566406 90.648438 C 236.21875 91.527344 236.847656 92.417969 237.453125 93.324219 C 238.058594 94.230469 238.640625 95.152344 239.203125 96.089844 C 239.761719 97.023438 240.300781 97.972656 240.816406 98.933594 C 241.328125 99.898438 241.820312 100.871094 242.285156 101.855469 C 242.753906 102.84375 243.195312 103.839844 243.613281 104.847656 C 244.027344 105.855469 244.421875 106.875 244.789062 107.902344 C 245.15625 108.929688 245.5 109.964844 245.816406 111.007812 C 246.132812 112.050781 246.421875 113.101562 246.6875 114.160156 C 246.953125 115.21875 247.191406 116.28125 247.40625 117.351562 C 247.617188 118.421875 247.804688 119.496094 247.964844 120.574219 C 248.125 121.65625 248.257812 122.738281 248.363281 123.824219 C 248.472656 124.910156 248.550781 125.996094 248.605469 127.085938 C 248.660156 128.175781 248.6875 129.265625 248.6875 130.355469 Z M 248.6875 130.355469 " fill-opacity="1" fill-rule="nonzero"/></g><path fill="#ff3131" d="M 92.449219 317.425781 L 271.609375 317.425781 C 272.261719 317.417969 272.910156 317.390625 273.558594 317.34375 C 274.207031 317.296875 274.851562 317.234375 275.496094 317.148438 C 276.140625 317.0625 276.78125 316.957031 277.421875 316.835938 C 278.058594 316.710938 278.691406 316.570312 279.324219 316.410156 C 279.953125 316.246094 280.578125 316.066406 281.195312 315.867188 C 281.8125 315.667969 282.425781 315.453125 283.03125 315.21875 C 283.636719 314.980469 284.238281 314.730469 284.828125 314.457031 C 285.417969 314.1875 286 313.898438 286.574219 313.589844 C 287.144531 313.285156 287.710938 312.960938 288.265625 312.621094 C 288.816406 312.28125 289.359375 311.925781 289.894531 311.554688 C 290.425781 311.179688 290.949219 310.792969 291.457031 310.390625 C 291.964844 309.984375 292.464844 309.566406 292.945312 309.132812 C 293.429688 308.699219 293.902344 308.253906 294.359375 307.789062 C 294.816406 307.328125 295.261719 306.855469 295.691406 306.367188 C 296.117188 305.878906 296.53125 305.378906 296.929688 304.863281 C 297.332031 304.351562 297.714844 303.828125 298.082031 303.289062 C 298.449219 302.753906 298.800781 302.207031 299.136719 301.652344 C 299.46875 301.09375 299.789062 300.527344 300.089844 299.949219 C 300.390625 299.375 300.671875 298.789062 300.9375 298.195312 C 301.203125 297.605469 301.453125 297.003906 301.683594 296.394531 C 301.910156 295.789062 302.125 295.171875 302.316406 294.554688 C 302.507812 293.933594 302.683594 293.304688 302.839844 292.675781 C 302.996094 292.042969 303.132812 291.410156 303.25 290.769531 C 303.367188 290.128906 303.464844 289.488281 303.542969 288.84375 C 303.621094 288.199219 303.679688 287.550781 303.722656 286.902344 C 303.761719 286.253906 303.78125 285.605469 303.785156 284.953125 C 303.785156 284.304688 303.765625 283.65625 303.730469 283.007812 C 303.691406 282.359375 303.632812 281.710938 303.558594 281.066406 C 303.480469 280.417969 303.386719 279.777344 303.269531 279.136719 C 303.15625 278.496094 303.023438 277.863281 302.871094 277.230469 C 302.714844 276.597656 302.542969 275.972656 302.355469 275.351562 C 302.164062 274.730469 301.953125 274.113281 301.726562 273.503906 C 300.804688 271.171875 299.792969 268.871094 298.699219 266.613281 C 297.605469 264.351562 296.425781 262.136719 295.164062 259.964844 C 293.902344 257.792969 292.5625 255.671875 291.140625 253.601562 C 289.722656 251.53125 288.226562 249.515625 286.65625 247.558594 C 285.082031 245.597656 283.441406 243.703125 281.726562 241.867188 C 280.015625 240.03125 278.234375 238.261719 276.390625 236.558594 C 274.542969 234.855469 272.636719 233.222656 270.667969 231.664062 C 268.699219 230.105469 266.675781 228.621094 264.597656 227.210938 C 262.519531 225.804688 260.390625 224.476562 258.210938 223.226562 C 256.03125 221.980469 253.808594 220.8125 251.542969 219.730469 C 249.277344 218.648438 246.972656 217.652344 244.632812 216.742188 C 242.292969 215.832031 239.921875 215.011719 237.519531 214.28125 C 235.117188 213.550781 232.691406 212.90625 230.242188 212.359375 C 227.792969 211.808594 225.324219 211.347656 222.839844 210.984375 C 220.355469 210.617188 217.859375 210.347656 215.355469 210.167969 C 212.851562 209.988281 210.34375 209.90625 207.832031 209.914062 L 156.226562 209.914062 C 153.71875 209.914062 151.210938 210.007812 148.710938 210.191406 C 146.207031 210.378906 143.714844 210.65625 141.234375 211.027344 C 138.75 211.402344 136.285156 211.863281 133.839844 212.417969 C 131.394531 212.976562 128.96875 213.621094 126.570312 214.355469 C 124.171875 215.089844 121.804688 215.914062 119.464844 216.828125 C 117.128906 217.738281 114.828125 218.738281 112.5625 219.820312 C 110.300781 220.902344 108.082031 222.070312 105.902344 223.320312 C 103.726562 224.566406 101.601562 225.894531 99.523438 227.300781 C 97.445312 228.710938 95.421875 230.191406 93.453125 231.75 C 91.488281 233.308594 89.582031 234.9375 87.734375 236.636719 C 85.890625 238.335938 84.109375 240.101562 82.394531 241.933594 C 80.679688 243.765625 79.035156 245.660156 77.460938 247.613281 C 75.890625 249.570312 74.390625 251.578125 72.96875 253.644531 C 71.542969 255.710938 70.199219 257.828125 68.933594 259.996094 C 67.667969 262.160156 66.480469 264.371094 65.378906 266.628906 C 64.277344 268.882812 63.261719 271.175781 62.332031 273.503906 C 62.105469 274.113281 61.894531 274.726562 61.703125 275.351562 C 61.515625 275.972656 61.34375 276.597656 61.1875 277.230469 C 61.035156 277.859375 60.902344 278.496094 60.785156 279.136719 C 60.671875 279.777344 60.574219 280.417969 60.5 281.0625 C 60.421875 281.710938 60.367188 282.355469 60.328125 283.003906 C 60.289062 283.65625 60.273438 284.304688 60.273438 284.953125 C 60.273438 285.605469 60.292969 286.253906 60.335938 286.902344 C 60.375 287.550781 60.433594 288.199219 60.511719 288.84375 C 60.59375 289.488281 60.691406 290.128906 60.808594 290.769531 C 60.925781 291.410156 61.0625 292.042969 61.21875 292.675781 C 61.371094 293.308594 61.546875 293.933594 61.738281 294.554688 C 61.933594 295.175781 62.144531 295.789062 62.375 296.394531 C 62.601562 297.003906 62.851562 297.605469 63.117188 298.199219 C 63.382812 298.792969 63.667969 299.375 63.96875 299.953125 C 64.269531 300.527344 64.585938 301.09375 64.921875 301.652344 C 65.253906 302.210938 65.605469 302.757812 65.972656 303.292969 C 66.339844 303.828125 66.726562 304.351562 67.125 304.867188 C 67.523438 305.378906 67.9375 305.878906 68.367188 306.367188 C 68.796875 306.855469 69.238281 307.332031 69.695312 307.792969 C 70.152344 308.253906 70.625 308.703125 71.109375 309.136719 C 71.59375 309.570312 72.089844 309.988281 72.597656 310.390625 C 73.109375 310.796875 73.628906 311.183594 74.164062 311.554688 C 74.695312 311.929688 75.238281 312.285156 75.792969 312.625 C 76.347656 312.964844 76.910156 313.289062 77.484375 313.59375 C 78.058594 313.898438 78.640625 314.1875 79.230469 314.460938 C 79.820312 314.730469 80.417969 314.984375 81.023438 315.21875 C 81.628906 315.453125 82.242188 315.671875 82.863281 315.871094 C 83.480469 316.070312 84.105469 316.25 84.734375 316.410156 C 85.363281 316.570312 86 316.714844 86.636719 316.835938 C 87.273438 316.960938 87.917969 317.0625 88.5625 317.148438 C 89.203125 317.234375 89.851562 317.296875 90.5 317.34375 C 91.148438 317.390625 91.796875 317.417969 92.449219 317.425781 Z M 92.449219 317.425781 " fill-opacity="1" fill-rule="nonzero"/></svg>