<svg xmlns="http://www.w3.org/2000/svg" xmlns:xlink="http://www.w3.org/1999/xlink" width="480" zoomAndPan="magnify" viewBox="0 0 360 359.999987" height="480" preserveAspectRatio="xMidYMid meet" version="1.0"><defs><clipPath id="1124b9a805"><path d="M 107 41.265625 L 252 41.265625 L 252 187 L 107 187 Z M 107 41.265625 " clip-rule="nonzero"/></clipPath></defs><g clip-path="url(#1124b9a805)"><path fill="#404040" d="M 251.929688 114.140625 C 251.929688 115.324219 251.898438 116.507812 251.839844 117.691406 C 251.785156 118.875 251.695312 120.058594 251.578125 121.238281 C 251.464844 122.414062 251.320312 123.589844 251.144531 124.761719 C 250.972656 125.933594 250.769531 127.101562 250.539062 128.265625 C 250.304688 129.425781 250.046875 130.582031 249.757812 131.730469 C 249.472656 132.878906 249.15625 134.023438 248.8125 135.15625 C 248.46875 136.289062 248.09375 137.414062 247.695312 138.53125 C 247.296875 139.644531 246.871094 140.75 246.417969 141.84375 C 245.964844 142.941406 245.484375 144.023438 244.976562 145.09375 C 244.472656 146.164062 243.9375 147.222656 243.378906 148.269531 C 242.820312 149.3125 242.238281 150.34375 241.628906 151.359375 C 241.019531 152.375 240.386719 153.375 239.726562 154.363281 C 239.070312 155.347656 238.386719 156.316406 237.679688 157.265625 C 236.976562 158.21875 236.246094 159.152344 235.496094 160.070312 C 234.742188 160.984375 233.96875 161.882812 233.175781 162.757812 C 232.378906 163.636719 231.5625 164.496094 230.722656 165.332031 C 229.886719 166.171875 229.027344 166.988281 228.152344 167.78125 C 227.273438 168.578125 226.375 169.351562 225.460938 170.105469 C 224.542969 170.855469 223.609375 171.585938 222.660156 172.289062 C 221.707031 172.996094 220.738281 173.679688 219.753906 174.335938 C 218.769531 174.996094 217.765625 175.628906 216.75 176.238281 C 215.734375 176.847656 214.703125 177.429688 213.660156 177.988281 C 212.613281 178.546875 211.554688 179.078125 210.484375 179.585938 C 209.414062 180.09375 208.332031 180.574219 207.238281 181.027344 C 206.140625 181.480469 205.035156 181.90625 203.921875 182.304688 C 202.804688 182.703125 201.679688 183.074219 200.546875 183.417969 C 199.414062 183.765625 198.273438 184.078125 197.121094 184.367188 C 195.972656 184.65625 194.816406 184.914062 193.65625 185.144531 C 192.492188 185.378906 191.328125 185.578125 190.15625 185.753906 C 188.984375 185.925781 187.808594 186.074219 186.628906 186.1875 C 185.449219 186.304688 184.265625 186.390625 183.085938 186.449219 C 181.902344 186.507812 180.714844 186.539062 179.53125 186.539062 C 178.347656 186.539062 177.164062 186.507812 175.980469 186.449219 C 174.796875 186.390625 173.613281 186.304688 172.4375 186.1875 C 171.257812 186.074219 170.082031 185.925781 168.910156 185.753906 C 167.738281 185.578125 166.570312 185.378906 165.40625 185.144531 C 164.246094 184.914062 163.089844 184.65625 161.941406 184.367188 C 160.792969 184.078125 159.648438 183.765625 158.515625 183.417969 C 157.382812 183.074219 156.257812 182.703125 155.140625 182.304688 C 154.027344 181.90625 152.921875 181.480469 151.828125 181.027344 C 150.730469 180.574219 149.648438 180.09375 148.578125 179.585938 C 147.507812 179.078125 146.449219 178.546875 145.402344 177.988281 C 144.359375 177.429688 143.328125 176.847656 142.3125 176.238281 C 141.296875 175.628906 140.296875 174.996094 139.308594 174.335938 C 138.324219 173.679688 137.355469 172.996094 136.40625 172.289062 C 135.453125 171.585938 134.519531 170.855469 133.605469 170.105469 C 132.6875 169.351562 131.789062 168.578125 130.914062 167.78125 C 130.035156 166.988281 129.175781 166.171875 128.339844 165.332031 C 127.5 164.496094 126.683594 163.636719 125.890625 162.757812 C 125.09375 161.882812 124.320312 160.984375 123.566406 160.070312 C 122.816406 159.152344 122.089844 158.21875 121.382812 157.265625 C 120.675781 156.316406 119.996094 155.347656 119.335938 154.363281 C 118.679688 153.375 118.042969 152.375 117.433594 151.359375 C 116.824219 150.34375 116.242188 149.3125 115.683594 148.269531 C 115.125 147.222656 114.59375 146.164062 114.085938 145.09375 C 113.578125 144.023438 113.097656 142.941406 112.644531 141.84375 C 112.191406 140.75 111.765625 139.644531 111.367188 138.53125 C 110.96875 137.414062 110.597656 136.289062 110.253906 135.15625 C 109.910156 134.023438 109.59375 132.878906 109.304688 131.730469 C 109.015625 130.582031 108.757812 129.425781 108.527344 128.265625 C 108.296875 127.101562 108.09375 125.933594 107.917969 124.761719 C 107.746094 123.589844 107.601562 122.414062 107.484375 121.238281 C 107.367188 120.058594 107.28125 118.875 107.222656 117.691406 C 107.164062 116.507812 107.136719 115.324219 107.136719 114.140625 C 107.136719 112.957031 107.164062 111.773438 107.222656 110.589844 C 107.28125 109.40625 107.367188 108.222656 107.484375 107.042969 C 107.601562 105.867188 107.746094 104.691406 107.917969 103.519531 C 108.09375 102.347656 108.296875 101.179688 108.527344 100.015625 C 108.757812 98.855469 109.015625 97.699219 109.304688 96.550781 C 109.59375 95.398438 109.910156 94.257812 110.253906 93.125 C 110.597656 91.992188 110.96875 90.867188 111.367188 89.75 C 111.765625 88.636719 112.191406 87.53125 112.644531 86.433594 C 113.097656 85.339844 113.578125 84.257812 114.085938 83.1875 C 114.59375 82.117188 115.125 81.058594 115.683594 80.011719 C 116.242188 78.96875 116.824219 77.9375 117.433594 76.921875 C 118.042969 75.90625 118.679688 74.902344 119.335938 73.917969 C 119.996094 72.933594 120.675781 71.964844 121.382812 71.015625 C 122.089844 70.0625 122.816406 69.128906 123.566406 68.210938 C 124.320312 67.296875 125.09375 66.398438 125.890625 65.523438 C 126.683594 64.644531 127.5 63.785156 128.339844 62.949219 C 129.175781 62.109375 130.035156 61.292969 130.914062 60.5 C 131.789062 59.703125 132.6875 58.929688 133.605469 58.175781 C 134.519531 57.425781 135.453125 56.695312 136.40625 55.992188 C 137.355469 55.285156 138.324219 54.601562 139.308594 53.945312 C 140.296875 53.285156 141.296875 52.652344 142.3125 52.042969 C 143.328125 51.433594 144.359375 50.851562 145.402344 50.292969 C 146.449219 49.734375 147.507812 49.203125 148.578125 48.695312 C 149.648438 48.1875 150.730469 47.707031 151.828125 47.253906 C 152.921875 46.800781 154.027344 46.375 155.140625 45.976562 C 156.257812 45.578125 157.382812 45.207031 158.515625 44.859375 C 159.648438 44.515625 160.792969 44.203125 161.941406 43.914062 C 163.089844 43.625 164.246094 43.367188 165.40625 43.136719 C 166.570312 42.902344 167.738281 42.703125 168.910156 42.527344 C 170.082031 42.351562 171.257812 42.207031 172.4375 42.09375 C 173.613281 41.976562 174.796875 41.890625 175.980469 41.832031 C 177.164062 41.773438 178.347656 41.742188 179.53125 41.742188 C 180.714844 41.742188 181.902344 41.773438 183.085938 41.832031 C 184.265625 41.890625 185.449219 41.976562 186.628906 42.09375 C 187.808594 42.207031 188.984375 42.351562 190.15625 42.527344 C 191.328125 42.703125 192.492188 42.902344 193.65625 43.136719 C 194.816406 43.367188 195.972656 43.625 197.121094 43.914062 C 198.273438 44.203125 199.414062 44.515625 200.546875 44.859375 C 201.679688 45.207031 202.804688 45.578125 203.921875 45.976562 C 205.035156 46.375 206.140625 46.800781 207.238281 47.253906 C 208.332031 47.707031 209.414062 48.1875 210.484375 48.695312 C 211.554688 49.203125 212.613281 49.734375 213.660156 50.292969 C 214.703125 50.851562 215.734375 51.433594 216.75 52.042969 C 217.765625 52.652344 218.769531 53.285156 219.753906 53.945312 C 220.738281 54.601562 221.707031 55.285156 222.660156 55.992188 C 223.609375 56.695312 224.542969 57.425781 225.460938 58.175781 C 226.375 58.929688 227.273438 59.703125 228.152344 60.5 C 229.027344 61.292969 229.886719 62.109375 230.722656 62.949219 C 231.5625 63.785156 232.378906 64.644531 233.175781 65.523438 C 233.96875 66.398438 234.742188 67.296875 235.496094 68.210938 C 236.246094 69.128906 236.976562 70.0625 237.679688 71.015625 C 238.386719 71.964844 239.070312 72.933594 239.726562 73.917969 C 240.386719 74.902344 241.019531 75.90625 241.628906 76.921875 C 242.238281 77.9375 242.820312 78.96875 243.378906 80.011719 C 243.9375 81.058594 244.472656 82.117188 244.976562 83.1875 C 245.484375 84.257812 245.964844 85.339844 246.417969 86.433594 C 246.871094 87.53125 247.296875 88.636719 247.695312 89.75 C 248.09375 90.867188 248.46875 91.992188 248.8125 93.125 C 249.15625 94.257812 249.472656 95.398438 249.757812 96.550781 C 250.046875 97.699219 250.304688 98.855469 250.539062 100.015625 C 250.769531 101.179688 250.972656 102.347656 251.144531 103.519531 C 251.320312 104.691406 251.464844 105.867188 251.578125 107.042969 C 251.695312 108.222656 251.785156 109.40625 251.839844 110.589844 C 251.898438 111.773438 251.929688 112.957031 251.929688 114.140625 Z M 251.929688 114.140625 " fill-opacity="1" fill-rule="nonzero"/></g><path fill="#404040" d="M 82.234375 317.320312 L 276.828125 317.320312 C 277.535156 317.3125 278.238281 317.28125 278.945312 317.230469 C 279.648438 317.179688 280.347656 317.109375 281.050781 317.019531 C 281.75 316.925781 282.445312 316.8125 283.140625 316.679688 C 283.832031 316.542969 284.519531 316.390625 285.203125 316.214844 C 285.886719 316.039062 286.566406 315.84375 287.238281 315.628906 C 287.910156 315.414062 288.574219 315.175781 289.234375 314.921875 C 289.890625 314.664062 290.539062 314.390625 291.183594 314.097656 C 291.824219 313.800781 292.457031 313.488281 293.078125 313.15625 C 293.703125 312.824219 294.3125 312.472656 294.914062 312.101562 C 295.515625 311.734375 296.105469 311.347656 296.683594 310.941406 C 297.265625 310.539062 297.828125 310.117188 298.382812 309.675781 C 298.9375 309.238281 299.476562 308.785156 300 308.3125 C 300.527344 307.84375 301.039062 307.355469 301.535156 306.855469 C 302.03125 306.355469 302.515625 305.839844 302.980469 305.308594 C 303.445312 304.777344 303.894531 304.234375 304.328125 303.675781 C 304.761719 303.121094 305.179688 302.550781 305.578125 301.96875 C 305.976562 301.386719 306.359375 300.792969 306.722656 300.1875 C 307.085938 299.582031 307.429688 298.964844 307.757812 298.339844 C 308.085938 297.714844 308.390625 297.078125 308.679688 296.433594 C 308.96875 295.792969 309.238281 295.140625 309.488281 294.480469 C 309.738281 293.816406 309.96875 293.152344 310.175781 292.476562 C 310.386719 291.804688 310.578125 291.125 310.746094 290.4375 C 310.914062 289.753906 311.0625 289.0625 311.191406 288.367188 C 311.316406 287.675781 311.425781 286.976562 311.511719 286.277344 C 311.597656 285.574219 311.660156 284.871094 311.703125 284.167969 C 311.746094 283.464844 311.769531 282.757812 311.773438 282.050781 C 311.773438 281.347656 311.753906 280.640625 311.710938 279.9375 C 311.671875 279.230469 311.609375 278.527344 311.527344 277.828125 C 311.445312 277.125 311.339844 276.429688 311.214844 275.734375 C 311.089844 275.039062 310.945312 274.347656 310.777344 273.664062 C 310.613281 272.976562 310.425781 272.296875 310.21875 271.621094 C 310.011719 270.945312 309.785156 270.277344 309.539062 269.617188 C 308.535156 267.082031 307.4375 264.585938 306.25 262.132812 C 305.058594 259.675781 303.78125 257.269531 302.410156 254.910156 C 301.039062 252.554688 299.582031 250.25 298.039062 248 C 296.5 245.75 294.875 243.5625 293.167969 241.433594 C 291.460938 239.308594 289.675781 237.246094 287.816406 235.253906 C 285.957031 233.257812 284.023438 231.335938 282.019531 229.488281 C 280.011719 227.636719 277.941406 225.867188 275.804688 224.171875 C 273.667969 222.480469 271.46875 220.867188 269.210938 219.335938 C 266.953125 217.808594 264.640625 216.367188 262.273438 215.007812 C 259.90625 213.652344 257.492188 212.386719 255.03125 211.210938 C 252.570312 210.035156 250.070312 208.953125 247.527344 207.96875 C 244.984375 206.980469 242.410156 206.085938 239.800781 205.292969 C 237.191406 204.496094 234.558594 203.800781 231.894531 203.203125 C 229.234375 202.605469 226.554688 202.109375 223.855469 201.710938 C 221.15625 201.316406 218.449219 201.019531 215.726562 200.824219 C 213.007812 200.632812 210.285156 200.539062 207.554688 200.550781 L 151.507812 200.550781 C 148.78125 200.550781 146.058594 200.648438 143.34375 200.851562 C 140.625 201.054688 137.917969 201.355469 135.222656 201.761719 C 132.527344 202.164062 129.851562 202.667969 127.191406 203.269531 C 124.535156 203.875 121.902344 204.574219 119.296875 205.375 C 116.691406 206.171875 114.121094 207.066406 111.582031 208.058594 C 109.042969 209.050781 106.542969 210.132812 104.085938 211.308594 C 101.625 212.484375 99.214844 213.753906 96.851562 215.109375 C 94.488281 216.464844 92.175781 217.90625 89.917969 219.433594 C 87.664062 220.964844 85.464844 222.574219 83.328125 224.265625 C 81.191406 225.957031 79.121094 227.726562 77.117188 229.574219 C 75.113281 231.417969 73.179688 233.335938 71.316406 235.328125 C 69.453125 237.316406 67.667969 239.375 65.960938 241.496094 C 64.25 243.621094 62.625 245.804688 61.078125 248.046875 C 59.53125 250.292969 58.070312 252.589844 56.695312 254.945312 C 55.320312 257.296875 54.035156 259.699219 52.835938 262.144531 C 51.640625 264.59375 50.539062 267.085938 49.527344 269.617188 C 49.28125 270.277344 49.050781 270.945312 48.84375 271.621094 C 48.636719 272.296875 48.453125 272.976562 48.285156 273.660156 C 48.117188 274.347656 47.972656 275.039062 47.847656 275.734375 C 47.722656 276.429688 47.617188 277.125 47.535156 277.828125 C 47.453125 278.527344 47.390625 279.230469 47.347656 279.9375 C 47.308594 280.640625 47.289062 281.347656 47.289062 282.050781 C 47.292969 282.757812 47.3125 283.464844 47.355469 284.167969 C 47.402344 284.871094 47.464844 285.574219 47.550781 286.277344 C 47.636719 286.976562 47.742188 287.675781 47.871094 288.367188 C 48 289.0625 48.144531 289.753906 48.316406 290.4375 C 48.484375 291.125 48.671875 291.804688 48.882812 292.476562 C 49.09375 293.152344 49.320312 293.820312 49.570312 294.480469 C 49.820312 295.140625 50.089844 295.792969 50.378906 296.4375 C 50.667969 297.082031 50.976562 297.714844 51.300781 298.339844 C 51.628906 298.96875 51.972656 299.582031 52.335938 300.1875 C 52.703125 300.792969 53.082031 301.386719 53.480469 301.96875 C 53.882812 302.550781 54.296875 303.121094 54.730469 303.679688 C 55.164062 304.234375 55.613281 304.777344 56.078125 305.308594 C 56.546875 305.839844 57.027344 306.355469 57.523438 306.859375 C 58.019531 307.359375 58.53125 307.84375 59.058594 308.316406 C 59.585938 308.785156 60.125 309.242188 60.679688 309.679688 C 61.230469 310.117188 61.796875 310.539062 62.375 310.945312 C 62.953125 311.347656 63.542969 311.734375 64.144531 312.105469 C 64.746094 312.472656 65.359375 312.824219 65.984375 313.15625 C 66.605469 313.488281 67.238281 313.804688 67.878906 314.097656 C 68.519531 314.390625 69.171875 314.667969 69.828125 314.921875 C 70.488281 315.179688 71.152344 315.414062 71.824219 315.628906 C 72.496094 315.847656 73.175781 316.042969 73.859375 316.214844 C 74.542969 316.390625 75.230469 316.546875 75.925781 316.679688 C 76.617188 316.8125 77.3125 316.925781 78.015625 317.019531 C 78.714844 317.109375 79.414062 317.183594 80.121094 317.230469 C 80.824219 317.28125 81.53125 317.3125 82.234375 317.320312 Z M 82.234375 317.320312 " fill-opacity="1" fill-rule="nonzero"/></svg>