<svg xmlns="http://www.w3.org/2000/svg" xmlns:xlink="http://www.w3.org/1999/xlink" width="480" zoomAndPan="magnify" viewBox="0 0 360 359.999987" height="480" preserveAspectRatio="xMidYMid meet" version="1.0"><defs><clipPath id="b29181a8f5"><path d="M 142 63.257812 L 276 63.257812 L 276 198 L 142 198 Z M 142 63.257812 " clip-rule="nonzero"/></clipPath></defs><path fill="#e2a9f1" d="M 216.703125 103.097656 C 216.703125 104.1875 216.675781 105.28125 216.621094 106.371094 C 216.570312 107.457031 216.488281 108.546875 216.382812 109.632812 C 216.273438 110.71875 216.140625 111.800781 215.980469 112.878906 C 215.820312 113.957031 215.632812 115.03125 215.421875 116.101562 C 215.210938 117.171875 214.96875 118.238281 214.703125 119.292969 C 214.441406 120.351562 214.148438 121.402344 213.832031 122.449219 C 213.515625 123.492188 213.171875 124.527344 212.804688 125.554688 C 212.4375 126.582031 212.046875 127.597656 211.628906 128.605469 C 211.210938 129.613281 210.769531 130.613281 210.304688 131.597656 C 209.835938 132.582031 209.347656 133.558594 208.832031 134.519531 C 208.316406 135.480469 207.78125 136.429688 207.21875 137.367188 C 206.660156 138.300781 206.074219 139.222656 205.46875 140.128906 C 204.863281 141.039062 204.234375 141.929688 203.585938 142.804688 C 202.933594 143.683594 202.265625 144.542969 201.574219 145.386719 C 200.878906 146.226562 200.167969 147.054688 199.433594 147.863281 C 198.703125 148.671875 197.949219 149.460938 197.179688 150.230469 C 196.40625 151.003906 195.617188 151.753906 194.808594 152.488281 C 194 153.21875 193.175781 153.933594 192.332031 154.625 C 191.488281 155.316406 190.628906 155.988281 189.753906 156.636719 C 188.878906 157.289062 187.984375 157.914062 187.078125 158.519531 C 186.171875 159.128906 185.25 159.710938 184.3125 160.273438 C 183.378906 160.832031 182.429688 161.371094 181.46875 161.882812 C 180.503906 162.398438 179.53125 162.890625 178.546875 163.355469 C 177.558594 163.820312 176.5625 164.261719 175.554688 164.679688 C 174.546875 165.097656 173.527344 165.492188 172.503906 165.859375 C 171.476562 166.226562 170.4375 166.566406 169.394531 166.882812 C 168.351562 167.203125 167.300781 167.492188 166.242188 167.757812 C 165.183594 168.023438 164.121094 168.261719 163.050781 168.472656 C 161.980469 168.6875 160.90625 168.875 159.828125 169.035156 C 158.746094 169.195312 157.664062 169.328125 156.578125 169.433594 C 155.492188 169.539062 154.40625 169.621094 153.316406 169.675781 C 152.226562 169.726562 151.136719 169.753906 150.046875 169.753906 C 148.957031 169.753906 147.863281 169.726562 146.777344 169.675781 C 145.6875 169.621094 144.597656 169.539062 143.511719 169.433594 C 142.425781 169.328125 141.34375 169.195312 140.265625 169.035156 C 139.1875 168.875 138.113281 168.6875 137.042969 168.472656 C 135.972656 168.261719 134.910156 168.023438 133.851562 167.757812 C 132.792969 167.492188 131.742188 167.203125 130.695312 166.882812 C 129.652344 166.566406 128.617188 166.226562 127.589844 165.859375 C 126.5625 165.492188 125.546875 165.097656 124.539062 164.679688 C 123.53125 164.261719 122.53125 163.820312 121.546875 163.355469 C 120.5625 162.890625 119.585938 162.398438 118.625 161.882812 C 117.664062 161.371094 116.714844 160.832031 115.777344 160.273438 C 114.84375 159.710938 113.921875 159.128906 113.015625 158.519531 C 112.105469 157.914062 111.214844 157.289062 110.339844 156.636719 C 109.460938 155.988281 108.601562 155.316406 107.761719 154.625 C 106.917969 153.933594 106.089844 153.21875 105.28125 152.488281 C 104.472656 151.753906 103.683594 151.003906 102.914062 150.230469 C 102.140625 149.460938 101.390625 148.671875 100.65625 147.863281 C 99.925781 147.054688 99.210938 146.226562 98.519531 145.386719 C 97.828125 144.542969 97.15625 143.683594 96.507812 142.804688 C 95.859375 141.929688 95.230469 141.039062 94.625 140.128906 C 94.015625 139.222656 93.433594 138.300781 92.875 137.367188 C 92.3125 136.429688 91.773438 135.480469 91.261719 134.519531 C 90.746094 133.558594 90.257812 132.582031 89.789062 131.597656 C 89.324219 130.613281 88.882812 129.613281 88.464844 128.605469 C 88.046875 127.597656 87.652344 126.582031 87.285156 125.554688 C 86.917969 124.527344 86.578125 123.492188 86.261719 122.449219 C 85.941406 121.402344 85.652344 120.351562 85.386719 119.292969 C 85.121094 118.238281 84.882812 117.171875 84.671875 116.101562 C 84.457031 115.03125 84.269531 113.957031 84.109375 112.878906 C 83.953125 111.800781 83.816406 110.71875 83.710938 109.632812 C 83.605469 108.546875 83.523438 107.457031 83.46875 106.371094 C 83.417969 105.28125 83.390625 104.1875 83.390625 103.097656 C 83.390625 102.007812 83.417969 100.917969 83.46875 99.828125 C 83.523438 98.738281 83.605469 97.652344 83.710938 96.566406 C 83.816406 95.480469 83.953125 94.398438 84.109375 93.316406 C 84.269531 92.238281 84.457031 91.164062 84.671875 90.09375 C 84.882812 89.023438 85.121094 87.960938 85.386719 86.902344 C 85.652344 85.84375 85.941406 84.792969 86.261719 83.75 C 86.578125 82.707031 86.917969 81.667969 87.285156 80.644531 C 87.652344 79.617188 88.046875 78.597656 88.464844 77.589844 C 88.882812 76.582031 89.324219 75.585938 89.789062 74.597656 C 90.257812 73.613281 90.746094 72.640625 91.261719 71.675781 C 91.773438 70.714844 92.3125 69.765625 92.875 68.832031 C 93.433594 67.894531 94.015625 66.972656 94.625 66.066406 C 95.230469 65.160156 95.859375 64.265625 96.507812 63.390625 C 97.15625 62.515625 97.828125 61.65625 98.519531 60.8125 C 99.210938 59.96875 99.925781 59.144531 100.65625 58.335938 C 101.390625 57.527344 102.140625 56.738281 102.914062 55.964844 C 103.683594 55.195312 104.472656 54.441406 105.28125 53.710938 C 106.089844 52.976562 106.917969 52.265625 107.761719 51.574219 C 108.601562 50.878906 109.460938 50.210938 110.339844 49.558594 C 111.214844 48.910156 112.105469 48.28125 113.015625 47.675781 C 113.921875 47.070312 114.84375 46.484375 115.777344 45.925781 C 116.714844 45.363281 117.664062 44.828125 118.625 44.3125 C 119.585938 43.796875 120.5625 43.308594 121.546875 42.84375 C 122.53125 42.375 123.53125 41.933594 124.539062 41.515625 C 125.546875 41.097656 126.5625 40.707031 127.589844 40.339844 C 128.617188 39.972656 129.652344 39.628906 130.695312 39.3125 C 131.742188 38.996094 132.792969 38.703125 133.851562 38.441406 C 134.910156 38.175781 135.972656 37.9375 137.042969 37.722656 C 138.113281 37.511719 139.1875 37.324219 140.265625 37.164062 C 141.34375 37.003906 142.425781 36.871094 143.511719 36.761719 C 144.597656 36.65625 145.6875 36.574219 146.777344 36.523438 C 147.863281 36.46875 148.957031 36.441406 150.046875 36.441406 C 151.136719 36.441406 152.226562 36.46875 153.316406 36.523438 C 154.40625 36.574219 155.492188 36.65625 156.578125 36.761719 C 157.664062 36.871094 158.746094 37.003906 159.828125 37.164062 C 160.90625 37.324219 161.980469 37.511719 163.050781 37.722656 C 164.121094 37.9375 165.183594 38.175781 166.242188 38.441406 C 167.300781 38.703125 168.351562 38.996094 169.394531 39.3125 C 170.4375 39.628906 171.476562 39.972656 172.503906 40.339844 C 173.527344 40.707031 174.546875 41.097656 175.554688 41.515625 C 176.5625 41.933594 177.558594 42.375 178.546875 42.84375 C 179.53125 43.308594 180.503906 43.796875 181.46875 44.3125 C 182.429688 44.828125 183.378906 45.363281 184.3125 45.925781 C 185.25 46.484375 186.171875 47.070312 187.078125 47.675781 C 187.984375 48.28125 188.878906 48.910156 189.753906 49.558594 C 190.628906 50.210938 191.488281 50.878906 192.332031 51.574219 C 193.175781 52.265625 194 52.976562 194.808594 53.710938 C 195.617188 54.441406 196.40625 55.195312 197.179688 55.964844 C 197.949219 56.738281 198.703125 57.527344 199.433594 58.335938 C 200.167969 59.144531 200.878906 59.96875 201.574219 60.8125 C 202.265625 61.65625 202.933594 62.515625 203.585938 63.390625 C 204.234375 64.265625 204.863281 65.160156 205.46875 66.066406 C 206.074219 66.972656 206.660156 67.894531 207.21875 68.832031 C 207.78125 69.765625 208.316406 70.714844 208.832031 71.675781 C 209.347656 72.640625 209.835938 73.613281 210.304688 74.597656 C 210.769531 75.585938 211.210938 76.582031 211.628906 77.589844 C 212.046875 78.597656 212.4375 79.617188 212.804688 80.644531 C 213.171875 81.667969 213.515625 82.707031 213.832031 83.75 C 214.148438 84.792969 214.441406 85.84375 214.703125 86.902344 C 214.96875 87.960938 215.210938 89.023438 215.421875 90.09375 C 215.632812 91.164062 215.820312 92.238281 215.980469 93.316406 C 216.140625 94.398438 216.273438 95.480469 216.382812 96.566406 C 216.488281 97.652344 216.570312 98.738281 216.621094 99.828125 C 216.675781 100.917969 216.703125 102.007812 216.703125 103.097656 Z M 216.703125 103.097656 " fill-opacity="1" fill-rule="nonzero"/><path fill="#e2a9f1" d="M 60.464844 290.167969 L 239.628906 290.167969 C 240.277344 290.160156 240.925781 290.132812 241.574219 290.085938 C 242.222656 290.039062 242.871094 289.976562 243.515625 289.890625 C 244.160156 289.804688 244.800781 289.699219 245.4375 289.578125 C 246.078125 289.453125 246.710938 289.3125 247.339844 289.152344 C 247.96875 288.988281 248.59375 288.808594 249.210938 288.609375 C 249.832031 288.410156 250.445312 288.195312 251.050781 287.960938 C 251.65625 287.722656 252.253906 287.46875 252.84375 287.199219 C 253.433594 286.929688 254.015625 286.640625 254.589844 286.332031 C 255.164062 286.027344 255.726562 285.703125 256.28125 285.363281 C 256.835938 285.023438 257.378906 284.667969 257.910156 284.296875 C 258.445312 283.921875 258.964844 283.535156 259.472656 283.132812 C 259.984375 282.726562 260.480469 282.308594 260.964844 281.875 C 261.449219 281.441406 261.917969 280.996094 262.375 280.53125 C 262.835938 280.070312 263.277344 279.597656 263.707031 279.109375 C 264.136719 278.621094 264.550781 278.121094 264.949219 277.605469 C 265.347656 277.09375 265.730469 276.570312 266.097656 276.03125 C 266.464844 275.496094 266.816406 274.949219 267.152344 274.394531 C 267.488281 273.835938 267.804688 273.269531 268.105469 272.691406 C 268.40625 272.117188 268.691406 271.53125 268.957031 270.9375 C 269.222656 270.347656 269.46875 269.746094 269.699219 269.136719 C 269.929688 268.53125 270.140625 267.914062 270.332031 267.292969 C 270.527344 266.675781 270.699219 266.046875 270.855469 265.417969 C 271.011719 264.785156 271.148438 264.152344 271.265625 263.511719 C 271.382812 262.871094 271.480469 262.230469 271.558594 261.585938 C 271.640625 260.941406 271.699219 260.292969 271.738281 259.644531 C 271.777344 258.996094 271.800781 258.347656 271.800781 257.695312 C 271.800781 257.046875 271.785156 256.398438 271.746094 255.75 C 271.707031 255.097656 271.652344 254.453125 271.574219 253.808594 C 271.5 253.160156 271.402344 252.519531 271.289062 251.878906 C 271.171875 251.238281 271.039062 250.605469 270.886719 249.972656 C 270.734375 249.339844 270.5625 248.714844 270.371094 248.09375 C 270.179688 247.472656 269.972656 246.855469 269.742188 246.246094 C 268.820312 243.910156 267.8125 241.613281 266.714844 239.355469 C 265.621094 237.09375 264.441406 234.878906 263.179688 232.707031 C 261.917969 230.535156 260.578125 228.414062 259.160156 226.34375 C 257.738281 224.273438 256.242188 222.257812 254.671875 220.300781 C 253.101562 218.339844 251.457031 216.445312 249.746094 214.609375 C 248.03125 212.773438 246.253906 211.003906 244.40625 209.300781 C 242.558594 207.597656 240.652344 205.964844 238.683594 204.40625 C 236.71875 202.847656 234.695312 201.363281 232.613281 199.953125 C 230.535156 198.546875 228.40625 197.21875 226.226562 195.96875 C 224.050781 194.71875 221.828125 193.554688 219.5625 192.472656 C 217.292969 191.390625 214.992188 190.394531 212.652344 189.484375 C 210.308594 188.574219 207.9375 187.753906 205.535156 187.023438 C 203.132812 186.289062 200.707031 185.648438 198.257812 185.097656 C 195.808594 184.550781 193.339844 184.089844 190.855469 183.726562 C 188.371094 183.359375 185.878906 183.089844 183.371094 182.910156 C 180.867188 182.730469 178.359375 182.648438 175.847656 182.65625 L 124.242188 182.65625 C 121.734375 182.65625 119.230469 182.75 116.726562 182.933594 C 114.222656 183.121094 111.730469 183.398438 109.25 183.769531 C 106.769531 184.144531 104.304688 184.605469 101.855469 185.160156 C 99.410156 185.71875 96.988281 186.363281 94.585938 187.097656 C 92.1875 187.832031 89.820312 188.65625 87.484375 189.570312 C 85.144531 190.480469 82.84375 191.480469 80.582031 192.5625 C 78.316406 193.644531 76.097656 194.8125 73.921875 196.0625 C 71.746094 197.308594 69.617188 198.636719 67.539062 200.042969 C 65.460938 201.453125 63.4375 202.933594 61.472656 204.492188 C 59.503906 206.050781 57.597656 207.679688 55.753906 209.378906 C 53.90625 211.078125 52.125 212.84375 50.410156 214.675781 C 48.695312 216.507812 47.054688 218.402344 45.480469 220.355469 C 43.90625 222.3125 42.40625 224.320312 40.984375 226.386719 C 39.558594 228.453125 38.214844 230.570312 36.949219 232.738281 C 35.683594 234.902344 34.5 237.113281 33.398438 239.367188 C 32.296875 241.625 31.28125 243.917969 30.347656 246.246094 C 30.121094 246.855469 29.914062 247.46875 29.722656 248.089844 C 29.53125 248.714844 29.359375 249.339844 29.207031 249.972656 C 29.054688 250.601562 28.917969 251.238281 28.804688 251.878906 C 28.6875 252.519531 28.59375 253.160156 28.515625 253.804688 C 28.441406 254.453125 28.382812 255.097656 28.34375 255.746094 C 28.308594 256.398438 28.289062 257.046875 28.289062 257.695312 C 28.292969 258.347656 28.3125 258.996094 28.351562 259.644531 C 28.390625 260.292969 28.453125 260.941406 28.53125 261.585938 C 28.609375 262.230469 28.707031 262.871094 28.824219 263.511719 C 28.941406 264.152344 29.078125 264.785156 29.234375 265.417969 C 29.390625 266.046875 29.5625 266.675781 29.757812 267.296875 C 29.949219 267.917969 30.160156 268.53125 30.390625 269.136719 C 30.621094 269.746094 30.867188 270.347656 31.132812 270.941406 C 31.398438 271.535156 31.683594 272.117188 31.984375 272.695312 C 32.285156 273.269531 32.601562 273.835938 32.9375 274.394531 C 33.273438 274.953125 33.625 275.496094 33.992188 276.035156 C 34.359375 276.570312 34.742188 277.09375 35.140625 277.609375 C 35.539062 278.121094 35.953125 278.621094 36.382812 279.109375 C 36.8125 279.597656 37.253906 280.074219 37.710938 280.535156 C 38.171875 280.996094 38.640625 281.445312 39.125 281.878906 C 39.609375 282.3125 40.105469 282.730469 40.617188 283.132812 C 41.125 283.539062 41.648438 283.925781 42.179688 284.296875 C 42.710938 284.671875 43.253906 285.027344 43.808594 285.367188 C 44.363281 285.707031 44.925781 286.027344 45.5 286.335938 C 46.074219 286.640625 46.65625 286.929688 47.246094 287.203125 C 47.835938 287.472656 48.4375 287.726562 49.042969 287.960938 C 49.648438 288.195312 50.261719 288.414062 50.878906 288.613281 C 51.496094 288.8125 52.121094 288.992188 52.75 289.152344 C 53.382812 289.3125 54.015625 289.457031 54.652344 289.578125 C 55.292969 289.703125 55.933594 289.804688 56.578125 289.890625 C 57.222656 289.976562 57.867188 290.039062 58.515625 290.085938 C 59.164062 290.132812 59.8125 290.160156 60.464844 290.167969 Z M 60.464844 290.167969 " fill-opacity="1" fill-rule="nonzero"/><g clip-path="url(#b29181a8f5)"><path fill="#ff3131" d="M 275.738281 130.355469 C 275.738281 131.449219 275.714844 132.539062 275.660156 133.628906 C 275.605469 134.71875 275.527344 135.804688 275.417969 136.890625 C 275.3125 137.976562 275.179688 139.058594 275.019531 140.136719 C 274.859375 141.214844 274.671875 142.289062 274.460938 143.359375 C 274.246094 144.429688 274.007812 145.496094 273.742188 146.554688 C 273.476562 147.609375 273.1875 148.660156 272.871094 149.707031 C 272.554688 150.75 272.210938 151.785156 271.84375 152.8125 C 271.476562 153.839844 271.082031 154.855469 270.667969 155.863281 C 270.25 156.871094 269.804688 157.871094 269.339844 158.855469 C 268.875 159.84375 268.382812 160.816406 267.871094 161.777344 C 267.355469 162.742188 266.816406 163.6875 266.257812 164.625 C 265.695312 165.558594 265.113281 166.480469 264.507812 167.390625 C 263.898438 168.296875 263.273438 169.1875 262.621094 170.0625 C 261.972656 170.941406 261.300781 171.800781 260.609375 172.644531 C 259.917969 173.484375 259.207031 174.3125 258.472656 175.121094 C 257.738281 175.929688 256.988281 176.71875 256.214844 177.488281 C 255.445312 178.261719 254.65625 179.011719 253.847656 179.746094 C 253.039062 180.476562 252.214844 181.191406 251.371094 181.882812 C 250.527344 182.574219 249.667969 183.246094 248.789062 183.894531 C 247.914062 184.546875 247.023438 185.171875 246.117188 185.78125 C 245.207031 186.386719 244.289062 186.96875 243.351562 187.53125 C 242.417969 188.089844 241.46875 188.628906 240.503906 189.140625 C 239.542969 189.65625 238.570312 190.148438 237.582031 190.613281 C 236.597656 191.078125 235.601562 191.523438 234.59375 191.9375 C 233.585938 192.355469 232.566406 192.75 231.539062 193.117188 C 230.511719 193.484375 229.476562 193.824219 228.433594 194.144531 C 227.390625 194.460938 226.339844 194.75 225.28125 195.015625 C 224.222656 195.28125 223.15625 195.519531 222.085938 195.730469 C 221.019531 195.945312 219.941406 196.132812 218.863281 196.292969 C 217.785156 196.453125 216.703125 196.585938 215.617188 196.691406 C 214.53125 196.800781 213.445312 196.878906 212.355469 196.933594 C 211.265625 196.984375 210.175781 197.011719 209.082031 197.011719 C 207.992188 197.011719 206.902344 196.984375 205.8125 196.933594 C 204.722656 196.878906 203.636719 196.800781 202.550781 196.691406 C 201.464844 196.585938 200.382812 196.453125 199.304688 196.292969 C 198.222656 196.132812 197.148438 195.945312 196.078125 195.730469 C 195.007812 195.519531 193.945312 195.28125 192.886719 195.015625 C 191.828125 194.75 190.777344 194.460938 189.734375 194.144531 C 188.691406 193.824219 187.65625 193.484375 186.628906 193.117188 C 185.601562 192.75 184.582031 192.355469 183.574219 191.9375 C 182.566406 191.523438 181.570312 191.078125 180.585938 190.613281 C 179.597656 190.148438 178.625 189.65625 177.660156 189.140625 C 176.699219 188.628906 175.75 188.089844 174.816406 187.53125 C 173.878906 186.96875 172.957031 186.386719 172.050781 185.78125 C 171.144531 185.171875 170.253906 184.546875 169.375 183.894531 C 168.5 183.246094 167.640625 182.574219 166.796875 181.882812 C 165.953125 181.191406 165.128906 180.476562 164.320312 179.746094 C 163.511719 179.011719 162.722656 178.261719 161.949219 177.488281 C 161.179688 176.71875 160.425781 175.929688 159.695312 175.121094 C 158.960938 174.3125 158.25 173.484375 157.558594 172.644531 C 156.867188 171.800781 156.195312 170.941406 155.542969 170.0625 C 154.894531 169.1875 154.265625 168.296875 153.660156 167.390625 C 153.054688 166.480469 152.472656 165.558594 151.910156 164.625 C 151.351562 163.6875 150.8125 162.742188 150.296875 161.777344 C 149.785156 160.816406 149.292969 159.84375 148.828125 158.855469 C 148.359375 157.871094 147.917969 156.871094 147.5 155.863281 C 147.082031 154.855469 146.691406 153.839844 146.324219 152.8125 C 145.957031 151.785156 145.613281 150.75 145.296875 149.707031 C 144.980469 148.660156 144.691406 147.609375 144.425781 146.554688 C 144.160156 145.496094 143.921875 144.429688 143.707031 143.359375 C 143.496094 142.289062 143.308594 141.214844 143.148438 140.136719 C 142.988281 139.058594 142.855469 137.976562 142.75 136.890625 C 142.640625 135.804688 142.5625 134.71875 142.507812 133.628906 C 142.453125 132.539062 142.425781 131.449219 142.425781 130.355469 C 142.425781 129.265625 142.453125 128.175781 142.507812 127.085938 C 142.5625 125.996094 142.640625 124.910156 142.75 123.824219 C 142.855469 122.738281 142.988281 121.65625 143.148438 120.574219 C 143.308594 119.496094 143.496094 118.421875 143.707031 117.351562 C 143.921875 116.28125 144.160156 115.21875 144.425781 114.160156 C 144.691406 113.101562 144.980469 112.050781 145.296875 111.007812 C 145.613281 109.964844 145.957031 108.929688 146.324219 107.902344 C 146.691406 106.875 147.082031 105.855469 147.5 104.847656 C 147.917969 103.839844 148.359375 102.84375 148.828125 101.855469 C 149.292969 100.871094 149.785156 99.898438 150.296875 98.933594 C 150.8125 97.972656 151.351562 97.023438 151.910156 96.089844 C 152.472656 95.152344 153.054688 94.230469 153.660156 93.324219 C 154.265625 92.417969 154.894531 91.527344 155.542969 90.648438 C 156.195312 89.773438 156.867188 88.914062 157.558594 88.070312 C 158.25 87.226562 158.960938 86.402344 159.695312 85.59375 C 160.425781 84.785156 161.179688 83.996094 161.949219 83.222656 C 162.722656 82.453125 163.511719 81.699219 164.320312 80.96875 C 165.128906 80.234375 165.953125 79.523438 166.796875 78.832031 C 167.640625 78.136719 168.5 77.46875 169.375 76.816406 C 170.253906 76.167969 171.144531 75.539062 172.050781 74.933594 C 172.957031 74.328125 173.878906 73.746094 174.816406 73.183594 C 175.75 72.621094 176.699219 72.085938 177.660156 71.570312 C 178.625 71.054688 179.597656 70.566406 180.585938 70.101562 C 181.570312 69.632812 182.566406 69.191406 183.574219 68.773438 C 184.582031 68.355469 185.601562 67.964844 186.628906 67.597656 C 187.65625 67.230469 188.691406 66.886719 189.734375 66.570312 C 190.777344 66.253906 191.828125 65.960938 192.886719 65.699219 C 193.945312 65.433594 195.007812 65.195312 196.078125 64.980469 C 197.148438 64.769531 198.222656 64.582031 199.304688 64.421875 C 200.382812 64.261719 201.464844 64.128906 202.550781 64.019531 C 203.636719 63.914062 204.722656 63.835938 205.8125 63.78125 C 206.902344 63.726562 207.992188 63.699219 209.082031 63.699219 C 210.175781 63.699219 211.265625 63.726562 212.355469 63.78125 C 213.445312 63.835938 214.53125 63.914062 215.617188 64.019531 C 216.703125 64.128906 217.785156 64.261719 218.863281 64.421875 C 219.941406 64.582031 221.019531 64.769531 222.085938 64.980469 C 223.15625 65.195312 224.222656 65.433594 225.28125 65.699219 C 226.339844 65.960938 227.390625 66.253906 228.433594 66.570312 C 229.476562 66.886719 230.511719 67.230469 231.539062 67.597656 C 232.566406 67.964844 233.585938 68.355469 234.59375 68.773438 C 235.601562 69.191406 236.597656 69.632812 237.582031 70.101562 C 238.570312 70.566406 239.542969 71.054688 240.503906 71.570312 C 241.46875 72.085938 242.417969 72.621094 243.351562 73.183594 C 244.289062 73.746094 245.207031 74.328125 246.117188 74.933594 C 247.023438 75.539062 247.914062 76.167969 248.789062 76.816406 C 249.667969 77.46875 250.527344 78.136719 251.371094 78.832031 C 252.214844 79.523438 253.039062 80.234375 253.847656 80.96875 C 254.65625 81.699219 255.445312 82.453125 256.214844 83.222656 C 256.988281 83.996094 257.738281 84.785156 258.472656 85.59375 C 259.207031 86.402344 259.917969 87.226562 260.609375 88.070312 C 261.300781 88.914062 261.972656 89.773438 262.621094 90.648438 C 263.273438 91.527344 263.898438 92.417969 264.507812 93.324219 C 265.113281 94.230469 265.695312 95.152344 266.257812 96.089844 C 266.816406 97.023438 267.355469 97.972656 267.871094 98.933594 C 268.382812 99.898438 268.875 100.871094 269.339844 101.855469 C 269.808594 102.84375 270.25 103.839844 270.667969 104.847656 C 271.082031 105.855469 271.476562 106.875 271.84375 107.902344 C 272.210938 108.929688 272.554688 109.964844 272.871094 111.007812 C 273.1875 112.050781 273.476562 113.101562 273.742188 114.160156 C 274.007812 115.21875 274.246094 116.28125 274.460938 117.351562 C 274.671875 118.421875 274.859375 119.496094 275.019531 120.574219 C 275.179688 121.65625 275.3125 122.738281 275.417969 123.824219 C 275.527344 124.910156 275.605469 125.996094 275.660156 127.085938 C 275.714844 128.175781 275.738281 129.265625 275.738281 130.355469 Z M 275.738281 130.355469 " fill-opacity="1" fill-rule="nonzero"/></g><path fill="#ff3131" d="M 119.5 317.425781 L 298.664062 317.425781 C 299.316406 317.417969 299.964844 317.390625 300.613281 317.34375 C 301.261719 317.296875 301.90625 317.234375 302.550781 317.148438 C 303.195312 317.0625 303.835938 316.957031 304.476562 316.835938 C 305.113281 316.710938 305.746094 316.570312 306.378906 316.410156 C 307.007812 316.246094 307.632812 316.066406 308.25 315.867188 C 308.867188 315.667969 309.480469 315.453125 310.085938 315.21875 C 310.691406 314.980469 311.289062 314.730469 311.882812 314.457031 C 312.472656 314.1875 313.054688 313.898438 313.628906 313.589844 C 314.199219 313.285156 314.765625 312.960938 315.316406 312.621094 C 315.871094 312.28125 316.414062 311.925781 316.949219 311.554688 C 317.480469 311.179688 318 310.792969 318.511719 310.390625 C 319.019531 309.984375 319.515625 309.566406 320 309.132812 C 320.484375 308.699219 320.957031 308.253906 321.414062 307.789062 C 321.871094 307.328125 322.316406 306.855469 322.742188 306.367188 C 323.171875 305.878906 323.585938 305.378906 323.984375 304.863281 C 324.386719 304.351562 324.769531 303.828125 325.136719 303.289062 C 325.503906 302.753906 325.855469 302.207031 326.1875 301.652344 C 326.523438 301.09375 326.84375 300.527344 327.144531 299.949219 C 327.445312 299.375 327.726562 298.789062 327.992188 298.195312 C 328.257812 297.605469 328.507812 297.003906 328.734375 296.394531 C 328.964844 295.789062 329.175781 295.171875 329.371094 294.554688 C 329.5625 293.933594 329.738281 293.304688 329.894531 292.675781 C 330.046875 292.042969 330.183594 291.410156 330.300781 290.769531 C 330.421875 290.128906 330.519531 289.488281 330.597656 288.84375 C 330.675781 288.199219 330.734375 287.550781 330.777344 286.902344 C 330.816406 286.253906 330.835938 285.605469 330.839844 284.953125 C 330.839844 284.304688 330.820312 283.65625 330.785156 283.007812 C 330.746094 282.359375 330.6875 281.710938 330.613281 281.066406 C 330.535156 280.417969 330.441406 279.777344 330.324219 279.136719 C 330.210938 278.496094 330.078125 277.863281 329.921875 277.230469 C 329.769531 276.597656 329.597656 275.972656 329.410156 275.351562 C 329.21875 274.730469 329.007812 274.113281 328.78125 273.503906 C 327.859375 271.171875 326.847656 268.871094 325.753906 266.613281 C 324.65625 264.351562 323.480469 262.136719 322.21875 259.964844 C 320.957031 257.792969 319.617188 255.671875 318.195312 253.601562 C 316.777344 251.53125 315.28125 249.515625 313.710938 247.558594 C 312.136719 245.597656 310.496094 243.703125 308.78125 241.867188 C 307.070312 240.03125 305.289062 238.261719 303.445312 236.558594 C 301.597656 234.855469 299.691406 233.222656 297.722656 231.664062 C 295.753906 230.105469 293.730469 228.621094 291.652344 227.210938 C 289.574219 225.804688 287.445312 224.476562 285.265625 223.226562 C 283.085938 221.980469 280.863281 220.8125 278.597656 219.730469 C 276.332031 218.648438 274.027344 217.652344 271.6875 216.742188 C 269.347656 215.832031 266.976562 215.011719 264.574219 214.28125 C 262.171875 213.550781 259.746094 212.90625 257.296875 212.359375 C 254.84375 211.808594 252.378906 211.347656 249.894531 210.984375 C 247.410156 210.617188 244.914062 210.347656 242.410156 210.167969 C 239.90625 209.988281 237.398438 209.90625 234.886719 209.914062 L 183.28125 209.914062 C 180.773438 209.914062 178.265625 210.007812 175.761719 210.191406 C 173.261719 210.378906 170.769531 210.65625 168.289062 211.03125 C 165.804688 211.402344 163.339844 211.863281 160.894531 212.417969 C 158.445312 212.976562 156.023438 213.621094 153.625 214.355469 C 151.226562 215.089844 148.859375 215.914062 146.519531 216.828125 C 144.183594 217.738281 141.882812 218.738281 139.617188 219.820312 C 137.355469 220.902344 135.136719 222.070312 132.957031 223.320312 C 130.78125 224.566406 128.65625 225.894531 126.578125 227.300781 C 124.5 228.710938 122.476562 230.191406 120.507812 231.75 C 118.542969 233.308594 116.636719 234.9375 114.789062 236.636719 C 112.945312 238.335938 111.164062 240.101562 109.449219 241.933594 C 107.734375 243.765625 106.089844 245.660156 104.515625 247.613281 C 102.945312 249.570312 101.445312 251.578125 100.019531 253.644531 C 98.597656 255.710938 97.253906 257.828125 95.988281 259.996094 C 94.71875 262.160156 93.535156 264.371094 92.433594 266.628906 C 91.332031 268.882812 90.316406 271.175781 89.386719 273.503906 C 89.160156 274.113281 88.949219 274.726562 88.757812 275.351562 C 88.570312 275.972656 88.398438 276.597656 88.242188 277.230469 C 88.089844 277.859375 87.957031 278.496094 87.839844 279.136719 C 87.726562 279.777344 87.628906 280.417969 87.554688 281.0625 C 87.476562 281.710938 87.417969 282.355469 87.382812 283.007812 C 87.34375 283.65625 87.324219 284.304688 87.328125 284.953125 C 87.328125 285.605469 87.347656 286.253906 87.390625 286.902344 C 87.429688 287.550781 87.488281 288.199219 87.566406 288.84375 C 87.644531 289.488281 87.746094 290.128906 87.863281 290.769531 C 87.980469 291.410156 88.117188 292.042969 88.269531 292.675781 C 88.425781 293.308594 88.601562 293.933594 88.792969 294.554688 C 88.988281 295.175781 89.199219 295.789062 89.429688 296.394531 C 89.65625 297.003906 89.90625 297.605469 90.171875 298.199219 C 90.4375 298.792969 90.71875 299.375 91.019531 299.953125 C 91.320312 300.527344 91.640625 301.09375 91.976562 301.652344 C 92.308594 302.210938 92.660156 302.757812 93.027344 303.292969 C 93.394531 303.828125 93.777344 304.351562 94.179688 304.867188 C 94.578125 305.378906 94.992188 305.878906 95.421875 306.367188 C 95.847656 306.855469 96.292969 307.332031 96.75 307.792969 C 97.207031 308.253906 97.679688 308.703125 98.164062 309.136719 C 98.648438 309.570312 99.144531 309.988281 99.652344 310.390625 C 100.164062 310.796875 100.683594 311.183594 101.21875 311.554688 C 101.75 311.929688 102.292969 312.285156 102.847656 312.625 C 103.402344 312.964844 103.964844 313.289062 104.539062 313.59375 C 105.113281 313.898438 105.695312 314.1875 106.285156 314.460938 C 106.875 314.730469 107.472656 314.984375 108.078125 315.21875 C 108.683594 315.453125 109.296875 315.671875 109.917969 315.871094 C 110.535156 316.070312 111.160156 316.25 111.789062 316.410156 C 112.417969 316.570312 113.054688 316.714844 113.691406 316.835938 C 114.328125 316.960938 114.96875 317.0625 115.613281 317.148438 C 116.257812 317.234375 116.90625 317.296875 117.554688 317.34375 C 118.203125 317.390625 118.851562 317.417969 119.5 317.425781 Z M 119.5 317.425781 " fill-opacity="1" fill-rule="nonzero"/></svg>