<svg xmlns="http://www.w3.org/2000/svg" xmlns:xlink="http://www.w3.org/1999/xlink" width="480" zoomAndPan="magnify" viewBox="0 0 360 359.999987" height="480" preserveAspectRatio="xMidYMid meet" version="1.0"><defs><clipPath id="ec250bcd70"><path d="M 82 89 L 123 89 L 123 115 L 82 115 Z M 82 89 " clip-rule="nonzero"/></clipPath><clipPath id="d9ddb5ef91"><path d="M 118.796875 118.925781 L 79.71875 108.003906 L 86.0625 85.320312 L 125.140625 96.242188 Z M 118.796875 118.925781 " clip-rule="nonzero"/></clipPath><clipPath id="1dfb815b1d"><path d="M 99.292969 113.476562 C 110.066406 116.488281 120.21875 113.847656 121.96875 107.585938 C 123.71875 101.320312 116.40625 93.800781 105.632812 90.789062 C 94.859375 87.78125 84.707031 90.417969 82.957031 96.679688 C 81.207031 102.945312 88.519531 110.464844 99.292969 113.476562 Z M 99.292969 113.476562 " clip-rule="nonzero"/></clipPath><clipPath id="2b9b199b83"><path d="M 0 0 L 41 0 L 41 26 L 0 26 Z M 0 0 " clip-rule="nonzero"/></clipPath><clipPath id="f94895c340"><path d="M 36.796875 29.925781 L -2.28125 19.003906 L 4.0625 -3.679688 L 43.140625 7.242188 Z M 36.796875 29.925781 " clip-rule="nonzero"/></clipPath><clipPath id="55f60ed368"><path d="M 17.292969 24.476562 C 28.066406 27.488281 38.21875 24.847656 39.96875 18.585938 C 41.71875 12.320312 34.40625 4.800781 23.632812 1.789062 C 12.859375 -1.21875 2.707031 1.417969 0.957031 7.679688 C -0.792969 13.945312 6.519531 21.464844 17.292969 24.476562 Z M 17.292969 24.476562 " clip-rule="nonzero"/></clipPath><clipPath id="79ccc63991"><rect x="0" width="41" y="0" height="26"/></clipPath><clipPath id="1b2afcb6dd"><path d="M 235 89 L 275 89 L 275 115 L 235 115 Z M 235 89 " clip-rule="nonzero"/></clipPath><clipPath id="a3b8895e0a"><path d="M 277.792969 107.742188 L 238.792969 118.949219 L 232.289062 96.3125 L 271.285156 85.105469 Z M 277.792969 107.742188 " clip-rule="nonzero"/></clipPath><clipPath id="5b9372a604"><path d="M 258.328125 113.335938 C 269.078125 110.246094 276.335938 102.675781 274.539062 96.425781 C 272.742188 90.171875 262.570312 87.609375 251.820312 90.699219 C 241.070312 93.789062 233.8125 101.359375 235.609375 107.613281 C 237.40625 113.863281 247.574219 116.425781 258.328125 113.335938 Z M 258.328125 113.335938 " clip-rule="nonzero"/></clipPath><clipPath id="2e811490e7"><path d="M 0 0 L 40 0 L 40 26 L 0 26 Z M 0 0 " clip-rule="nonzero"/></clipPath><clipPath id="579622ffa5"><path d="M 42.792969 18.742188 L 3.792969 29.949219 L -2.710938 7.3125 L 36.285156 -3.894531 Z M 42.792969 18.742188 " clip-rule="nonzero"/></clipPath><clipPath id="b437e8af08"><path d="M 23.328125 24.335938 C 34.078125 21.246094 41.335938 13.675781 39.539062 7.425781 C 37.742188 1.171875 27.570312 -1.390625 16.820312 1.699219 C 6.070312 4.789062 -1.1875 12.359375 0.609375 18.613281 C 2.40625 24.863281 12.574219 27.425781 23.328125 24.335938 Z M 23.328125 24.335938 " clip-rule="nonzero"/></clipPath><clipPath id="df6d7bb872"><rect x="0" width="40" y="0" height="26"/></clipPath><clipPath id="795d018797"><path d="M 102.492188 0.238281 L 255.105469 0.238281 L 255.105469 152.851562 L 102.492188 152.851562 Z M 102.492188 0.238281 " clip-rule="nonzero"/></clipPath><clipPath id="65f4b50122"><path d="M 178.800781 0.238281 C 136.65625 0.238281 102.492188 34.402344 102.492188 76.546875 C 102.492188 118.6875 136.65625 152.851562 178.800781 152.851562 C 220.945312 152.851562 255.105469 118.6875 255.105469 76.546875 C 255.105469 34.402344 220.945312 0.238281 178.800781 0.238281 Z M 178.800781 0.238281 " clip-rule="nonzero"/></clipPath><clipPath id="c4b2e5114a"><path d="M 0.492188 0.238281 L 153.105469 0.238281 L 153.105469 152.851562 L 0.492188 152.851562 Z M 0.492188 0.238281 " clip-rule="nonzero"/></clipPath><clipPath id="1417e33039"><path d="M 76.800781 0.238281 C 34.65625 0.238281 0.492188 34.402344 0.492188 76.546875 C 0.492188 118.6875 34.65625 152.851562 76.800781 152.851562 C 118.945312 152.851562 153.105469 118.6875 153.105469 76.546875 C 153.105469 34.402344 118.945312 0.238281 76.800781 0.238281 Z M 76.800781 0.238281 " clip-rule="nonzero"/></clipPath><clipPath id="677fad4f59"><rect x="0" width="154" y="0" height="153"/></clipPath><clipPath id="8fcd973e76"><path d="M 102.117188 121.042969 L 255 121.042969 L 255 152.847656 L 102.117188 152.847656 Z M 102.117188 121.042969 " clip-rule="nonzero"/></clipPath><clipPath id="8239ac9a65"><path d="M 102.117188 121.042969 L 255.128906 121.042969 L 255.128906 152.847656 L 102.117188 152.847656 Z M 102.117188 121.042969 " clip-rule="nonzero"/></clipPath><clipPath id="b98cfa251a"><path d="M 112 85 L 141.574219 85 L 141.574219 105.023438 L 112 105.023438 Z M 112 85 " clip-rule="nonzero"/></clipPath><clipPath id="770bedf8d0"><path d="M 217 85 L 246.96875 85 L 246.96875 105.023438 L 217 105.023438 Z M 217 85 " clip-rule="nonzero"/></clipPath><clipPath id="41b01da260"><path d="M 5 190 L 42 190 L 42 221 L 5 221 Z M 5 190 " clip-rule="nonzero"/></clipPath><clipPath id="cc84b15d23"><path d="M 32.871094 227.007812 L -0.0625 203.304688 L 13.695312 184.1875 L 46.628906 207.886719 Z M 32.871094 227.007812 " clip-rule="nonzero"/></clipPath><clipPath id="7e2d2cd1ff"><path d="M 16.433594 215.175781 C 25.511719 221.710938 35.953125 222.726562 39.75 217.449219 C 43.550781 212.167969 39.269531 202.589844 30.191406 196.058594 C 21.109375 189.523438 10.671875 188.507812 6.871094 193.789062 C 3.074219 199.066406 7.351562 208.644531 16.433594 215.175781 Z M 16.433594 215.175781 " clip-rule="nonzero"/></clipPath><clipPath id="b22fbfd3c0"><path d="M 0 0 L 37 0 L 37 31 L 0 31 Z M 0 0 " clip-rule="nonzero"/></clipPath><clipPath id="1d2f6cd5ed"><path d="M 27.871094 37.007812 L -5.0625 13.304688 L 8.695312 -5.8125 L 41.628906 17.886719 Z M 27.871094 37.007812 " clip-rule="nonzero"/></clipPath><clipPath id="db6f5e9f76"><path d="M 11.433594 25.175781 C 20.511719 31.710938 30.953125 32.726562 34.75 27.449219 C 38.550781 22.167969 34.269531 12.589844 25.191406 6.058594 C 16.109375 -0.476562 5.671875 -1.492188 1.871094 3.789062 C -1.925781 9.066406 2.351562 18.644531 11.433594 25.175781 Z M 11.433594 25.175781 " clip-rule="nonzero"/></clipPath><clipPath id="f8b1c395c5"><rect x="0" width="37" y="0" height="31"/></clipPath><clipPath id="bdae45db6c"><path d="M 146 246 L 187 246 L 187 270 L 146 270 Z M 146 246 " clip-rule="nonzero"/></clipPath><clipPath id="1161003081"><path d="M 186.007812 271.203125 L 145.535156 268.308594 L 147.214844 244.816406 L 187.6875 247.710938 Z M 186.007812 271.203125 " clip-rule="nonzero"/></clipPath><clipPath id="284642a3d6"><path d="M 165.804688 269.761719 C 176.960938 270.558594 186.382812 265.945312 186.847656 259.457031 C 187.3125 252.96875 178.644531 247.0625 167.484375 246.265625 C 156.328125 245.46875 146.90625 250.082031 146.445312 256.566406 C 145.980469 263.054688 154.648438 268.960938 165.804688 269.761719 Z M 165.804688 269.761719 " clip-rule="nonzero"/></clipPath><clipPath id="322827ea5b"><path d="M 0 0 L 41 0 L 41 24 L 0 24 Z M 0 0 " clip-rule="nonzero"/></clipPath><clipPath id="95a1f83c10"><path d="M 40.007812 25.203125 L -0.464844 22.308594 L 1.214844 -1.183594 L 41.6875 1.710938 Z M 40.007812 25.203125 " clip-rule="nonzero"/></clipPath><clipPath id="71474feafa"><path d="M 19.804688 23.761719 C 30.960938 24.558594 40.382812 19.945312 40.847656 13.457031 C 41.3125 6.96875 32.644531 1.0625 21.484375 0.265625 C 10.328125 -0.53125 0.90625 4.082031 0.445312 10.566406 C -0.0195312 17.054688 8.648438 22.960938 19.804688 23.761719 Z M 19.804688 23.761719 " clip-rule="nonzero"/></clipPath><clipPath id="8a93c1f180"><rect x="0" width="41" y="0" height="24"/></clipPath><clipPath id="e9dd1ed887"><path d="M 27 131 L 181 131 L 181 285 L 27 285 Z M 27 131 " clip-rule="nonzero"/></clipPath><clipPath id="ead96ca8fd"><path d="M 58.394531 109.953125 L 201.691406 162.457031 L 149.1875 305.753906 L 5.890625 253.25 Z M 58.394531 109.953125 " clip-rule="nonzero"/></clipPath><clipPath id="bbd2dc7669"><path d="M 130.042969 136.207031 C 90.472656 121.707031 46.640625 142.03125 32.144531 181.601562 C 17.644531 221.171875 37.96875 265.003906 77.539062 279.503906 C 117.109375 294 160.941406 273.675781 175.441406 234.105469 C 189.941406 194.535156 169.613281 150.703125 130.042969 136.207031 Z M 130.042969 136.207031 " clip-rule="nonzero"/></clipPath><clipPath id="8b12da33dd"><path d="M 0 0 L 154 0 L 154 154 L 0 154 Z M 0 0 " clip-rule="nonzero"/></clipPath><clipPath id="69435a878f"><path d="M 31.394531 -21.046875 L 174.691406 31.457031 L 122.1875 174.753906 L -21.109375 122.25 Z M 31.394531 -21.046875 " clip-rule="nonzero"/></clipPath><clipPath id="b9c15edf38"><path d="M 103.042969 5.207031 C 63.472656 -9.292969 19.640625 11.03125 5.144531 50.601562 C -9.355469 90.171875 10.96875 134.003906 50.539062 148.503906 C 90.109375 163 133.941406 142.675781 148.441406 103.105469 C 162.941406 63.535156 142.613281 19.703125 103.042969 5.207031 Z M 103.042969 5.207031 " clip-rule="nonzero"/></clipPath><clipPath id="f38b63649f"><rect x="0" width="154" y="0" height="154"/></clipPath><clipPath id="28953ebba1"><path d="M 27 223 L 161 223 L 161 284 L 27 284 Z M 27 223 " clip-rule="nonzero"/></clipPath><clipPath id="c782fffc9b"><path d="M 149.210938 305.753906 L 5.539062 253.113281 L 16.484375 223.25 L 160.152344 275.890625 Z M 149.210938 305.753906 " clip-rule="nonzero"/></clipPath><clipPath id="1e3e3b2a0a"><path d="M 149.210938 305.753906 L 5.539062 253.113281 L 29.789062 186.929688 L 173.460938 239.570312 Z M 149.210938 305.753906 " clip-rule="nonzero"/></clipPath><clipPath id="a5148e3bba"><path d="M 20 223 L 161 223 L 161 292 L 20 292 Z M 20 223 " clip-rule="nonzero"/></clipPath><clipPath id="99e2dd7835"><path d="M 149.210938 305.753906 L 5.539062 253.113281 L 16.484375 223.25 L 160.152344 275.890625 Z M 149.210938 305.753906 " clip-rule="nonzero"/></clipPath><clipPath id="5cc6f4bf95"><path d="M 149.210938 305.753906 L 5.539062 253.113281 L 29.789062 186.929688 L 173.460938 239.570312 Z M 149.210938 305.753906 " clip-rule="nonzero"/></clipPath><clipPath id="1a48f3c25b"><path d="M 33 199 L 60 199 L 60 220 L 33 220 Z M 33 199 " clip-rule="nonzero"/></clipPath><clipPath id="095190f1eb"><path d="M 29.988281 211.140625 L 38.5625 187.730469 L 67.621094 198.378906 L 59.042969 221.785156 Z M 29.988281 211.140625 " clip-rule="nonzero"/></clipPath><clipPath id="f94d5fb9c1"><path d="M 29.988281 211.140625 L 38.5625 187.730469 L 67.621094 198.378906 L 59.042969 221.785156 Z M 29.988281 211.140625 " clip-rule="nonzero"/></clipPath><clipPath id="ff92846877"><path d="M 29.988281 211.140625 L 38.5625 187.730469 L 67.621094 198.378906 L 59.042969 221.785156 Z M 29.988281 211.140625 " clip-rule="nonzero"/></clipPath><clipPath id="03fa5ba700"><path d="M 31 197 L 62 197 L 62 222 L 31 222 Z M 31 197 " clip-rule="nonzero"/></clipPath><clipPath id="2d0d139a27"><path d="M 29.988281 211.140625 L 38.5625 187.730469 L 67.621094 198.378906 L 59.042969 221.785156 Z M 29.988281 211.140625 " clip-rule="nonzero"/></clipPath><clipPath id="966d18115e"><path d="M 29.988281 211.140625 L 38.5625 187.730469 L 67.621094 198.378906 L 59.042969 221.785156 Z M 29.988281 211.140625 " clip-rule="nonzero"/></clipPath><clipPath id="42a31b5507"><path d="M 29.988281 211.140625 L 38.5625 187.730469 L 67.621094 198.378906 L 59.042969 221.785156 Z M 29.988281 211.140625 " clip-rule="nonzero"/></clipPath><clipPath id="5b2b05fda1"><path d="M 33 204 L 58 204 L 58 220 L 33 220 Z M 33 204 " clip-rule="nonzero"/></clipPath><clipPath id="a456cb4658"><path d="M 29.988281 211.140625 L 38.5625 187.730469 L 67.621094 198.378906 L 59.042969 221.785156 Z M 29.988281 211.140625 " clip-rule="nonzero"/></clipPath><clipPath id="d10e0e24e1"><path d="M 29.988281 211.140625 L 38.5625 187.730469 L 67.621094 198.378906 L 59.042969 221.785156 Z M 29.988281 211.140625 " clip-rule="nonzero"/></clipPath><clipPath id="a785a9f561"><path d="M 29.988281 211.140625 L 38.5625 187.730469 L 67.621094 198.378906 L 59.042969 221.785156 Z M 29.988281 211.140625 " clip-rule="nonzero"/></clipPath><clipPath id="2d1c890338"><path d="M 33 205 L 58 205 L 58 220 L 33 220 Z M 33 205 " clip-rule="nonzero"/></clipPath><clipPath id="d3525e404c"><path d="M 29.988281 211.140625 L 38.5625 187.730469 L 67.621094 198.378906 L 59.042969 221.785156 Z M 29.988281 211.140625 " clip-rule="nonzero"/></clipPath><clipPath id="65e33322b2"><path d="M 29.988281 211.140625 L 38.5625 187.730469 L 67.621094 198.378906 L 59.042969 221.785156 Z M 29.988281 211.140625 " clip-rule="nonzero"/></clipPath><clipPath id="354eea6ef7"><path d="M 29.988281 211.140625 L 38.5625 187.730469 L 67.621094 198.378906 L 59.042969 221.785156 Z M 29.988281 211.140625 " clip-rule="nonzero"/></clipPath><clipPath id="71dcd1d781"><path d="M 33 199 L 60 199 L 60 220 L 33 220 Z M 33 199 " clip-rule="nonzero"/></clipPath><clipPath id="53c67d2371"><path d="M 29.988281 211.140625 L 38.5625 187.730469 L 67.621094 198.378906 L 59.042969 221.785156 Z M 29.988281 211.140625 " clip-rule="nonzero"/></clipPath><clipPath id="326ade325e"><path d="M 29.988281 211.140625 L 38.5625 187.730469 L 67.621094 198.378906 L 59.042969 221.785156 Z M 29.988281 211.140625 " clip-rule="nonzero"/></clipPath><clipPath id="73719c6db9"><path d="M 29.988281 211.140625 L 38.5625 187.730469 L 67.621094 198.378906 L 59.042969 221.785156 Z M 29.988281 211.140625 " clip-rule="nonzero"/></clipPath><clipPath id="f19a896747"><path d="M 132 235 L 159 235 L 159 256 L 132 256 Z M 132 235 " clip-rule="nonzero"/></clipPath><clipPath id="d32b07c9e6"><path d="M 128.945312 247.398438 L 137.523438 223.992188 L 166.578125 234.636719 L 158.003906 258.042969 Z M 128.945312 247.398438 " clip-rule="nonzero"/></clipPath><clipPath id="09fc6e639b"><path d="M 128.945312 247.398438 L 137.523438 223.992188 L 166.578125 234.636719 L 158.003906 258.042969 Z M 128.945312 247.398438 " clip-rule="nonzero"/></clipPath><clipPath id="d5bf6578ab"><path d="M 128.945312 247.398438 L 137.523438 223.992188 L 166.578125 234.636719 L 158.003906 258.042969 Z M 128.945312 247.398438 " clip-rule="nonzero"/></clipPath><clipPath id="55d013e96d"><path d="M 130 233 L 161 233 L 161 258 L 130 258 Z M 130 233 " clip-rule="nonzero"/></clipPath><clipPath id="dfd5f83571"><path d="M 128.945312 247.398438 L 137.523438 223.992188 L 166.578125 234.636719 L 158.003906 258.042969 Z M 128.945312 247.398438 " clip-rule="nonzero"/></clipPath><clipPath id="d86d398408"><path d="M 128.945312 247.398438 L 137.523438 223.992188 L 166.578125 234.636719 L 158.003906 258.042969 Z M 128.945312 247.398438 " clip-rule="nonzero"/></clipPath><clipPath id="a45027dc00"><path d="M 128.945312 247.398438 L 137.523438 223.992188 L 166.578125 234.636719 L 158.003906 258.042969 Z M 128.945312 247.398438 " clip-rule="nonzero"/></clipPath><clipPath id="991ab3be04"><path d="M 132 240 L 157 240 L 157 256 L 132 256 Z M 132 240 " clip-rule="nonzero"/></clipPath><clipPath id="06dc9f32bd"><path d="M 128.945312 247.398438 L 137.523438 223.992188 L 166.578125 234.636719 L 158.003906 258.042969 Z M 128.945312 247.398438 " clip-rule="nonzero"/></clipPath><clipPath id="61b9ff3da7"><path d="M 128.945312 247.398438 L 137.523438 223.992188 L 166.578125 234.636719 L 158.003906 258.042969 Z M 128.945312 247.398438 " clip-rule="nonzero"/></clipPath><clipPath id="c3ce6511e7"><path d="M 128.945312 247.398438 L 137.523438 223.992188 L 166.578125 234.636719 L 158.003906 258.042969 Z M 128.945312 247.398438 " clip-rule="nonzero"/></clipPath><clipPath id="07bc616a5e"><path d="M 132 241 L 157 241 L 157 256 L 132 256 Z M 132 241 " clip-rule="nonzero"/></clipPath><clipPath id="30662b53b9"><path d="M 128.945312 247.398438 L 137.523438 223.992188 L 166.578125 234.636719 L 158.003906 258.042969 Z M 128.945312 247.398438 " clip-rule="nonzero"/></clipPath><clipPath id="e988e1da06"><path d="M 128.945312 247.398438 L 137.523438 223.992188 L 166.578125 234.636719 L 158.003906 258.042969 Z M 128.945312 247.398438 " clip-rule="nonzero"/></clipPath><clipPath id="eb414c0ae3"><path d="M 128.945312 247.398438 L 137.523438 223.992188 L 166.578125 234.636719 L 158.003906 258.042969 Z M 128.945312 247.398438 " clip-rule="nonzero"/></clipPath><clipPath id="54141383c1"><path d="M 132 242 L 157 242 L 157 256 L 132 256 Z M 132 242 " clip-rule="nonzero"/></clipPath><clipPath id="9ec1cc997b"><path d="M 128.945312 247.398438 L 137.523438 223.992188 L 166.578125 234.636719 L 158.003906 258.042969 Z M 128.945312 247.398438 " clip-rule="nonzero"/></clipPath><clipPath id="45ab246053"><path d="M 128.945312 247.398438 L 137.523438 223.992188 L 166.578125 234.636719 L 158.003906 258.042969 Z M 128.945312 247.398438 " clip-rule="nonzero"/></clipPath><clipPath id="5846f57dcd"><path d="M 128.945312 247.398438 L 137.523438 223.992188 L 166.578125 234.636719 L 158.003906 258.042969 Z M 128.945312 247.398438 " clip-rule="nonzero"/></clipPath><clipPath id="3d04dff863"><path d="M 132 236 L 159 236 L 159 256 L 132 256 Z M 132 236 " clip-rule="nonzero"/></clipPath><clipPath id="063624ff75"><path d="M 128.945312 247.398438 L 137.523438 223.992188 L 166.578125 234.636719 L 158.003906 258.042969 Z M 128.945312 247.398438 " clip-rule="nonzero"/></clipPath><clipPath id="659ac81f51"><path d="M 128.945312 247.398438 L 137.523438 223.992188 L 166.578125 234.636719 L 158.003906 258.042969 Z M 128.945312 247.398438 " clip-rule="nonzero"/></clipPath><clipPath id="cf4880634e"><path d="M 128.945312 247.398438 L 137.523438 223.992188 L 166.578125 234.636719 L 158.003906 258.042969 Z M 128.945312 247.398438 " clip-rule="nonzero"/></clipPath><clipPath id="eb23ee80ba"><path d="M 173 244 L 214 244 L 214 269 L 173 269 Z M 173 244 " clip-rule="nonzero"/></clipPath><clipPath id="68a465b277"><path d="M 214.859375 266.433594 L 174.425781 269.8125 L 172.460938 246.339844 L 212.898438 242.960938 Z M 214.859375 266.433594 " clip-rule="nonzero"/></clipPath><clipPath id="0f203f2911"><path d="M 194.675781 268.121094 C 205.824219 267.1875 214.421875 261.175781 213.878906 254.695312 C 213.335938 248.214844 203.859375 243.714844 192.714844 244.648438 C 181.566406 245.578125 172.972656 251.589844 173.511719 258.070312 C 174.054688 264.554688 183.53125 269.050781 194.675781 268.121094 Z M 194.675781 268.121094 " clip-rule="nonzero"/></clipPath><clipPath id="71cc5d332d"><path d="M 0 0 L 41 0 L 41 25 L 0 25 Z M 0 0 " clip-rule="nonzero"/></clipPath><clipPath id="a593f405e9"><path d="M 41.859375 22.433594 L 1.425781 25.8125 L -0.539062 2.339844 L 39.898438 -1.039062 Z M 41.859375 22.433594 " clip-rule="nonzero"/></clipPath><clipPath id="da0ca75b66"><path d="M 21.675781 24.121094 C 32.824219 23.1875 41.421875 17.175781 40.878906 10.695312 C 40.335938 4.214844 30.859375 -0.285156 19.714844 0.648438 C 8.566406 1.578125 -0.0273438 7.589844 0.511719 14.070312 C 1.054688 20.554688 10.53125 25.050781 21.675781 24.121094 Z M 21.675781 24.121094 " clip-rule="nonzero"/></clipPath><clipPath id="583bc4f5fa"><rect x="0" width="41" y="0" height="25"/></clipPath><clipPath id="e98eff676d"><path d="M 318 187 L 355 187 L 355 219 L 318 219 Z M 318 187 " clip-rule="nonzero"/></clipPath><clipPath id="4b169f0a20"><path d="M 359.988281 200.535156 L 327.339844 224.632812 L 313.351562 205.679688 L 346 181.585938 Z M 359.988281 200.535156 " clip-rule="nonzero"/></clipPath><clipPath id="ea7c121919"><path d="M 343.691406 212.5625 C 352.691406 205.921875 356.855469 196.292969 352.992188 191.0625 C 349.132812 185.828125 338.703125 186.96875 329.703125 193.613281 C 320.703125 200.253906 316.539062 209.882812 320.402344 215.113281 C 324.265625 220.347656 334.691406 219.207031 343.691406 212.5625 Z M 343.691406 212.5625 " clip-rule="nonzero"/></clipPath><clipPath id="14210b8e04"><path d="M 0 0 L 37 0 L 37 32 L 0 32 Z M 0 0 " clip-rule="nonzero"/></clipPath><clipPath id="98d07b787d"><path d="M 41.988281 13.535156 L 9.339844 37.632812 L -4.648438 18.679688 L 28 -5.414062 Z M 41.988281 13.535156 " clip-rule="nonzero"/></clipPath><clipPath id="8cb6f228a2"><path d="M 25.691406 25.5625 C 34.691406 18.921875 38.855469 9.292969 34.992188 4.0625 C 31.132812 -1.171875 20.703125 -0.03125 11.703125 6.613281 C 2.703125 13.253906 -1.460938 22.882812 2.402344 28.113281 C 6.265625 33.347656 16.691406 32.207031 25.691406 25.5625 Z M 25.691406 25.5625 " clip-rule="nonzero"/></clipPath><clipPath id="361c7fddfe"><rect x="0" width="37" y="0" height="32"/></clipPath><clipPath id="695bba1bd4"><path d="M 180 129 L 333 129 L 333 283 L 180 283 Z M 180 129 " clip-rule="nonzero"/></clipPath><clipPath id="9c3afb2059"><path d="M 158.210938 160.867188 L 301.257812 107.679688 L 354.445312 250.722656 L 211.402344 303.914062 Z M 158.210938 160.867188 " clip-rule="nonzero"/></clipPath><clipPath id="2404ec98df"><path d="M 229.734375 134.273438 C 190.234375 148.960938 170.117188 192.890625 184.804688 232.390625 C 199.492188 271.890625 243.421875 292.007812 282.921875 277.320312 C 322.421875 262.632812 342.539062 218.703125 327.851562 179.203125 C 313.164062 139.703125 269.234375 119.585938 229.734375 134.273438 Z M 229.734375 134.273438 " clip-rule="nonzero"/></clipPath><clipPath id="a9b635f224"><path d="M 0 0 L 153 0 L 153 154 L 0 154 Z M 0 0 " clip-rule="nonzero"/></clipPath><clipPath id="d7ba10b22c"><path d="M -21.789062 31.867188 L 121.257812 -21.320312 L 174.445312 121.722656 L 31.402344 174.914062 Z M -21.789062 31.867188 " clip-rule="nonzero"/></clipPath><clipPath id="f9a563bb2a"><path d="M 49.734375 5.273438 C 10.234375 19.960938 -9.882812 63.890625 4.804688 103.390625 C 19.492188 142.890625 63.421875 163.007812 102.921875 148.320312 C 142.421875 133.632812 162.539062 89.703125 147.851562 50.203125 C 133.164062 10.703125 89.234375 -9.414062 49.734375 5.273438 Z M 49.734375 5.273438 " clip-rule="nonzero"/></clipPath><clipPath id="604d62ff94"><rect x="0" width="153" y="0" height="154"/></clipPath><clipPath id="e9e7dbbe5e"><path d="M 199 220 L 333 220 L 333 282 L 199 282 Z M 199 220 " clip-rule="nonzero"/></clipPath><clipPath id="0abb44435b"><path d="M 354.464844 250.714844 L 211.046875 304.039062 L 199.960938 274.230469 L 343.378906 220.902344 Z M 354.464844 250.714844 " clip-rule="nonzero"/></clipPath><clipPath id="e8124c4892"><path d="M 354.464844 250.714844 L 211.046875 304.039062 L 186.480469 237.972656 L 329.898438 184.644531 Z M 354.464844 250.714844 " clip-rule="nonzero"/></clipPath><clipPath id="60ce77b736"><path d="M 199 220 L 340 220 L 340 290 L 199 290 Z M 199 220 " clip-rule="nonzero"/></clipPath><clipPath id="ed5fc8efc2"><path d="M 354.464844 250.714844 L 211.046875 304.039062 L 199.960938 274.230469 L 343.378906 220.902344 Z M 354.464844 250.714844 " clip-rule="nonzero"/></clipPath><clipPath id="1837323e0a"><path d="M 354.464844 250.714844 L 211.046875 304.039062 L 186.480469 237.972656 L 329.898438 184.644531 Z M 354.464844 250.714844 " clip-rule="nonzero"/></clipPath><clipPath id="2531ddaedb"><path d="M 203 233 L 229 233 L 229 255 L 203 255 Z M 203 233 " clip-rule="nonzero"/></clipPath><clipPath id="ef8f511d55"><path d="M 202.355469 256.246094 L 193.667969 232.882812 L 222.675781 222.097656 L 231.363281 245.460938 Z M 202.355469 256.246094 " clip-rule="nonzero"/></clipPath><clipPath id="5e19ce60fc"><path d="M 202.355469 256.246094 L 193.667969 232.882812 L 222.675781 222.097656 L 231.363281 245.460938 Z M 202.355469 256.246094 " clip-rule="nonzero"/></clipPath><clipPath id="6c3a542d57"><path d="M 202.355469 256.246094 L 193.667969 232.882812 L 222.675781 222.097656 L 231.363281 245.460938 Z M 202.355469 256.246094 " clip-rule="nonzero"/></clipPath><clipPath id="b94d36971f"><path d="M 201 230 L 232 230 L 232 257 L 201 257 Z M 201 230 " clip-rule="nonzero"/></clipPath><clipPath id="21389692bb"><path d="M 202.355469 256.246094 L 193.667969 232.882812 L 222.675781 222.097656 L 231.363281 245.460938 Z M 202.355469 256.246094 " clip-rule="nonzero"/></clipPath><clipPath id="29871f92e1"><path d="M 202.355469 256.246094 L 193.667969 232.882812 L 222.675781 222.097656 L 231.363281 245.460938 Z M 202.355469 256.246094 " clip-rule="nonzero"/></clipPath><clipPath id="d39079bed6"><path d="M 202.355469 256.246094 L 193.667969 232.882812 L 222.675781 222.097656 L 231.363281 245.460938 Z M 202.355469 256.246094 " clip-rule="nonzero"/></clipPath><clipPath id="a64ee7d47a"><path d="M 205 237 L 229 237 L 229 255 L 205 255 Z M 205 237 " clip-rule="nonzero"/></clipPath><clipPath id="ebf4ad3de8"><path d="M 202.355469 256.246094 L 193.667969 232.882812 L 222.675781 222.097656 L 231.363281 245.460938 Z M 202.355469 256.246094 " clip-rule="nonzero"/></clipPath><clipPath id="4315a2cb82"><path d="M 202.355469 256.246094 L 193.667969 232.882812 L 222.675781 222.097656 L 231.363281 245.460938 Z M 202.355469 256.246094 " clip-rule="nonzero"/></clipPath><clipPath id="e47cdd99f2"><path d="M 202.355469 256.246094 L 193.667969 232.882812 L 222.675781 222.097656 L 231.363281 245.460938 Z M 202.355469 256.246094 " clip-rule="nonzero"/></clipPath><clipPath id="b5b7824363"><path d="M 205 238 L 229 238 L 229 255 L 205 255 Z M 205 238 " clip-rule="nonzero"/></clipPath><clipPath id="b8f63a18e6"><path d="M 202.355469 256.246094 L 193.667969 232.882812 L 222.675781 222.097656 L 231.363281 245.460938 Z M 202.355469 256.246094 " clip-rule="nonzero"/></clipPath><clipPath id="904d914969"><path d="M 202.355469 256.246094 L 193.667969 232.882812 L 222.675781 222.097656 L 231.363281 245.460938 Z M 202.355469 256.246094 " clip-rule="nonzero"/></clipPath><clipPath id="c730999ae2"><path d="M 202.355469 256.246094 L 193.667969 232.882812 L 222.675781 222.097656 L 231.363281 245.460938 Z M 202.355469 256.246094 " clip-rule="nonzero"/></clipPath><clipPath id="af1be480ce"><path d="M 206 239 L 229 239 L 229 255 L 206 255 Z M 206 239 " clip-rule="nonzero"/></clipPath><clipPath id="e8fd34faf7"><path d="M 202.355469 256.246094 L 193.667969 232.882812 L 222.675781 222.097656 L 231.363281 245.460938 Z M 202.355469 256.246094 " clip-rule="nonzero"/></clipPath><clipPath id="f2f9a25fea"><path d="M 202.355469 256.246094 L 193.667969 232.882812 L 222.675781 222.097656 L 231.363281 245.460938 Z M 202.355469 256.246094 " clip-rule="nonzero"/></clipPath><clipPath id="9dcd0aada5"><path d="M 202.355469 256.246094 L 193.667969 232.882812 L 222.675781 222.097656 L 231.363281 245.460938 Z M 202.355469 256.246094 " clip-rule="nonzero"/></clipPath><clipPath id="2da62651ce"><path d="M 203 233 L 229 233 L 229 255 L 203 255 Z M 203 233 " clip-rule="nonzero"/></clipPath><clipPath id="54671aa214"><path d="M 202.355469 256.246094 L 193.667969 232.882812 L 222.675781 222.097656 L 231.363281 245.460938 Z M 202.355469 256.246094 " clip-rule="nonzero"/></clipPath><clipPath id="8cf042e89a"><path d="M 202.355469 256.246094 L 193.667969 232.882812 L 222.675781 222.097656 L 231.363281 245.460938 Z M 202.355469 256.246094 " clip-rule="nonzero"/></clipPath><clipPath id="971611fd86"><path d="M 202.355469 256.246094 L 193.667969 232.882812 L 222.675781 222.097656 L 231.363281 245.460938 Z M 202.355469 256.246094 " clip-rule="nonzero"/></clipPath><clipPath id="db1c2cb2f5"><path d="M 302 196 L 328 196 L 328 218 L 302 218 Z M 302 196 " clip-rule="nonzero"/></clipPath><clipPath id="aa011a5297"><path d="M 301.140625 219.515625 L 292.453125 196.148438 L 321.460938 185.363281 L 330.148438 208.730469 Z M 301.140625 219.515625 " clip-rule="nonzero"/></clipPath><clipPath id="4822ebf777"><path d="M 301.140625 219.515625 L 292.453125 196.148438 L 321.460938 185.363281 L 330.148438 208.730469 Z M 301.140625 219.515625 " clip-rule="nonzero"/></clipPath><clipPath id="8af4ef9c19"><path d="M 301.140625 219.515625 L 292.453125 196.148438 L 321.460938 185.363281 L 330.148438 208.730469 Z M 301.140625 219.515625 " clip-rule="nonzero"/></clipPath><clipPath id="ec42f5da23"><path d="M 300 194 L 330 194 L 330 220 L 300 220 Z M 300 194 " clip-rule="nonzero"/></clipPath><clipPath id="1524d99866"><path d="M 301.140625 219.515625 L 292.453125 196.148438 L 321.460938 185.363281 L 330.148438 208.730469 Z M 301.140625 219.515625 " clip-rule="nonzero"/></clipPath><clipPath id="4affc89568"><path d="M 301.140625 219.515625 L 292.453125 196.148438 L 321.460938 185.363281 L 330.148438 208.730469 Z M 301.140625 219.515625 " clip-rule="nonzero"/></clipPath><clipPath id="04cbc82904"><path d="M 301.140625 219.515625 L 292.453125 196.148438 L 321.460938 185.363281 L 330.148438 208.730469 Z M 301.140625 219.515625 " clip-rule="nonzero"/></clipPath><clipPath id="f90ec9a649"><path d="M 304 201 L 328 201 L 328 218 L 304 218 Z M 304 201 " clip-rule="nonzero"/></clipPath><clipPath id="ed968c7fc7"><path d="M 301.140625 219.515625 L 292.453125 196.148438 L 321.460938 185.363281 L 330.148438 208.730469 Z M 301.140625 219.515625 " clip-rule="nonzero"/></clipPath><clipPath id="5f82672e19"><path d="M 301.140625 219.515625 L 292.453125 196.148438 L 321.460938 185.363281 L 330.148438 208.730469 Z M 301.140625 219.515625 " clip-rule="nonzero"/></clipPath><clipPath id="21dc16ca59"><path d="M 301.140625 219.515625 L 292.453125 196.148438 L 321.460938 185.363281 L 330.148438 208.730469 Z M 301.140625 219.515625 " clip-rule="nonzero"/></clipPath><clipPath id="87e955bb35"><path d="M 304 202 L 328 202 L 328 218 L 304 218 Z M 304 202 " clip-rule="nonzero"/></clipPath><clipPath id="64db202d0c"><path d="M 301.140625 219.515625 L 292.453125 196.148438 L 321.460938 185.363281 L 330.148438 208.730469 Z M 301.140625 219.515625 " clip-rule="nonzero"/></clipPath><clipPath id="c84aac46bb"><path d="M 301.140625 219.515625 L 292.453125 196.148438 L 321.460938 185.363281 L 330.148438 208.730469 Z M 301.140625 219.515625 " clip-rule="nonzero"/></clipPath><clipPath id="c8104935fc"><path d="M 301.140625 219.515625 L 292.453125 196.148438 L 321.460938 185.363281 L 330.148438 208.730469 Z M 301.140625 219.515625 " clip-rule="nonzero"/></clipPath><clipPath id="d778ea54f1"><path d="M 302 196 L 328 196 L 328 218 L 302 218 Z M 302 196 " clip-rule="nonzero"/></clipPath><clipPath id="6cc00b9f4f"><path d="M 301.140625 219.515625 L 292.453125 196.148438 L 321.460938 185.363281 L 330.148438 208.730469 Z M 301.140625 219.515625 " clip-rule="nonzero"/></clipPath><clipPath id="f4bd07cc7f"><path d="M 301.140625 219.515625 L 292.453125 196.148438 L 321.460938 185.363281 L 330.148438 208.730469 Z M 301.140625 219.515625 " clip-rule="nonzero"/></clipPath><clipPath id="52ebded36c"><path d="M 301.140625 219.515625 L 292.453125 196.148438 L 321.460938 185.363281 L 330.148438 208.730469 Z M 301.140625 219.515625 " clip-rule="nonzero"/></clipPath><clipPath id="a259f60803"><rect x="0" width="360" y="0" height="309"/></clipPath></defs><g transform="matrix(1, 0, 0, 1, 0, 27)"><g clip-path="url(#a259f60803)"><g clip-path="url(#ec250bcd70)"><g clip-path="url(#d9ddb5ef91)"><g clip-path="url(#1dfb815b1d)"><g transform="matrix(1, 0, 0, 1, 82, 89)"><g clip-path="url(#79ccc63991)"><g clip-path="url(#2b9b199b83)"><g clip-path="url(#f94895c340)"><g clip-path="url(#55f60ed368)"><path fill="#9f79ed" d="M 36.796875 29.925781 L -2.191406 19.03125 L 4.148438 -3.65625 L 43.140625 7.242188 Z M 36.796875 29.925781 " fill-opacity="1" fill-rule="nonzero"/></g></g></g></g></g></g></g></g><g clip-path="url(#1b2afcb6dd)"><g clip-path="url(#a3b8895e0a)"><g clip-path="url(#5b9372a604)"><g transform="matrix(1, 0, 0, 1, 235, 89)"><g clip-path="url(#df6d7bb872)"><g clip-path="url(#2e811490e7)"><g clip-path="url(#579622ffa5)"><g clip-path="url(#b437e8af08)"><path fill="#9f79ed" d="M 42.792969 18.742188 L 3.882812 29.925781 L -2.621094 7.285156 L 36.285156 -3.894531 Z M 42.792969 18.742188 " fill-opacity="1" fill-rule="nonzero"/></g></g></g></g></g></g></g></g><g clip-path="url(#795d018797)"><g clip-path="url(#65f4b50122)"><g transform="matrix(1, 0, 0, 1, 102, 0)"><g clip-path="url(#677fad4f59)"><g clip-path="url(#c4b2e5114a)"><g clip-path="url(#1417e33039)"><path fill="#b28cff" d="M 0.492188 0.238281 L 153.105469 0.238281 L 153.105469 152.851562 L 0.492188 152.851562 Z M 0.492188 0.238281 " fill-opacity="1" fill-rule="nonzero"/></g></g></g></g></g></g><g clip-path="url(#8fcd973e76)"><path fill="#fffbf0" d="M 254.746094 82.523438 C 251.65625 121.699219 218.761719 152.589844 178.8125 152.589844 C 138.859375 152.589844 106.015625 121.699219 102.925781 82.523438 Z M 254.230469 82.523438 C 251.144531 121.390625 218.503906 152.074219 178.8125 152.074219 C 139.117188 152.074219 106.53125 121.390625 103.390625 82.523438 Z M 254.230469 82.523438 " fill-opacity="1" fill-rule="nonzero"/><path fill="#fffbf0" d="M 254.230469 82.523438 L 254.746094 82.523438 C 251.65625 121.699219 218.761719 152.589844 178.8125 152.589844 C 138.859375 152.589844 106.015625 121.699219 102.925781 82.523438 L 254.746094 82.523438 C 251.65625 121.699219 218.761719 152.589844 178.8125 152.589844 C 138.859375 152.589844 106.015625 121.699219 102.925781 82.523438 Z M 254.230469 82.523438 " fill-opacity="1" fill-rule="nonzero"/></g><g clip-path="url(#8239ac9a65)"><path stroke-linecap="butt" transform="matrix(-0.514821, 0, 0, -0.514821, 311.119876, 228.26787)" fill="none" stroke-linejoin="miter" d="M 110.503321 283.09741 L 109.501759 283.09741 C 115.503544 207.001452 179.398654 146.998777 256.996955 146.998777 C 334.602844 146.998777 398.399315 207.001452 404.4011 283.09741 L 109.501759 283.09741 C 115.503544 207.001452 179.398654 146.998777 256.996955 146.998777 C 334.602844 146.998777 398.399315 207.001452 404.4011 283.09741 Z M 110.503321 283.09741 " stroke="#fef8fb" stroke-width="1" stroke-opacity="1" stroke-miterlimit="10"/></g><path fill="#000000" d="M 114.605469 104.804688 C 110.628906 83.605469 141.570312 80.382812 139.582031 103.316406 C 137.839844 98.359375 123.179688 90.175781 114.605469 104.804688 Z M 114.605469 104.804688 " fill-opacity="1" fill-rule="evenodd"/><g clip-path="url(#b98cfa251a)"><path stroke-linecap="butt" transform="matrix(0, -0.300675, 0.301323, 0, 111.684579, 112.98891)" fill="none" stroke-linejoin="miter" d="M 27.21946 9.693539 C 97.72479 -3.503453 108.442848 99.18159 32.169254 92.583094 C 48.655575 86.801308 75.872945 38.148743 27.21946 9.693539 Z M 27.21946 9.693539 " stroke="#000000" stroke-width="1.25" stroke-opacity="1" stroke-miterlimit="4"/></g><path fill="#000000" d="M 114.550781 104.675781 C 116.289062 89.425781 135.425781 87.566406 139.523438 103.1875 C 137.785156 98.226562 123.125 90.042969 114.550781 104.675781 Z M 114.550781 104.675781 " fill-opacity="0.05" fill-rule="evenodd"/><path fill="#000000" d="M 114.417969 104.535156 C 117.277344 90.402344 134.671875 88.914062 139.394531 103.046875 C 137.65625 98.089844 122.992188 89.90625 114.417969 104.535156 Z M 114.417969 104.535156 " fill-opacity="0.05" fill-rule="evenodd"/><path fill="#000000" d="M 114.667969 104.789062 C 118.644531 91.894531 133.183594 89.789062 139.644531 103.300781 C 137.902344 98.34375 123.242188 90.160156 114.667969 104.789062 Z M 114.667969 104.789062 " fill-opacity="0.05" fill-rule="evenodd"/><path fill="#000000" d="M 114.800781 104.796875 C 111.070312 83.96875 141.140625 80.992188 139.523438 103.3125 C 140.644531 87.566406 115.421875 80.125 114.800781 104.796875 Z M 114.800781 104.796875 " fill-opacity="0.5" fill-rule="evenodd"/><path fill="#000000" d="M 220 104.804688 C 216.023438 83.605469 246.960938 80.382812 244.972656 103.316406 C 243.234375 98.359375 228.570312 90.175781 220 104.804688 Z M 220 104.804688 " fill-opacity="1" fill-rule="evenodd"/><g clip-path="url(#770bedf8d0)"><path stroke-linecap="butt" transform="matrix(0, -0.300675, 0.301323, 0, 217.077162, 112.98891)" fill="none" stroke-linejoin="miter" d="M 27.21946 9.700002 C 97.72479 -3.49699 108.442848 99.17509 32.169254 92.576594 C 48.655575 86.807771 75.872945 38.142242 27.21946 9.700002 Z M 27.21946 9.700002 " stroke="#000000" stroke-width="1.25" stroke-opacity="1" stroke-miterlimit="4"/></g><path fill="#000000" d="M 219.941406 104.675781 C 221.683594 89.425781 240.816406 87.566406 244.917969 103.1875 C 243.179688 98.226562 228.515625 90.042969 219.941406 104.675781 Z M 219.941406 104.675781 " fill-opacity="0.05" fill-rule="evenodd"/><path fill="#000000" d="M 219.8125 104.535156 C 222.671875 90.402344 240.066406 88.914062 244.785156 103.046875 C 243.046875 98.089844 228.386719 89.90625 219.8125 104.535156 Z M 219.8125 104.535156 " fill-opacity="0.05" fill-rule="evenodd"/><path fill="#000000" d="M 220.0625 104.789062 C 224.035156 91.894531 238.574219 89.789062 245.035156 103.300781 C 243.296875 98.34375 228.632812 90.160156 220.0625 104.789062 Z M 220.0625 104.789062 " fill-opacity="0.05" fill-rule="evenodd"/><path fill="#000000" d="M 220.191406 104.796875 C 216.464844 83.96875 246.53125 80.992188 244.917969 103.3125 C 246.035156 87.566406 220.8125 80.125 220.191406 104.796875 Z M 220.191406 104.796875 " fill-opacity="0.5" fill-rule="evenodd"/><g clip-path="url(#41b01da260)"><g clip-path="url(#cc84b15d23)"><g clip-path="url(#7e2d2cd1ff)"><g transform="matrix(1, 0, 0, 1, 5, 190)"><g clip-path="url(#f8b1c395c5)"><g clip-path="url(#b22fbfd3c0)"><g clip-path="url(#1d2f6cd5ed)"><g clip-path="url(#db6f5e9f76)"><path fill="#6dc448" d="M 27.871094 37.007812 L -4.988281 13.359375 L 8.769531 -5.757812 L 41.628906 17.886719 Z M 27.871094 37.007812 " fill-opacity="1" fill-rule="nonzero"/></g></g></g></g></g></g></g></g><g clip-path="url(#bdae45db6c)"><g clip-path="url(#1161003081)"><g clip-path="url(#284642a3d6)"><g transform="matrix(1, 0, 0, 1, 146, 246)"><g clip-path="url(#8a93c1f180)"><g clip-path="url(#322827ea5b)"><g clip-path="url(#95a1f83c10)"><g clip-path="url(#71474feafa)"><path fill="#6dc448" d="M 40.007812 25.203125 L -0.375 22.316406 L 1.304688 -1.175781 L 41.6875 1.710938 Z M 40.007812 25.203125 " fill-opacity="1" fill-rule="nonzero"/></g></g></g></g></g></g></g></g><g clip-path="url(#e9dd1ed887)"><g clip-path="url(#ead96ca8fd)"><g clip-path="url(#bbd2dc7669)"><g transform="matrix(1, 0, 0, 1, 27, 131)"><g clip-path="url(#f38b63649f)"><g clip-path="url(#8b12da33dd)"><g clip-path="url(#69435a878f)"><g clip-path="url(#b9c15edf38)"><path fill="#7ed957" d="M 31.394531 -21.046875 L 174.691406 31.457031 L 122.1875 174.753906 L -21.109375 122.25 Z M 31.394531 -21.046875 " fill-opacity="1" fill-rule="nonzero"/></g></g></g></g></g></g></g></g><g clip-path="url(#28953ebba1)"><g clip-path="url(#c782fffc9b)"><g clip-path="url(#1e3e3b2a0a)"><path fill="#fffbf0" d="M 173.046875 239.59375 C 156.667969 275.316406 115.152344 293.003906 77.640625 279.257812 C 40.128906 265.515625 19.914062 225.210938 30.492188 187.363281 Z M 172.5625 239.414062 C 156.289062 274.847656 115.085938 292.429688 77.816406 278.773438 C 40.546875 265.121094 20.503906 225.097656 30.929688 187.519531 Z M 172.5625 239.414062 " fill-opacity="1" fill-rule="nonzero"/><path fill="#fffbf0" d="M 172.5625 239.414062 L 173.046875 239.59375 C 156.667969 275.316406 115.152344 293.003906 77.640625 279.257812 C 40.128906 265.515625 19.914062 225.210938 30.492188 187.363281 L 30.734375 187.449219 L 30.976562 187.539062 L 172.5625 239.414062 L 173.046875 239.59375 C 156.667969 275.316406 115.152344 293.003906 77.640625 279.257812 C 40.128906 265.515625 19.914062 225.210938 30.492188 187.363281 L 30.734375 187.449219 L 30.976562 187.539062 Z M 172.5625 239.414062 " fill-opacity="1" fill-rule="nonzero"/></g></g></g><g clip-path="url(#a5148e3bba)"><g clip-path="url(#99e2dd7835)"><g clip-path="url(#5cc6f4bf95)"><path stroke-linecap="butt" transform="matrix(-0.483395, -0.177116, 0.177116, -0.483395, 175.836965, 395.836227)" fill="none" stroke-linejoin="miter" d="M 110.503003 283.10265 L 109.499497 283.098616 C 115.500129 207.000397 179.398607 146.997736 257.000405 147.000947 C 334.599592 146.997034 398.402531 206.998016 404.401719 283.095483 L 403.902576 283.10059 L 403.400823 283.098573 L 110.503003 283.10265 L 109.499497 283.098616 C 115.500129 207.000397 179.398607 146.997736 257.000405 147.000947 C 334.599592 146.997034 398.402531 206.998016 404.401719 283.095483 L 403.902576 283.10059 L 403.400823 283.098573 Z M 110.503003 283.10265 " stroke="#fef8fb" stroke-width="1" stroke-opacity="1" stroke-miterlimit="10"/></g></g></g><g clip-path="url(#1a48f3c25b)"><g clip-path="url(#095190f1eb)"><g clip-path="url(#f94d5fb9c1)"><g clip-path="url(#ff92846877)"><path fill="#000000" d="M 33.792969 212.304688 C 37.355469 191.027344 67.515625 198.644531 57.757812 219.5 C 57.828125 214.242188 46.878906 201.515625 33.792969 212.304688 Z M 33.792969 212.304688 " fill-opacity="1" fill-rule="evenodd"/></g></g></g></g><g clip-path="url(#03fa5ba700)"><g clip-path="url(#2d0d139a27)"><g clip-path="url(#966d18115e)"><g clip-path="url(#42a31b5507)"><path stroke-linecap="butt" transform="matrix(0.103443, -0.282321, 0.28293, 0.103666, 28.236016, 218.981993)" fill="none" stroke-linejoin="miter" d="M 27.210362 9.692291 C 97.732032 -3.499888 108.454336 99.179373 32.16139 92.584603 C 48.661073 86.800618 75.87574 38.151145 27.210362 9.692291 Z M 27.210362 9.692291 " stroke="#000000" stroke-width="1.25" stroke-opacity="1" stroke-miterlimit="4"/></g></g></g></g><g clip-path="url(#5b2b05fda1)"><g clip-path="url(#a456cb4658)"><g clip-path="url(#d10e0e24e1)"><g clip-path="url(#a785a9f561)"><path fill="#000000" d="M 33.789062 212.160156 C 40.667969 198.441406 59.273438 203.277344 57.75 219.355469 C 57.820312 214.101562 46.871094 201.375 33.789062 212.160156 Z M 33.789062 212.160156 " fill-opacity="0.05" fill-rule="evenodd"/><path fill="#000000" d="M 33.710938 211.988281 C 41.257812 199.699219 58.101562 204.285156 57.675781 219.179688 C 57.746094 213.925781 46.796875 201.199219 33.710938 211.988281 Z M 33.710938 211.988281 " fill-opacity="0.05" fill-rule="evenodd"/></g></g></g></g><g clip-path="url(#2d1c890338)"><g clip-path="url(#d3525e404c)"><g clip-path="url(#65e33322b2)"><g clip-path="url(#354eea6ef7)"><path fill="#000000" d="M 33.859375 212.308594 C 42.027344 201.570312 56.402344 204.59375 57.820312 219.503906 C 57.894531 214.25 46.941406 201.523438 33.859375 212.308594 Z M 33.859375 212.308594 " fill-opacity="0.05" fill-rule="evenodd"/></g></g></g></g><g clip-path="url(#71dcd1d781)"><g clip-path="url(#53c67d2371)"><g clip-path="url(#326ade325e)"><g clip-path="url(#73719c6db9)"><path fill="#000000" d="M 33.976562 212.363281 C 37.644531 191.523438 66.902344 199.074219 57.707031 219.472656 C 64.171875 205.074219 43.050781 189.410156 33.976562 212.363281 Z M 33.976562 212.363281 " fill-opacity="0.5" fill-rule="evenodd"/></g></g></g></g><g clip-path="url(#f19a896747)"><g clip-path="url(#d32b07c9e6)"><g clip-path="url(#09fc6e639b)"><g clip-path="url(#d5bf6578ab)"><path fill="#000000" d="M 132.753906 248.5625 C 136.3125 227.289062 166.472656 234.90625 156.714844 255.757812 C 156.789062 250.503906 145.835938 237.773438 132.753906 248.5625 Z M 132.753906 248.5625 " fill-opacity="1" fill-rule="evenodd"/></g></g></g></g><g clip-path="url(#55d013e96d)"><g clip-path="url(#dfd5f83571)"><g clip-path="url(#d86d398408)"><g clip-path="url(#a45027dc00)"><path stroke-linecap="butt" transform="matrix(0.103443, -0.282321, 0.28293, 0.103666, 127.195074, 255.240739)" fill="none" stroke-linejoin="miter" d="M 27.215427 9.697081 C 97.720429 -3.502811 108.442732 99.17645 32.161985 92.57722 C 48.65394 86.809867 75.876335 38.143762 27.215427 9.697081 Z M 27.215427 9.697081 " stroke="#000000" stroke-width="1.25" stroke-opacity="1" stroke-miterlimit="4"/></g></g></g></g><g clip-path="url(#991ab3be04)"><g clip-path="url(#06dc9f32bd)"><g clip-path="url(#61b9ff3da7)"><g clip-path="url(#c3ce6511e7)"><path fill="#000000" d="M 132.746094 248.421875 C 139.625 234.699219 158.234375 239.535156 156.707031 255.613281 C 156.78125 250.359375 145.828125 237.632812 132.746094 248.421875 Z M 132.746094 248.421875 " fill-opacity="0.05" fill-rule="evenodd"/></g></g></g></g><g clip-path="url(#07bc616a5e)"><g clip-path="url(#30662b53b9)"><g clip-path="url(#e988e1da06)"><g clip-path="url(#eb414c0ae3)"><path fill="#000000" d="M 132.671875 248.246094 C 140.21875 235.957031 157.0625 240.542969 156.632812 255.441406 C 156.707031 250.183594 145.753906 237.457031 132.671875 248.246094 Z M 132.671875 248.246094 " fill-opacity="0.05" fill-rule="evenodd"/></g></g></g></g><g clip-path="url(#54141383c1)"><g clip-path="url(#9ec1cc997b)"><g clip-path="url(#45ab246053)"><g clip-path="url(#5846f57dcd)"><path fill="#000000" d="M 132.816406 248.570312 C 140.988281 237.828125 155.363281 240.851562 156.777344 255.765625 C 156.851562 250.507812 145.902344 237.78125 132.816406 248.570312 Z M 132.816406 248.570312 " fill-opacity="0.05" fill-rule="evenodd"/></g></g></g></g><g clip-path="url(#3d04dff863)"><g clip-path="url(#063624ff75)"><g clip-path="url(#659ac81f51)"><g clip-path="url(#cf4880634e)"><path fill="#000000" d="M 132.9375 248.621094 C 136.601562 227.78125 165.859375 235.332031 156.664062 255.730469 C 163.132812 241.332031 142.007812 225.667969 132.9375 248.621094 Z M 132.9375 248.621094 " fill-opacity="0.5" fill-rule="evenodd"/></g></g></g></g><g clip-path="url(#eb23ee80ba)"><g clip-path="url(#68a465b277)"><g clip-path="url(#0f203f2911)"><g transform="matrix(1, 0, 0, 1, 173, 244)"><g clip-path="url(#583bc4f5fa)"><g clip-path="url(#71cc5d332d)"><g clip-path="url(#a593f405e9)"><g clip-path="url(#da0ca75b66)"><path fill="#2fa3e6" d="M 41.859375 22.433594 L 1.515625 25.804688 L -0.445312 2.332031 L 39.898438 -1.039062 Z M 41.859375 22.433594 " fill-opacity="1" fill-rule="nonzero"/></g></g></g></g></g></g></g></g><g clip-path="url(#e98eff676d)"><g clip-path="url(#4b169f0a20)"><g clip-path="url(#ea7c121919)"><g transform="matrix(1, 0, 0, 1, 318, 187)"><g clip-path="url(#361c7fddfe)"><g clip-path="url(#14210b8e04)"><g clip-path="url(#98d07b787d)"><g clip-path="url(#8cb6f228a2)"><path fill="#2fa3e6" d="M 41.988281 13.535156 L 9.414062 37.578125 L -4.574219 18.625 L 28 -5.414062 Z M 41.988281 13.535156 " fill-opacity="1" fill-rule="nonzero"/></g></g></g></g></g></g></g></g><g clip-path="url(#695bba1bd4)"><g clip-path="url(#9c3afb2059)"><g clip-path="url(#2404ec98df)"><g transform="matrix(1, 0, 0, 1, 180, 129)"><g clip-path="url(#604d62ff94)"><g clip-path="url(#a9b635f224)"><g clip-path="url(#d7ba10b22c)"><g clip-path="url(#f9a563bb2a)"><path fill="#38b6ff" d="M -21.789062 31.867188 L 121.257812 -21.320312 L 174.445312 121.722656 L 31.402344 174.914062 Z M -21.789062 31.867188 " fill-opacity="1" fill-rule="nonzero"/></g></g></g></g></g></g></g></g><g clip-path="url(#e9e7dbbe5e)"><g clip-path="url(#0abb44435b)"><g clip-path="url(#e8124c4892)"><path fill="#fffbf0" d="M 329.597656 184.929688 C 340.355469 222.730469 320.285156 263.144531 282.839844 277.070312 C 245.394531 290.992188 203.84375 273.488281 187.292969 237.84375 Z M 329.113281 185.109375 C 339.765625 222.617188 319.867188 262.753906 282.660156 276.585938 C 245.457031 290.421875 204.21875 273.019531 187.730469 237.679688 Z M 329.113281 185.109375 " fill-opacity="1" fill-rule="nonzero"/><path fill="#fffbf0" d="M 329.113281 185.109375 L 329.597656 184.929688 C 340.355469 222.730469 320.285156 263.144531 282.839844 277.070312 C 245.394531 290.992188 203.84375 273.488281 187.292969 237.84375 L 187.777344 237.664062 L 329.113281 185.109375 L 329.597656 184.929688 C 340.355469 222.730469 320.285156 263.144531 282.839844 277.070312 C 245.394531 290.992188 203.84375 273.488281 187.292969 237.84375 L 187.777344 237.664062 Z M 329.113281 185.109375 " fill-opacity="1" fill-rule="nonzero"/></g></g></g><g clip-path="url(#60ce77b736)"><g clip-path="url(#ed5fc8efc2)"><g clip-path="url(#1837323e0a)"><path stroke-linecap="butt" transform="matrix(-0.482542, 0.179425, -0.179425, -0.482542, 433.230261, 301.891205)" fill="none" stroke-linejoin="miter" d="M 110.501052 283.101584 L 109.497538 283.100821 C 115.501567 206.996602 179.401521 147.004344 257.003189 147.000012 C 334.602213 147.002792 398.401408 206.999781 404.40399 283.099934 L 403.400476 283.099171 L 110.501052 283.101584 L 109.497538 283.100821 C 115.501567 206.996602 179.401521 147.004344 257.003189 147.000012 C 334.602213 147.002792 398.401408 206.999781 404.40399 283.099934 L 403.400476 283.099171 Z M 110.501052 283.101584 " stroke="#fef8fb" stroke-width="1" stroke-opacity="1" stroke-miterlimit="10"/></g></g></g><g clip-path="url(#2531ddaedb)"><g clip-path="url(#ef8f511d55)"><g clip-path="url(#5e19ce60fc)"><g clip-path="url(#6c3a542d57)"><path fill="#000000" d="M 206.007812 254.660156 C 194.894531 236.171875 222.769531 222.367188 228.898438 244.558594 C 225.539062 240.519531 208.945312 237.957031 206.007812 254.660156 Z M 206.007812 254.660156 " fill-opacity="1" fill-rule="evenodd"/></g></g></g></g><g clip-path="url(#b94d36971f)"><g clip-path="url(#21389692bb)"><g clip-path="url(#29871f92e1)"><g clip-path="url(#d39079bed6)"><path stroke-linecap="butt" transform="matrix(-0.104791, -0.281824, 0.282431, -0.105017, 206.12189, 263.346831)" fill="none" stroke-linejoin="miter" d="M 27.211375 9.692414 C 97.726915 -3.492644 108.450003 99.182699 32.168139 92.580135 C 48.653115 86.802108 75.875436 38.149181 27.211375 9.692414 Z M 27.211375 9.692414 " stroke="#000000" stroke-width="1.25" stroke-opacity="1" stroke-miterlimit="4"/></g></g></g></g><g clip-path="url(#a64ee7d47a)"><g clip-path="url(#ebf4ad3de8)"><g clip-path="url(#4315a2cb82)"><g clip-path="url(#e47cdd99f2)"><path fill="#000000" d="M 205.910156 254.554688 C 202.226562 239.65625 219.511719 231.242188 228.800781 244.457031 C 225.441406 240.414062 208.847656 237.855469 205.910156 254.554688 Z M 205.910156 254.554688 " fill-opacity="0.05" fill-rule="evenodd"/></g></g></g></g><g clip-path="url(#b5b7824363)"><g clip-path="url(#b8f63a18e6)"><g clip-path="url(#904d914969)"><g clip-path="url(#c730999ae2)"><path fill="#000000" d="M 205.738281 254.472656 C 203.492188 240.226562 219.277344 232.769531 228.628906 244.371094 C 225.269531 240.332031 208.675781 237.769531 205.738281 254.472656 Z M 205.738281 254.472656 " fill-opacity="0.05" fill-rule="evenodd"/></g></g></g></g><g clip-path="url(#af1be480ce)"><g clip-path="url(#e8fd34faf7)"><g clip-path="url(#f2f9a25fea)"><g clip-path="url(#9dcd0aada5)"><path fill="#000000" d="M 206.0625 254.621094 C 205.292969 241.152344 218.183594 234.109375 228.949219 244.523438 C 225.59375 240.480469 208.996094 237.921875 206.0625 254.621094 Z M 206.0625 254.621094 " fill-opacity="0.05" fill-rule="evenodd"/></g></g></g></g><g clip-path="url(#2da62651ce)"><g clip-path="url(#54671aa214)"><g clip-path="url(#8cf042e89a)"><g clip-path="url(#971611fd86)"><path fill="#000000" d="M 206.1875 254.585938 C 195.433594 236.359375 222.578125 223.09375 228.84375 244.574219 C 224.402344 229.425781 198.171875 231.242188 206.1875 254.585938 Z M 206.1875 254.585938 " fill-opacity="0.5" fill-rule="evenodd"/></g></g></g></g><g clip-path="url(#db1c2cb2f5)"><g clip-path="url(#aa011a5297)"><g clip-path="url(#4822ebf777)"><g clip-path="url(#8af4ef9c19)"><path fill="#000000" d="M 304.792969 217.925781 C 293.675781 199.441406 321.550781 185.636719 327.683594 207.828125 C 324.324219 203.785156 307.730469 201.226562 304.792969 217.925781 Z M 304.792969 217.925781 " fill-opacity="1" fill-rule="evenodd"/></g></g></g></g><g clip-path="url(#ec42f5da23)"><g clip-path="url(#1524d99866)"><g clip-path="url(#4affc89568)"><g clip-path="url(#04cbc82904)"><path stroke-linecap="butt" transform="matrix(-0.104791, -0.281824, 0.282431, -0.105017, 304.906478, 226.615439)" fill="none" stroke-linejoin="miter" d="M 27.220014 9.697634 C 97.727905 -3.504094 108.450992 99.17125 32.1646 92.580836 C 48.661754 86.807327 75.871898 38.149882 27.220014 9.697634 Z M 27.220014 9.697634 " stroke="#000000" stroke-width="1.25" stroke-opacity="1" stroke-miterlimit="4"/></g></g></g></g><g clip-path="url(#f90ec9a649)"><g clip-path="url(#ed968c7fc7)"><g clip-path="url(#5f82672e19)"><g clip-path="url(#21dc16ca59)"><path fill="#000000" d="M 304.695312 217.824219 C 301.011719 202.921875 318.296875 194.511719 327.585938 207.726562 C 324.226562 203.683594 307.632812 201.121094 304.695312 217.824219 Z M 304.695312 217.824219 " fill-opacity="0.05" fill-rule="evenodd"/><path fill="#000000" d="M 304.523438 217.738281 C 302.277344 203.496094 318.0625 196.039062 327.414062 207.640625 C 324.054688 203.597656 307.460938 201.039062 304.523438 217.738281 Z M 304.523438 217.738281 " fill-opacity="0.05" fill-rule="evenodd"/></g></g></g></g><g clip-path="url(#87e955bb35)"><g clip-path="url(#64db202d0c)"><g clip-path="url(#c84aac46bb)"><g clip-path="url(#c8104935fc)"><path fill="#000000" d="M 304.84375 217.890625 C 304.078125 204.417969 316.96875 197.375 327.734375 207.792969 C 324.375 203.75 307.78125 201.191406 304.84375 217.890625 Z M 304.84375 217.890625 " fill-opacity="0.05" fill-rule="evenodd"/></g></g></g></g><g clip-path="url(#d778ea54f1)"><g clip-path="url(#6cc00b9f4f)"><g clip-path="url(#f4bd07cc7f)"><g clip-path="url(#52ebded36c)"><path fill="#000000" d="M 304.972656 217.851562 C 294.21875 199.628906 321.363281 186.359375 327.628906 207.839844 C 323.1875 192.691406 296.953125 194.511719 304.972656 217.851562 Z M 304.972656 217.851562 " fill-opacity="0.5" fill-rule="evenodd"/></g></g></g></g></g></g></svg>