<svg xmlns="http://www.w3.org/2000/svg" xmlns:xlink="http://www.w3.org/1999/xlink" width="3000" zoomAndPan="magnify" viewBox="0 0 2250 749.999995" height="1000" preserveAspectRatio="xMidYMid meet" version="1.0"><defs><g/><clipPath id="926ee26b83"><path d="M 286 169.6875 L 1964 169.6875 L 1964 480 L 286 480 Z M 286 169.6875 " clip-rule="nonzero"/></clipPath><clipPath id="1cf15d8583"><path d="M 1 270 L 406 270 L 406 580.6875 L 1 580.6875 Z M 1 270 " clip-rule="nonzero"/></clipPath><clipPath id="1e632552db"><path d="M 293 501 L 441 501 L 441 580.6875 L 293 580.6875 Z M 293 501 " clip-rule="nonzero"/></clipPath><clipPath id="156f084494"><path d="M 1844 270 L 2249 270 L 2249 580.6875 L 1844 580.6875 Z M 1844 270 " clip-rule="nonzero"/></clipPath><clipPath id="4973d80ae4"><path d="M 1809 501 L 1957 501 L 1957 580.6875 L 1809 580.6875 Z M 1809 501 " clip-rule="nonzero"/></clipPath><clipPath id="742131e391"><rect x="0" width="1318" y="0" height="205"/></clipPath></defs><g clip-path="url(#926ee26b83)"><path fill="#df722e" d="M 286.382812 169.6875 L 1963.617188 169.6875 L 1963.617188 479.8125 L 286.382812 479.8125 Z M 286.382812 169.6875 " fill-opacity="1" fill-rule="nonzero"/></g><g clip-path="url(#1cf15d8583)"><path fill="#df722e" d="M 1.433594 580.3125 L 132.410156 425.085938 L 1.433594 270.1875 L 263.332031 270.1875 L 263.332031 501.605469 L 405.230469 580.3125 Z M 1.433594 580.3125 " fill-opacity="1" fill-rule="nonzero"/></g><g clip-path="url(#1e632552db)"><path fill="#df722e" d="M 440.679688 501.605469 L 440.679688 580.3125 L 293.480469 501.605469 Z M 440.679688 501.605469 " fill-opacity="1" fill-rule="nonzero"/></g><g clip-path="url(#156f084494)"><path fill="#df722e" d="M 2248.566406 580.3125 L 2117.589844 425.085938 L 2248.566406 270.1875 L 1986.667969 270.1875 L 1986.667969 501.605469 L 1844.769531 580.3125 Z M 2248.566406 580.3125 " fill-opacity="1" fill-rule="nonzero"/></g><g clip-path="url(#4973d80ae4)"><path fill="#df722e" d="M 1809.265625 501.605469 L 1809.265625 580.3125 L 1956.464844 501.605469 Z M 1809.265625 501.605469 " fill-opacity="1" fill-rule="nonzero"/></g><g transform="matrix(1, 0, 0, 1, 469, 219)"><g clip-path="url(#742131e391)"><g fill="#000000" fill-opacity="1"><g transform="translate(1.182601, 161.490593)"><g><path d="M 12.5625 -5.1875 L 12.234375 -8.375 L 12.5625 -45.078125 L 12.0625 -50.109375 L 12.734375 -82.109375 L 12.234375 -89.15625 L 12.5625 -99.03125 L 12.40625 -102.0625 L 12.5625 -105.578125 L 12.234375 -108.59375 L 12.234375 -112.28125 L 13.90625 -115.796875 L 17.59375 -117.46875 L 37.875 -117.140625 L 40.890625 -117.8125 L 47.421875 -116.96875 L 50.4375 -117.640625 L 67.703125 -117.140625 L 74.234375 -115.625 L 77.09375 -114.625 L 80.265625 -113.109375 L 83.125 -111.4375 L 85.46875 -109.59375 L 87.984375 -107.921875 L 90.5 -105.578125 L 96.015625 -97.859375 L 97.203125 -94.34375 L 98.53125 -88.3125 L 98.875 -83.125 L 98.703125 -77.421875 L 96.6875 -71.390625 L 93.515625 -64.859375 L 92.328125 -61.671875 L 94.015625 -57.8125 L 96.6875 -55.46875 L 98.875 -52.953125 L 101.890625 -46.078125 L 103.734375 -40.046875 L 103.390625 -26.484375 L 102.0625 -23.296875 L 101.046875 -20.109375 L 99.375 -16.765625 L 94.84375 -10.5625 L 88.140625 -5.1875 L 85.125 -3.6875 L 75.75 -1 L 72.734375 -0.5 L 55.46875 0.328125 L 52.109375 -0.171875 L 27.8125 0.171875 L 22.796875 -0.328125 L 17.265625 0.171875 L 14.078125 -1.84375 Z M 46.921875 -71.5625 L 59.828125 -72.0625 L 64.6875 -73.734375 L 67.203125 -75.75 L 68.375 -80.609375 L 67.875 -85.625 L 66.53125 -88.3125 L 63.84375 -89.65625 L 46.59375 -90.828125 L 43.40625 -88.8125 L 41.390625 -83.953125 L 41.5625 -78.265625 L 43.40625 -73.5625 Z M 46.421875 -26.8125 L 59.328125 -26.484375 L 68.546875 -27.3125 L 71.390625 -29.15625 L 73.234375 -31.5 L 74.0625 -36.359375 L 73.0625 -40.546875 L 71.390625 -43.578125 L 68.546875 -44.75 L 52.78125 -46.25 L 49.265625 -45.921875 L 46.078125 -46.421875 L 43.234375 -44.234375 L 41.734375 -41.390625 L 41.21875 -31.34375 L 43.40625 -27.984375 Z M 46.421875 -26.8125 "/></g></g></g><g fill="#000000" fill-opacity="1"><g transform="translate(111.769142, 161.490593)"><g><path d="M 12.5625 -6.875 L 12.5625 -31.671875 L 12.234375 -35.03125 L 12.40625 -48.59375 L 12.734375 -51.78125 L 12.40625 -54.96875 L 12.40625 -58.3125 L 12.234375 -62 L 12.734375 -68.703125 L 12.40625 -72.0625 L 12.234375 -110.4375 L 14.25 -115.125 L 17.265625 -116.796875 L 27.140625 -117.640625 L 30.828125 -117.46875 L 34.1875 -116.796875 L 37.53125 -116.796875 L 40.546875 -117.640625 L 43.90625 -117.640625 L 47.25 -116.96875 L 57.3125 -116.96875 L 62.171875 -117.3125 L 67.53125 -117.140625 L 77.09375 -114.953125 L 83.453125 -112.78125 L 89.3125 -109.59375 L 98.875 -99.546875 L 100.71875 -96.859375 L 102.0625 -94.015625 L 105.078125 -84.453125 L 105.578125 -81.109375 L 105.90625 -70.546875 L 103.734375 -60.828125 L 97.203125 -49.09375 L 94.84375 -47.09375 L 92.5 -44.578125 L 91 -40.890625 L 91.15625 -36.875 L 93.171875 -34.359375 L 98.53125 -25.640625 L 100.046875 -22.625 L 105.734375 -14.078125 L 107.078125 -10.890625 L 109.09375 -8.546875 L 110.9375 -4.859375 L 109.9375 -1.171875 L 106.75 0.328125 L 101.21875 0.5 L 98.03125 0.171875 L 84.796875 0.328125 L 79.09375 -1.171875 L 75.40625 -4.1875 L 73.5625 -7.03125 L 72.21875 -10.390625 L 70.390625 -12.90625 L 67.203125 -18.9375 L 63.6875 -23.96875 L 62.34375 -26.984375 L 60.328125 -30.328125 L 56.984375 -33.1875 L 47.25 -34.515625 L 44.078125 -32.671875 L 42.5625 -29.328125 L 42.234375 -18.59375 L 42.734375 -15.078125 L 42.390625 -12.0625 L 42.390625 -6.375 L 40.890625 -1.515625 L 35.53125 0.171875 L 30.5 0.171875 L 27.8125 0.5 L 22.453125 0 L 19.109375 0.5 L 14.25 -1.671875 Z M 47.25 -61.328125 L 50.9375 -61.671875 L 58.984375 -61.328125 L 62.171875 -61.5 L 67.03125 -62.671875 L 70.046875 -64.015625 L 71.890625 -65.515625 L 73.734375 -68.03125 L 75.25 -71.390625 L 75.75 -76.421875 L 75.078125 -80.765625 L 74.0625 -83.453125 L 69.875 -88.65625 L 66.703125 -89.484375 L 62.34375 -89.828125 L 57.640625 -90.828125 L 50.9375 -90.15625 L 47.59375 -90.328125 L 44.078125 -88.984375 L 42.5625 -85.796875 L 42.234375 -78.765625 L 42.5625 -75.90625 L 42.5625 -65.859375 L 43.90625 -63.171875 Z M 47.25 -61.328125 "/></g></g></g><g fill="#000000" fill-opacity="1"><g transform="translate(226.879624, 161.490593)"><g><path d="M 67.203125 2.171875 L 57.140625 1.671875 L 42.90625 -2.515625 L 39.71875 -3.859375 L 28.328125 -9.890625 L 26.140625 -12.40625 L 21.453125 -16.921875 L 13.578125 -27.65625 L 11.890625 -30.671875 L 10.890625 -34.1875 L 8.375 -39.890625 L 6.53125 -50.4375 L 7.203125 -69.875 L 8.546875 -77.09375 L 11.734375 -86.296875 L 13.234375 -89.15625 L 18.9375 -97.53125 L 23.46875 -102.5625 L 28.828125 -106.25 L 31.171875 -108.25 L 39.71875 -113.625 L 46.078125 -115.296875 L 49.09375 -116.640625 L 52.453125 -117.640625 L 55.796875 -118.3125 L 67.53125 -118.984375 L 75.40625 -118.8125 L 97.359375 -111.9375 L 105.90625 -106.578125 L 113.109375 -100.046875 L 115.296875 -97.03125 L 117.3125 -95.015625 L 119.484375 -92.171875 L 120.65625 -89.15625 L 123.671875 -83.625 L 124.515625 -79.765625 L 125.84375 -76.25 L 127.1875 -70.046875 L 128.03125 -58.484375 L 127.1875 -46.75 L 126.515625 -43.0625 L 125.515625 -40.390625 L 125.015625 -37.03125 L 123.84375 -33.84375 L 117.3125 -22.28125 L 115.125 -19.265625 L 103.390625 -8.046875 L 88.484375 -1.34375 L 82.109375 0.671875 Z M 62.5 -27.3125 L 72.21875 -27.65625 L 75.40625 -28.484375 L 78.421875 -28.828125 L 81.109375 -30.328125 L 84.125 -31.671875 L 89.3125 -35.6875 L 91.328125 -38.703125 L 92.84375 -41.21875 L 94.6875 -43.734375 L 96.1875 -50.609375 L 97.203125 -58.984375 L 96.53125 -66.1875 L 95.359375 -69.203125 L 94.34375 -72.5625 L 93 -75.578125 L 89.15625 -81.28125 L 83.953125 -85.125 L 75.078125 -88.984375 L 67.03125 -89.484375 L 59.328125 -88.8125 L 55.796875 -87.984375 L 52.78125 -86.46875 L 47.921875 -83.125 L 45.40625 -80.9375 L 43.234375 -78.265625 L 41.734375 -75.40625 L 39.71875 -73.0625 L 38.703125 -70.046875 L 37.53125 -63.84375 L 37.375 -58.8125 L 38.203125 -50.4375 L 41.390625 -41.0625 L 43.578125 -38.703125 L 45.25 -36.359375 L 50.4375 -31.84375 L 56.140625 -28.828125 L 59.15625 -28.484375 Z M 62.5 -27.3125 "/></g></g></g><g fill="#000000" fill-opacity="1"><g transform="translate(361.259078, 161.490593)"><g><path d="M 98.875 -2.84375 L 96.359375 -5.03125 L 92 -9.890625 L 66.03125 -35.6875 L 63.171875 -37.53125 L 61 -40.046875 L 49.09375 -51.453125 L 46.921875 -54.296875 L 44.75 -55.140625 L 43.578125 -52.28125 L 43.234375 -48.9375 L 43.0625 -6.53125 L 41.390625 -1.34375 L 38.046875 0.328125 L 34.515625 0.5 L 27.984375 0 L 24.296875 0.328125 L 17.421875 0 L 13.90625 -1.171875 L 12.40625 -4.359375 L 12.0625 -18.4375 L 12.40625 -21.625 L 12.0625 -49.09375 L 12.5625 -51.953125 L 12.234375 -58.8125 L 12.40625 -61.671875 L 12.40625 -112.4375 L 13.90625 -115.625 L 17.765625 -117.3125 L 22.796875 -116.125 L 26.640625 -114.125 L 29.15625 -112.109375 L 62.171875 -78.765625 L 66.859375 -75.078125 L 78.765625 -63.171875 L 81.28125 -62 L 82.28125 -64.859375 L 82.609375 -94.84375 L 82.28125 -98.53125 L 82.78125 -105.578125 L 82.28125 -108.25 L 82.453125 -111.78125 L 84.296875 -115.296875 L 87.46875 -117.140625 L 108.25 -117.3125 L 111.609375 -115.46875 L 113.28125 -112.109375 L 113.78125 -88.8125 L 113.28125 -84.796875 L 113.28125 -68.203125 L 113.78125 -65.359375 L 113.453125 -4.1875 L 111.78125 -0.84375 L 108.09375 0.328125 L 103.390625 -0.171875 Z M 98.875 -2.84375 "/></g></g></g><g fill="#000000" fill-opacity="1"><g transform="translate(487.59586, 161.490593)"><g><path d="M 4.1875 -4.53125 L 5.53125 -8.546875 L 7.203125 -11.890625 L 9.390625 -14.921875 L 13.734375 -23.796875 L 17.265625 -29.328125 L 20.28125 -35.6875 L 22.28125 -38.375 L 25.296875 -44.40625 L 27.3125 -47.421875 L 47.921875 -85.625 L 48.265625 -88.8125 L 46.078125 -90.328125 L 25.96875 -90.5 L 22.796875 -89.984375 L 19.4375 -90.5 L 14.578125 -90.5 L 9.546875 -91.828125 L 7.703125 -95.015625 L 7.875 -108.765625 L 7.546875 -112.28125 L 9.71875 -115.796875 L 12.40625 -117.46875 L 15.578125 -117.140625 L 22.625 -117.140625 L 25.640625 -117.46875 L 29.15625 -117.140625 L 42.234375 -117.140625 L 45.75 -117.640625 L 49.09375 -117.140625 L 73.90625 -117.3125 L 78.265625 -116.796875 L 88.140625 -117.140625 L 91.328125 -116.796875 L 94.6875 -115.625 L 95.859375 -111.9375 L 82.78125 -87.640625 L 80.765625 -84.796875 L 77.75 -78.265625 L 76.25 -76.078125 L 71.21875 -66.53125 L 69.203125 -63.6875 L 62 -50.109375 L 59.484375 -46.25 L 57.8125 -42.90625 L 56.140625 -40.21875 L 54.796875 -36.703125 L 53.125 -33.6875 L 51.109375 -31.171875 L 51.453125 -28.328125 L 54.296875 -26.640625 L 57.640625 -26.8125 L 61.171875 -26.640625 L 64.1875 -26.984375 L 81.4375 -26.8125 L 84.625 -26.484375 L 88.140625 -26.640625 L 92 -26.484375 L 95.515625 -24.796875 L 96.859375 -21.625 L 97.203125 -18.59375 L 97.203125 -11.5625 L 96.859375 -8.046875 L 97.03125 -4.6875 L 95.359375 -1.84375 L 92 -0.171875 L 88.984375 0.171875 L 72.0625 0.171875 L 68.375 0.5 L 65.1875 -0.171875 L 61.84375 0.328125 L 58.3125 0.328125 L 54.796875 0.671875 L 51.953125 0.171875 L 48.765625 0 L 45.078125 0.671875 L 8.21875 0.5 L 4.859375 -1 Z M 4.1875 -4.53125 "/></g></g></g><g fill="#000000" fill-opacity="1"><g transform="translate(590.97753, 161.490593)"><g><path d="M 58.3125 0.5 L 54.96875 0.171875 L 51.609375 0.5 L 47.765625 0.328125 L 44.578125 -0.328125 L 37.703125 0.171875 L 34.6875 0 L 31 0.328125 L 18.9375 0.171875 L 13.90625 -2.015625 L 12.5625 -6.53125 L 12.234375 -10.21875 L 12.734375 -21.78125 L 12.234375 -25.140625 L 12.5625 -28.328125 L 12.734375 -55.46875 L 12.234375 -58.484375 L 12.40625 -72.21875 L 12.734375 -75.40625 L 12.234375 -78.921875 L 12.5625 -95.359375 L 12.0625 -99.03125 L 12.5625 -105.90625 L 12.234375 -112.28125 L 14.078125 -115.796875 L 17.59375 -117.140625 L 20.953125 -116.96875 L 24.296875 -117.3125 L 27.3125 -116.96875 L 30.5 -117.640625 L 33.84375 -117.140625 L 47.59375 -117.46875 L 50.9375 -117.140625 L 53.796875 -117.3125 L 57.140625 -116.96875 L 60.828125 -117.3125 L 74.40625 -117.46875 L 77.421875 -116.796875 L 80.9375 -116.796875 L 84.296875 -115.46875 L 85.796875 -112.28125 L 86.140625 -102.21875 L 85.96875 -98.875 L 86.140625 -95.515625 L 84.453125 -92.5 L 80.9375 -90.5 L 77.75 -90.328125 L 53.796875 -90.65625 L 50.609375 -89.984375 L 47.421875 -90.15625 L 43.734375 -88.8125 L 42.234375 -85.625 L 42.234375 -80.4375 L 43.578125 -75.25 L 47.09375 -73.734375 L 56.8125 -74.0625 L 63.84375 -73.5625 L 67.359375 -73.90625 L 77.25 -73.90625 L 81.109375 -71.71875 L 82.78125 -67.03125 L 82.28125 -51.953125 L 81.109375 -48.59375 L 77.75 -47.25 L 73.90625 -47.421875 L 70.546875 -47.09375 L 63.6875 -47.25 L 57.3125 -46.921875 L 51.953125 -47.421875 L 46.921875 -47.25 L 43.90625 -45.40625 L 42.390625 -41.890625 L 42.390625 -31.34375 L 43.734375 -28.328125 L 47.25 -26.640625 L 50.9375 -26.984375 L 54.125 -26.484375 L 57.8125 -26.640625 L 61.171875 -26.3125 L 66.703125 -26.984375 L 75.25 -26.8125 L 78.421875 -26.3125 L 82.28125 -26.640625 L 85.796875 -25.140625 L 87.640625 -21.78125 L 87.640625 -4.859375 L 85.796875 -1.34375 L 82.28125 0.171875 Z M 58.3125 0.5 "/></g></g></g><g fill="#000000" fill-opacity="1"><g transform="translate(686.986744, 161.490593)"><g/></g></g><g fill="#000000" fill-opacity="1"><g transform="translate(732.394271, 161.490593)"><g><path d="M 45.078125 1.515625 L 38.203125 0.328125 L 31.671875 -2.015625 L 28.328125 -3.015625 L 25.140625 -4.53125 L 22.796875 -7.03125 L 16.921875 -10.71875 L 14.75 -13.234375 L 12.40625 -15.421875 L 9.21875 -21.625 L 8.21875 -24.640625 L 7.546875 -27.984375 L 7.03125 -31.34375 L 8.375 -34.859375 L 11.390625 -36.203125 L 24.296875 -36.875 L 27.484375 -36.359375 L 30.5 -36.703125 L 33.84375 -35.359375 L 39.375 -29.328125 L 42.234375 -27.484375 L 45.078125 -25.96875 L 53.625 -25.140625 L 56.640625 -25.640625 L 61.84375 -25.96875 L 67.53125 -28.484375 L 69.71875 -31 L 71.046875 -35.1875 L 70.046875 -39.375 L 67.875 -41.390625 L 61.84375 -44.234375 L 35.53125 -47.25 L 29.5 -49.265625 L 18.09375 -55.46875 L 11.890625 -63.171875 L 9.21875 -69.046875 L 8.046875 -75.75 L 7.875 -80.9375 L 8.375 -89.15625 L 11.390625 -98.375 L 17.265625 -106.25 L 25.296875 -111.78125 L 31 -115.125 L 37.375 -117.140625 L 40.390625 -117.640625 L 43.734375 -117.8125 L 47.421875 -118.8125 L 60.328125 -118.484375 L 66.859375 -117.140625 L 76.25 -113.953125 L 87.3125 -106.25 L 91 -101.21875 L 95.6875 -92.5 L 96.015625 -89.3125 L 96.6875 -86.140625 L 95.359375 -83.28125 L 92.171875 -80.9375 L 89.15625 -81.28125 L 85.796875 -81.28125 L 81.28125 -81.609375 L 73.40625 -80.9375 L 69.71875 -83.125 L 67.203125 -86.46875 L 64.34375 -88.8125 L 61.328125 -90.828125 L 58.3125 -91.671875 L 52.953125 -92.328125 L 47.59375 -92.171875 L 44.578125 -91.5 L 41.890625 -89.984375 L 39.375 -88.140625 L 37.375 -85.96875 L 36.53125 -81.4375 L 37.203125 -76.421875 L 39.71875 -74.0625 L 45.921875 -71.046875 L 54.796875 -69.203125 L 59.65625 -69.203125 L 63.171875 -68.546875 L 66.53125 -68.375 L 69.875 -67.875 L 82.953125 -63.84375 L 85.96875 -62 L 88.65625 -60.65625 L 91.671875 -57.984375 L 96.015625 -52.953125 L 97.859375 -50.28125 L 100.375 -40.546875 L 100.71875 -35.1875 L 99.703125 -26.8125 L 98.703125 -23.96875 L 97.703125 -20.953125 L 95.859375 -17.265625 L 94.171875 -14.921875 L 89.3125 -9.890625 L 77.921875 -3.015625 L 74.734375 -1.515625 L 71.71875 -1.171875 L 68.375 0.171875 L 65.015625 0.671875 L 61.671875 1.515625 L 58.3125 1.84375 Z M 45.078125 1.515625 "/></g></g></g><g fill="#000000" fill-opacity="1"><g transform="translate(839.294613, 161.490593)"><g><path d="M 58.3125 1.34375 L 55.140625 1.171875 L 52.109375 0.5 L 48.765625 -0.671875 L 45.75 -1.34375 L 38.203125 -4.53125 L 31 -8.375 L 23.46875 -14.921875 L 16.59375 -22.28125 L 9.390625 -36.875 L 7.03125 -46.421875 L 6.03125 -58.65625 L 7.703125 -73.0625 L 9.390625 -79.9375 L 13.578125 -89.3125 L 16.765625 -94.171875 L 21.28125 -99.875 L 28.484375 -106.40625 L 33.34375 -110.09375 L 45.75 -115.96875 L 62 -119.140625 L 72.390625 -118.984375 L 75.75 -118.484375 L 78.921875 -118.3125 L 95.015625 -112.953125 L 106.40625 -105.734375 L 111.109375 -100.875 L 112.953125 -97.703125 L 115.296875 -94.84375 L 116.796875 -92.171875 L 118.640625 -89.484375 L 119.65625 -85.96875 L 120.828125 -82.953125 L 121.828125 -79.265625 L 120.65625 -75.90625 L 117.8125 -74.578125 L 112.78125 -74.0625 L 108.09375 -74.578125 L 104.734375 -74.40625 L 101.21875 -74.578125 L 98.203125 -74.234375 L 94.34375 -76.078125 L 91.15625 -79.265625 L 89.3125 -81.78125 L 84.453125 -86.640625 L 82.109375 -88.484375 L 79.09375 -89.65625 L 73.90625 -91.15625 L 66.703125 -91.5 L 55.46875 -89.984375 L 50.9375 -87.46875 L 46.921875 -84.296875 L 42.90625 -79.59375 L 41.21875 -76.421875 L 38.703125 -70.390625 L 37.53125 -63.6875 L 37.53125 -53.453125 L 38.046875 -49.765625 L 38.875 -46.75 L 40.046875 -44.40625 L 41.21875 -41.0625 L 44.90625 -35.1875 L 49.765625 -30.828125 L 55.640625 -27.8125 L 61.671875 -25.640625 L 66.53125 -25.140625 L 75.40625 -25.640625 L 81.28125 -28.828125 L 83.796875 -29.828125 L 86.46875 -32.171875 L 90.328125 -36.53125 L 92 -39.71875 L 94.6875 -42.390625 L 98.53125 -44.40625 L 101.890625 -44.234375 L 105.234375 -44.40625 L 108.59375 -43.90625 L 117.96875 -44.578125 L 121.328125 -42.390625 L 122.328125 -39.375 L 117.96875 -26.640625 L 114.453125 -20.609375 L 110.609375 -15.578125 L 105.90625 -10.890625 L 97.703125 -5.03125 L 94.84375 -3.6875 L 91.328125 -2.515625 L 88.3125 -0.84375 L 78.421875 1.171875 L 66.703125 2.015625 Z M 58.3125 1.34375 "/></g></g></g><g fill="#000000" fill-opacity="1"><g transform="translate(967.139352, 161.490593)"><g><path d="M 67.203125 2.171875 L 57.140625 1.671875 L 42.90625 -2.515625 L 39.71875 -3.859375 L 28.328125 -9.890625 L 26.140625 -12.40625 L 21.453125 -16.921875 L 13.578125 -27.65625 L 11.890625 -30.671875 L 10.890625 -34.1875 L 8.375 -39.890625 L 6.53125 -50.4375 L 7.203125 -69.875 L 8.546875 -77.09375 L 11.734375 -86.296875 L 13.234375 -89.15625 L 18.9375 -97.53125 L 23.46875 -102.5625 L 28.828125 -106.25 L 31.171875 -108.25 L 39.71875 -113.625 L 46.078125 -115.296875 L 49.09375 -116.640625 L 52.453125 -117.640625 L 55.796875 -118.3125 L 67.53125 -118.984375 L 75.40625 -118.8125 L 97.359375 -111.9375 L 105.90625 -106.578125 L 113.109375 -100.046875 L 115.296875 -97.03125 L 117.3125 -95.015625 L 119.484375 -92.171875 L 120.65625 -89.15625 L 123.671875 -83.625 L 124.515625 -79.765625 L 125.84375 -76.25 L 127.1875 -70.046875 L 128.03125 -58.484375 L 127.1875 -46.75 L 126.515625 -43.0625 L 125.515625 -40.390625 L 125.015625 -37.03125 L 123.84375 -33.84375 L 117.3125 -22.28125 L 115.125 -19.265625 L 103.390625 -8.046875 L 88.484375 -1.34375 L 82.109375 0.671875 Z M 62.5 -27.3125 L 72.21875 -27.65625 L 75.40625 -28.484375 L 78.421875 -28.828125 L 81.109375 -30.328125 L 84.125 -31.671875 L 89.3125 -35.6875 L 91.328125 -38.703125 L 92.84375 -41.21875 L 94.6875 -43.734375 L 96.1875 -50.609375 L 97.203125 -58.984375 L 96.53125 -66.1875 L 95.359375 -69.203125 L 94.34375 -72.5625 L 93 -75.578125 L 89.15625 -81.28125 L 83.953125 -85.125 L 75.078125 -88.984375 L 67.03125 -89.484375 L 59.328125 -88.8125 L 55.796875 -87.984375 L 52.78125 -86.46875 L 47.921875 -83.125 L 45.40625 -80.9375 L 43.234375 -78.265625 L 41.734375 -75.40625 L 39.71875 -73.0625 L 38.703125 -70.046875 L 37.53125 -63.84375 L 37.375 -58.8125 L 38.203125 -50.4375 L 41.390625 -41.0625 L 43.578125 -38.703125 L 45.25 -36.359375 L 50.4375 -31.84375 L 56.140625 -28.828125 L 59.15625 -28.484375 Z M 62.5 -27.3125 "/></g></g></g><g fill="#000000" fill-opacity="1"><g transform="translate(1101.518806, 161.490593)"><g><path d="M 57.640625 2.171875 L 52.28125 1.84375 L 48.9375 1.84375 L 42.390625 0.5 L 36.03125 -2.34375 L 33.515625 -3.859375 L 30.171875 -5.359375 L 24.796875 -8.875 L 22.28125 -11.0625 L 20.28125 -13.40625 L 16.421875 -19.4375 L 13.734375 -25.140625 L 12.0625 -32 L 11.0625 -45.40625 L 11.5625 -72.390625 L 11.234375 -75.578125 L 11.734375 -78.921875 L 11.234375 -102.390625 L 11.5625 -105.078125 L 11.5625 -109.09375 L 11.234375 -112.4375 L 13.40625 -115.625 L 16.921875 -116.96875 L 20.4375 -117.46875 L 27.65625 -116.796875 L 31 -117.3125 L 34.1875 -117.3125 L 37.703125 -115.796875 L 39.71875 -112.109375 L 40.046875 -107.25 L 39.71875 -101.890625 L 40.046875 -99.375 L 39.546875 -45.40625 L 40.546875 -35.6875 L 41.5625 -32.515625 L 43.578125 -29.828125 L 46.25 -27.8125 L 49.09375 -26.140625 L 52.953125 -25.296875 L 63.015625 -25.296875 L 68.875 -27.484375 L 71.71875 -29.5 L 73.5625 -32.84375 L 74.578125 -35.359375 L 75.75 -45.75 L 75.40625 -111.78125 L 77.25 -115.46875 L 80.765625 -117.140625 L 87.8125 -116.640625 L 98.375 -116.96875 L 102.0625 -115.796875 L 104.234375 -112.28125 L 103.734375 -108.921875 L 103.734375 -95.015625 L 104.0625 -92.328125 L 103.734375 -88.65625 L 104.0625 -85.46875 L 104.0625 -40.21875 L 103.234375 -32.171875 L 101.71875 -25.140625 L 100.046875 -22.28125 L 99.03125 -18.9375 L 95.1875 -13.078125 L 90.5 -8.375 L 84.96875 -4.6875 L 78.921875 -1.515625 L 65.859375 1.84375 L 62.671875 1.671875 Z M 57.640625 2.171875 "/></g></g></g><g fill="#000000" fill-opacity="1"><g transform="translate(1217.132043, 161.490593)"><g><path d="M 43.734375 0.328125 L 38.546875 0.171875 L 33.6875 -1.515625 L 31.5 -5.1875 L 31.84375 -8.375 L 32 -18.09375 L 31.671875 -21.625 L 31.84375 -35.1875 L 32.171875 -38.546875 L 31.671875 -63.515625 L 32 -68.203125 L 31.84375 -71.5625 L 32 -75.25 L 31.671875 -79.9375 L 32 -85.296875 L 30.171875 -88.65625 L 26.984375 -90.328125 L 11.0625 -90.65625 L 7.703125 -90.328125 L 4.6875 -92 L 3.1875 -95.015625 L 2.84375 -100.21875 L 3.1875 -108.59375 L 3.015625 -111.9375 L 5.03125 -115.796875 L 8.21875 -117.46875 L 19.9375 -116.796875 L 25.140625 -117.3125 L 35.03125 -116.796875 L 38.046875 -117.46875 L 41.734375 -117.140625 L 45.25 -117.640625 L 48.4375 -117.46875 L 51.78125 -116.796875 L 65.359375 -117.46875 L 68.546875 -117.140625 L 72.0625 -117.640625 L 75.25 -117.3125 L 85.625 -117.3125 L 88.8125 -115.125 L 90.65625 -111.78125 L 90.5 -95.859375 L 88.484375 -92.171875 L 85.625 -90.328125 L 82.609375 -90.5 L 79.09375 -89.984375 L 72.890625 -90.828125 L 66.359375 -90.5 L 63.171875 -88.484375 L 61.84375 -83.453125 L 61.328125 -68.875 L 61.84375 -65.359375 L 61.5 -38.375 L 62 -34.6875 L 61.671875 -31.671875 L 61.84375 -24.96875 L 61.5 -21.453125 L 62 -15.078125 L 61.5 -6.375 L 59.828125 -1.671875 L 54.96875 0 Z M 43.734375 0.328125 "/></g></g></g></g></g></svg>