<svg xmlns="http://www.w3.org/2000/svg" xmlns:xlink="http://www.w3.org/1999/xlink" width="3000" zoomAndPan="magnify" viewBox="0 0 2250 749.999995" height="1000" preserveAspectRatio="xMidYMid meet" version="1.0"><defs><g/><clipPath id="40a2eaecc0"><path d="M 286 169.6875 L 1964 169.6875 L 1964 480 L 286 480 Z M 286 169.6875 " clip-rule="nonzero"/></clipPath><clipPath id="d908256bdf"><path d="M 1 270 L 406 270 L 406 580.6875 L 1 580.6875 Z M 1 270 " clip-rule="nonzero"/></clipPath><clipPath id="0b52094001"><path d="M 293 501 L 441 501 L 441 580.6875 L 293 580.6875 Z M 293 501 " clip-rule="nonzero"/></clipPath><clipPath id="d59928efe0"><path d="M 1844 270 L 2249 270 L 2249 580.6875 L 1844 580.6875 Z M 1844 270 " clip-rule="nonzero"/></clipPath><clipPath id="990a7bef7b"><path d="M 1809 501 L 1957 501 L 1957 580.6875 L 1809 580.6875 Z M 1809 501 " clip-rule="nonzero"/></clipPath><clipPath id="21644ef93c"><rect x="0" width="1105" y="0" height="205"/></clipPath></defs><g clip-path="url(#40a2eaecc0)"><path fill="#ffb853" d="M 286.382812 169.6875 L 1963.617188 169.6875 L 1963.617188 479.8125 L 286.382812 479.8125 Z M 286.382812 169.6875 " fill-opacity="1" fill-rule="nonzero"/></g><g clip-path="url(#d908256bdf)"><path fill="#ffb853" d="M 1.433594 580.3125 L 132.410156 425.085938 L 1.433594 270.1875 L 263.332031 270.1875 L 263.332031 501.605469 L 405.230469 580.3125 Z M 1.433594 580.3125 " fill-opacity="1" fill-rule="nonzero"/></g><g clip-path="url(#0b52094001)"><path fill="#ffb853" d="M 440.679688 501.605469 L 440.679688 580.3125 L 293.480469 501.605469 Z M 440.679688 501.605469 " fill-opacity="1" fill-rule="nonzero"/></g><g clip-path="url(#d59928efe0)"><path fill="#ffb853" d="M 2248.566406 580.3125 L 2117.589844 425.085938 L 2248.566406 270.1875 L 1986.667969 270.1875 L 1986.667969 501.605469 L 1844.769531 580.3125 Z M 2248.566406 580.3125 " fill-opacity="1" fill-rule="nonzero"/></g><g clip-path="url(#990a7bef7b)"><path fill="#ffb853" d="M 1809.265625 501.605469 L 1809.265625 580.3125 L 1956.464844 501.605469 Z M 1809.265625 501.605469 " fill-opacity="1" fill-rule="nonzero"/></g><g transform="matrix(1, 0, 0, 1, 575, 219)"><g clip-path="url(#21644ef93c)"><g fill="#000000" fill-opacity="1"><g transform="translate(0.748817, 161.490637)"><g><path d="M 58.15625 1.671875 L 54.796875 0.671875 L 45.25 -1 L 42.390625 -1.84375 L 30.828125 -8.546875 L 25.296875 -12.40625 L 18.59375 -19.4375 L 14.75 -25.140625 L 11.734375 -30.828125 L 7.03125 -46.59375 L 6.203125 -58.3125 L 6.375 -63.6875 L 9.390625 -80.265625 L 15.578125 -92.84375 L 17.421875 -95.359375 L 19.9375 -97.859375 L 22.125 -100.546875 L 29.5 -107.078125 L 38.703125 -112.78125 L 51.609375 -117.46875 L 54.796875 -117.640625 L 57.640625 -118.640625 L 61 -118.8125 L 76.578125 -118.140625 L 84.453125 -115.96875 L 87.984375 -115.296875 L 99.703125 -109.09375 L 102.21875 -107.078125 L 104.90625 -104.5625 L 108.59375 -101.546875 L 115.296875 -91.828125 L 116.796875 -88.8125 L 119.140625 -81.953125 L 118.140625 -79.09375 L 113.953125 -77.25 L 105.90625 -77.75 L 100.875 -77.09375 L 95.6875 -77.25 L 91.671875 -78.421875 L 88.140625 -81.28125 L 85.96875 -84.125 L 83.953125 -86.296875 L 80.765625 -88.484375 L 77.59375 -89.828125 L 71.390625 -91.5 L 61.171875 -91.15625 L 58.3125 -89.828125 L 55.140625 -89.484375 L 52.28125 -87.984375 L 46.421875 -83.796875 L 41.21875 -75.90625 L 38.546875 -69.875 L 37.375 -63.34375 L 37.53125 -53.625 L 38.375 -48.265625 L 39.71875 -43.40625 L 42.90625 -37.375 L 44.75 -35.03125 L 49.765625 -30.328125 L 58.8125 -26.640625 L 67.359375 -25.640625 L 71.71875 -25.8125 L 78.265625 -27.3125 L 83.796875 -29.5 L 86.140625 -31.34375 L 88.65625 -34.1875 L 90.328125 -37.03125 L 89.828125 -39.890625 L 87.3125 -41.0625 L 84.296875 -41.5625 L 75.90625 -40.890625 L 71.046875 -41.21875 L 68.03125 -43.0625 L 66.53125 -45.75 L 66.53125 -61.671875 L 68.03125 -64.859375 L 71.390625 -66.53125 L 77.75 -67.03125 L 87.8125 -66.359375 L 110.4375 -66.859375 L 113.953125 -66.359375 L 117.46875 -66.1875 L 120.65625 -64.515625 L 122.328125 -61.671875 L 122.671875 -55.296875 L 122.328125 -52.109375 L 122.328125 -48.765625 L 121.65625 -45.75 L 121.5 -42.90625 L 120.15625 -36.53125 L 116.796875 -26.640625 L 114.796875 -24.296875 L 113.28125 -21.28125 L 111.609375 -18.4375 L 109.59375 -16.09375 L 107.078125 -14.078125 L 104.5625 -11.390625 L 99.375 -7.375 L 87.46875 -1.34375 L 74.90625 1.671875 Z M 58.15625 1.671875 "/></g></g></g><g fill="#000000" fill-opacity="1"><g transform="translate(129.096251, 161.490637)"><g><path d="M 67.203125 2.171875 L 57.140625 1.671875 L 42.90625 -2.515625 L 39.71875 -3.859375 L 28.328125 -9.890625 L 26.140625 -12.40625 L 21.453125 -16.921875 L 13.578125 -27.65625 L 11.890625 -30.671875 L 10.890625 -34.1875 L 8.375 -39.890625 L 6.53125 -50.4375 L 7.203125 -69.875 L 8.546875 -77.09375 L 11.734375 -86.296875 L 13.234375 -89.15625 L 18.9375 -97.53125 L 23.46875 -102.5625 L 28.828125 -106.25 L 31.171875 -108.25 L 39.71875 -113.625 L 46.078125 -115.296875 L 49.09375 -116.640625 L 52.453125 -117.640625 L 55.796875 -118.3125 L 67.53125 -118.984375 L 75.40625 -118.8125 L 97.359375 -111.9375 L 105.90625 -106.578125 L 113.109375 -100.046875 L 115.296875 -97.03125 L 117.3125 -95.015625 L 119.484375 -92.171875 L 120.65625 -89.15625 L 123.671875 -83.625 L 124.515625 -79.765625 L 125.84375 -76.25 L 127.1875 -70.046875 L 128.03125 -58.484375 L 127.1875 -46.75 L 126.515625 -43.0625 L 125.515625 -40.390625 L 125.015625 -37.03125 L 123.84375 -33.84375 L 117.3125 -22.28125 L 115.125 -19.265625 L 103.390625 -8.046875 L 88.484375 -1.34375 L 82.109375 0.671875 Z M 62.5 -27.3125 L 72.21875 -27.65625 L 75.40625 -28.484375 L 78.421875 -28.828125 L 81.109375 -30.328125 L 84.125 -31.671875 L 89.3125 -35.6875 L 91.328125 -38.703125 L 92.84375 -41.21875 L 94.6875 -43.734375 L 96.1875 -50.609375 L 97.203125 -58.984375 L 96.53125 -66.1875 L 95.359375 -69.203125 L 94.34375 -72.5625 L 93 -75.578125 L 89.15625 -81.28125 L 83.953125 -85.125 L 75.078125 -88.984375 L 67.03125 -89.484375 L 59.328125 -88.8125 L 55.796875 -87.984375 L 52.78125 -86.46875 L 47.921875 -83.125 L 45.40625 -80.9375 L 43.234375 -78.265625 L 41.734375 -75.40625 L 39.71875 -73.0625 L 38.703125 -70.046875 L 37.53125 -63.84375 L 37.375 -58.8125 L 38.203125 -50.4375 L 41.390625 -41.0625 L 43.578125 -38.703125 L 45.25 -36.359375 L 50.4375 -31.84375 L 56.140625 -28.828125 L 59.15625 -28.484375 Z M 62.5 -27.3125 "/></g></g></g><g fill="#000000" fill-opacity="1"><g transform="translate(263.475705, 161.490637)"><g><path d="M 12.734375 -6.03125 L 12.5625 -68.875 L 12.234375 -72.0625 L 12.0625 -75.75 L 12.5625 -81.953125 L 12.234375 -85.296875 L 12.5625 -88.484375 L 12.5625 -111.9375 L 14.078125 -115.625 L 17.59375 -116.96875 L 20.78125 -117.46875 L 27.484375 -116.796875 L 30.828125 -117.46875 L 37.375 -117.46875 L 40.71875 -115.46875 L 42.390625 -111.78125 L 42.234375 -108.59375 L 42.734375 -99.03125 L 42.390625 -92.328125 L 42.734375 -88.3125 L 42.5625 -31.5 L 43.90625 -28.15625 L 47.25 -26.8125 L 50.78125 -27.140625 L 57.3125 -26.8125 L 60.328125 -27.3125 L 63.6875 -26.640625 L 70.546875 -26.8125 L 74.0625 -26.3125 L 77.25 -26.984375 L 80.765625 -27.3125 L 83.796875 -25.296875 L 85.296875 -20.28125 L 85.46875 -6.703125 L 83.625 -1.515625 L 80.4375 0.171875 L 47.25 0 L 43.578125 0.328125 L 40.390625 -0.171875 L 34.015625 0.171875 L 27.484375 -0.171875 L 20.4375 0.328125 L 17.09375 0 L 13.90625 -1.671875 Z M 12.734375 -6.03125 "/></g></g></g><g fill="#000000" fill-opacity="1"><g transform="translate(353.620481, 161.490637)"><g><path d="M 51.609375 0.5 L 44.75 -0.171875 L 41.390625 0.328125 L 20.953125 0 L 17.59375 0.328125 L 14.25 -1.34375 L 12.5625 -6.53125 L 12.5625 -15.078125 L 12.234375 -18.265625 L 12.40625 -111.9375 L 13.90625 -115.46875 L 17.59375 -116.96875 L 20.953125 -116.796875 L 23.96875 -117.3125 L 62.171875 -116.96875 L 72.0625 -115.46875 L 75.578125 -114.625 L 78.421875 -113.28125 L 81.78125 -112.609375 L 84.96875 -110.765625 L 93.515625 -105.078125 L 102.390625 -95.1875 L 108.09375 -86.296875 L 109.421875 -83.125 L 111.609375 -76.75 L 113.953125 -63.515625 L 114.125 -58.65625 L 113.625 -53.296875 L 113.625 -49.765625 L 113.109375 -46.421875 L 112.109375 -43.578125 L 111.4375 -40.046875 L 110.609375 -36.875 L 107.921875 -30.328125 L 105.90625 -27.65625 L 104.234375 -24.296875 L 96.015625 -13.734375 L 84.796875 -6.203125 L 76.921875 -2.84375 L 70.046875 -1.671875 L 65.1875 -0.171875 L 61.84375 -0.171875 L 56.640625 0.5 Z M 51.109375 -26.984375 L 56.140625 -27.140625 L 63.34375 -27.984375 L 68.203125 -29.5 L 73.90625 -33.1875 L 80.109375 -40.21875 L 82.953125 -46.421875 L 84.625 -58.15625 L 81.953125 -72.890625 L 80.4375 -75.90625 L 78.765625 -78.765625 L 76.25 -81.78125 L 73.734375 -84.125 L 71.21875 -85.96875 L 68.203125 -87.46875 L 61.671875 -89.3125 L 56.8125 -89.828125 L 49.765625 -89.65625 L 44.40625 -88.484375 L 42.734375 -84.625 L 42.390625 -81.78125 L 42.734375 -58.65625 L 42.0625 -50.28125 L 42.734375 -42.0625 L 42.5625 -35.1875 L 42.734375 -32.34375 L 44.078125 -29.15625 L 47.921875 -27.3125 Z M 51.109375 -26.984375 "/></g></g></g><g fill="#000000" fill-opacity="1"><g transform="translate(475.43326, 161.490637)"><g/></g></g><g fill="#000000" fill-opacity="1"><g transform="translate(520.840788, 161.490637)"><g><path d="M 45.078125 1.515625 L 38.203125 0.328125 L 31.671875 -2.015625 L 28.328125 -3.015625 L 25.140625 -4.53125 L 22.796875 -7.03125 L 16.921875 -10.71875 L 14.75 -13.234375 L 12.40625 -15.421875 L 9.21875 -21.625 L 8.21875 -24.640625 L 7.546875 -27.984375 L 7.03125 -31.34375 L 8.375 -34.859375 L 11.390625 -36.203125 L 24.296875 -36.875 L 27.484375 -36.359375 L 30.5 -36.703125 L 33.84375 -35.359375 L 39.375 -29.328125 L 42.234375 -27.484375 L 45.078125 -25.96875 L 53.625 -25.140625 L 56.640625 -25.640625 L 61.84375 -25.96875 L 67.53125 -28.484375 L 69.71875 -31 L 71.046875 -35.1875 L 70.046875 -39.375 L 67.875 -41.390625 L 61.84375 -44.234375 L 35.53125 -47.25 L 29.5 -49.265625 L 18.09375 -55.46875 L 11.890625 -63.171875 L 9.21875 -69.046875 L 8.046875 -75.75 L 7.875 -80.9375 L 8.375 -89.15625 L 11.390625 -98.375 L 17.265625 -106.25 L 25.296875 -111.78125 L 31 -115.125 L 37.375 -117.140625 L 40.390625 -117.640625 L 43.734375 -117.8125 L 47.421875 -118.8125 L 60.328125 -118.484375 L 66.859375 -117.140625 L 76.25 -113.953125 L 87.3125 -106.25 L 91 -101.21875 L 95.6875 -92.5 L 96.015625 -89.3125 L 96.6875 -86.140625 L 95.359375 -83.28125 L 92.171875 -80.9375 L 89.15625 -81.28125 L 85.796875 -81.28125 L 81.28125 -81.609375 L 73.40625 -80.9375 L 69.71875 -83.125 L 67.203125 -86.46875 L 64.34375 -88.8125 L 61.328125 -90.828125 L 58.3125 -91.671875 L 52.953125 -92.328125 L 47.59375 -92.171875 L 44.578125 -91.5 L 41.890625 -89.984375 L 39.375 -88.140625 L 37.375 -85.96875 L 36.53125 -81.4375 L 37.203125 -76.421875 L 39.71875 -74.0625 L 45.921875 -71.046875 L 54.796875 -69.203125 L 59.65625 -69.203125 L 63.171875 -68.546875 L 66.53125 -68.375 L 69.875 -67.875 L 82.953125 -63.84375 L 85.96875 -62 L 88.65625 -60.65625 L 91.671875 -57.984375 L 96.015625 -52.953125 L 97.859375 -50.28125 L 100.375 -40.546875 L 100.71875 -35.1875 L 99.703125 -26.8125 L 98.703125 -23.96875 L 97.703125 -20.953125 L 95.859375 -17.265625 L 94.171875 -14.921875 L 89.3125 -9.890625 L 77.921875 -3.015625 L 74.734375 -1.515625 L 71.71875 -1.171875 L 68.375 0.171875 L 65.015625 0.671875 L 61.671875 1.515625 L 58.3125 1.84375 Z M 45.078125 1.515625 "/></g></g></g><g fill="#000000" fill-opacity="1"><g transform="translate(627.74113, 161.490637)"><g><path d="M 58.3125 1.34375 L 55.140625 1.171875 L 52.109375 0.5 L 48.765625 -0.671875 L 45.75 -1.34375 L 38.203125 -4.53125 L 31 -8.375 L 23.46875 -14.921875 L 16.59375 -22.28125 L 9.390625 -36.875 L 7.03125 -46.421875 L 6.03125 -58.65625 L 7.703125 -73.0625 L 9.390625 -79.9375 L 13.578125 -89.3125 L 16.765625 -94.171875 L 21.28125 -99.875 L 28.484375 -106.40625 L 33.34375 -110.09375 L 45.75 -115.96875 L 62 -119.140625 L 72.390625 -118.984375 L 75.75 -118.484375 L 78.921875 -118.3125 L 95.015625 -112.953125 L 106.40625 -105.734375 L 111.109375 -100.875 L 112.953125 -97.703125 L 115.296875 -94.84375 L 116.796875 -92.171875 L 118.640625 -89.484375 L 119.65625 -85.96875 L 120.828125 -82.953125 L 121.828125 -79.265625 L 120.65625 -75.90625 L 117.8125 -74.578125 L 112.78125 -74.0625 L 108.09375 -74.578125 L 104.734375 -74.40625 L 101.21875 -74.578125 L 98.203125 -74.234375 L 94.34375 -76.078125 L 91.15625 -79.265625 L 89.3125 -81.78125 L 84.453125 -86.640625 L 82.109375 -88.484375 L 79.09375 -89.65625 L 73.90625 -91.15625 L 66.703125 -91.5 L 55.46875 -89.984375 L 50.9375 -87.46875 L 46.921875 -84.296875 L 42.90625 -79.59375 L 41.21875 -76.421875 L 38.703125 -70.390625 L 37.53125 -63.6875 L 37.53125 -53.453125 L 38.046875 -49.765625 L 38.875 -46.75 L 40.046875 -44.40625 L 41.21875 -41.0625 L 44.90625 -35.1875 L 49.765625 -30.828125 L 55.640625 -27.8125 L 61.671875 -25.640625 L 66.53125 -25.140625 L 75.40625 -25.640625 L 81.28125 -28.828125 L 83.796875 -29.828125 L 86.46875 -32.171875 L 90.328125 -36.53125 L 92 -39.71875 L 94.6875 -42.390625 L 98.53125 -44.40625 L 101.890625 -44.234375 L 105.234375 -44.40625 L 108.59375 -43.90625 L 117.96875 -44.578125 L 121.328125 -42.390625 L 122.328125 -39.375 L 117.96875 -26.640625 L 114.453125 -20.609375 L 110.609375 -15.578125 L 105.90625 -10.890625 L 97.703125 -5.03125 L 94.84375 -3.6875 L 91.328125 -2.515625 L 88.3125 -0.84375 L 78.421875 1.171875 L 66.703125 2.015625 Z M 58.3125 1.34375 "/></g></g></g><g fill="#000000" fill-opacity="1"><g transform="translate(755.585869, 161.490637)"><g><path d="M 67.203125 2.171875 L 57.140625 1.671875 L 42.90625 -2.515625 L 39.71875 -3.859375 L 28.328125 -9.890625 L 26.140625 -12.40625 L 21.453125 -16.921875 L 13.578125 -27.65625 L 11.890625 -30.671875 L 10.890625 -34.1875 L 8.375 -39.890625 L 6.53125 -50.4375 L 7.203125 -69.875 L 8.546875 -77.09375 L 11.734375 -86.296875 L 13.234375 -89.15625 L 18.9375 -97.53125 L 23.46875 -102.5625 L 28.828125 -106.25 L 31.171875 -108.25 L 39.71875 -113.625 L 46.078125 -115.296875 L 49.09375 -116.640625 L 52.453125 -117.640625 L 55.796875 -118.3125 L 67.53125 -118.984375 L 75.40625 -118.8125 L 97.359375 -111.9375 L 105.90625 -106.578125 L 113.109375 -100.046875 L 115.296875 -97.03125 L 117.3125 -95.015625 L 119.484375 -92.171875 L 120.65625 -89.15625 L 123.671875 -83.625 L 124.515625 -79.765625 L 125.84375 -76.25 L 127.1875 -70.046875 L 128.03125 -58.484375 L 127.1875 -46.75 L 126.515625 -43.0625 L 125.515625 -40.390625 L 125.015625 -37.03125 L 123.84375 -33.84375 L 117.3125 -22.28125 L 115.125 -19.265625 L 103.390625 -8.046875 L 88.484375 -1.34375 L 82.109375 0.671875 Z M 62.5 -27.3125 L 72.21875 -27.65625 L 75.40625 -28.484375 L 78.421875 -28.828125 L 81.109375 -30.328125 L 84.125 -31.671875 L 89.3125 -35.6875 L 91.328125 -38.703125 L 92.84375 -41.21875 L 94.6875 -43.734375 L 96.1875 -50.609375 L 97.203125 -58.984375 L 96.53125 -66.1875 L 95.359375 -69.203125 L 94.34375 -72.5625 L 93 -75.578125 L 89.15625 -81.28125 L 83.953125 -85.125 L 75.078125 -88.984375 L 67.03125 -89.484375 L 59.328125 -88.8125 L 55.796875 -87.984375 L 52.78125 -86.46875 L 47.921875 -83.125 L 45.40625 -80.9375 L 43.234375 -78.265625 L 41.734375 -75.40625 L 39.71875 -73.0625 L 38.703125 -70.046875 L 37.53125 -63.84375 L 37.375 -58.8125 L 38.203125 -50.4375 L 41.390625 -41.0625 L 43.578125 -38.703125 L 45.25 -36.359375 L 50.4375 -31.84375 L 56.140625 -28.828125 L 59.15625 -28.484375 Z M 62.5 -27.3125 "/></g></g></g><g fill="#000000" fill-opacity="1"><g transform="translate(889.965323, 161.490637)"><g><path d="M 57.640625 2.171875 L 52.28125 1.84375 L 48.9375 1.84375 L 42.390625 0.5 L 36.03125 -2.34375 L 33.515625 -3.859375 L 30.171875 -5.359375 L 24.796875 -8.875 L 22.28125 -11.0625 L 20.28125 -13.40625 L 16.421875 -19.4375 L 13.734375 -25.140625 L 12.0625 -32 L 11.0625 -45.40625 L 11.5625 -72.390625 L 11.234375 -75.578125 L 11.734375 -78.921875 L 11.234375 -102.390625 L 11.5625 -105.078125 L 11.5625 -109.09375 L 11.234375 -112.4375 L 13.40625 -115.625 L 16.921875 -116.96875 L 20.4375 -117.46875 L 27.65625 -116.796875 L 31 -117.3125 L 34.1875 -117.3125 L 37.703125 -115.796875 L 39.71875 -112.109375 L 40.046875 -107.25 L 39.71875 -101.890625 L 40.046875 -99.375 L 39.546875 -45.40625 L 40.546875 -35.6875 L 41.5625 -32.515625 L 43.578125 -29.828125 L 46.25 -27.8125 L 49.09375 -26.140625 L 52.953125 -25.296875 L 63.015625 -25.296875 L 68.875 -27.484375 L 71.71875 -29.5 L 73.5625 -32.84375 L 74.578125 -35.359375 L 75.75 -45.75 L 75.40625 -111.78125 L 77.25 -115.46875 L 80.765625 -117.140625 L 87.8125 -116.640625 L 98.375 -116.96875 L 102.0625 -115.796875 L 104.234375 -112.28125 L 103.734375 -108.921875 L 103.734375 -95.015625 L 104.0625 -92.328125 L 103.734375 -88.65625 L 104.0625 -85.46875 L 104.0625 -40.21875 L 103.234375 -32.171875 L 101.71875 -25.140625 L 100.046875 -22.28125 L 99.03125 -18.9375 L 95.1875 -13.078125 L 90.5 -8.375 L 84.96875 -4.6875 L 78.921875 -1.515625 L 65.859375 1.84375 L 62.671875 1.671875 Z M 57.640625 2.171875 "/></g></g></g><g fill="#000000" fill-opacity="1"><g transform="translate(1005.578559, 161.490637)"><g><path d="M 43.734375 0.328125 L 38.546875 0.171875 L 33.6875 -1.515625 L 31.5 -5.1875 L 31.84375 -8.375 L 32 -18.09375 L 31.671875 -21.625 L 31.84375 -35.1875 L 32.171875 -38.546875 L 31.671875 -63.515625 L 32 -68.203125 L 31.84375 -71.5625 L 32 -75.25 L 31.671875 -79.9375 L 32 -85.296875 L 30.171875 -88.65625 L 26.984375 -90.328125 L 11.0625 -90.65625 L 7.703125 -90.328125 L 4.6875 -92 L 3.1875 -95.015625 L 2.84375 -100.21875 L 3.1875 -108.59375 L 3.015625 -111.9375 L 5.03125 -115.796875 L 8.21875 -117.46875 L 19.9375 -116.796875 L 25.140625 -117.3125 L 35.03125 -116.796875 L 38.046875 -117.46875 L 41.734375 -117.140625 L 45.25 -117.640625 L 48.4375 -117.46875 L 51.78125 -116.796875 L 65.359375 -117.46875 L 68.546875 -117.140625 L 72.0625 -117.640625 L 75.25 -117.3125 L 85.625 -117.3125 L 88.8125 -115.125 L 90.65625 -111.78125 L 90.5 -95.859375 L 88.484375 -92.171875 L 85.625 -90.328125 L 82.609375 -90.5 L 79.09375 -89.984375 L 72.890625 -90.828125 L 66.359375 -90.5 L 63.171875 -88.484375 L 61.84375 -83.453125 L 61.328125 -68.875 L 61.84375 -65.359375 L 61.5 -38.375 L 62 -34.6875 L 61.671875 -31.671875 L 61.84375 -24.96875 L 61.5 -21.453125 L 62 -15.078125 L 61.5 -6.375 L 59.828125 -1.671875 L 54.96875 0 Z M 43.734375 0.328125 "/></g></g></g></g></g></svg>