<svg xmlns="http://www.w3.org/2000/svg" xmlns:xlink="http://www.w3.org/1999/xlink" width="480" zoomAndPan="magnify" viewBox="0 0 360 359.999987" height="480" preserveAspectRatio="xMidYMid meet" version="1.0"><defs><clipPath id="10c13072ee"><path d="M 36 41.265625 L 236.496094 41.265625 L 236.496094 319 L 36 319 Z M 36 41.265625 " clip-rule="nonzero"/></clipPath><clipPath id="322d923052"><path d="M 51 41.265625 L 221.496094 41.265625 C 229.78125 41.265625 236.496094 47.980469 236.496094 56.265625 L 236.496094 303.734375 C 236.496094 312.019531 229.78125 318.734375 221.496094 318.734375 L 51 318.734375 C 42.714844 318.734375 36 312.019531 36 303.734375 L 36 56.265625 C 36 47.980469 42.714844 41.265625 51 41.265625 Z M 51 41.265625 " clip-rule="nonzero"/></clipPath><clipPath id="5ff5358c96"><path d="M 0 0.265625 L 200.496094 0.265625 L 200.496094 277.960938 L 0 277.960938 Z M 0 0.265625 " clip-rule="nonzero"/></clipPath><clipPath id="2bbcd3e1a1"><path d="M 15 0.265625 L 185.496094 0.265625 C 193.78125 0.265625 200.496094 6.980469 200.496094 15.265625 L 200.496094 262.734375 C 200.496094 271.019531 193.78125 277.734375 185.496094 277.734375 L 15 277.734375 C 6.714844 277.734375 0 271.019531 0 262.734375 L 0 15.265625 C 0 6.980469 6.714844 0.265625 15 0.265625 Z M 15 0.265625 " clip-rule="nonzero"/></clipPath><clipPath id="9069e24822"><rect x="0" width="201" y="0" height="278"/></clipPath><clipPath id="8747c00725"><path d="M 58.800781 97.90625 L 213.753906 97.90625 L 213.753906 121.574219 L 58.800781 121.574219 Z M 58.800781 97.90625 " clip-rule="nonzero"/></clipPath><clipPath id="aface416fe"><path d="M 70.632812 97.90625 L 201.859375 97.90625 C 205 97.90625 208.007812 99.152344 210.230469 101.371094 C 212.449219 103.59375 213.695312 106.601562 213.695312 109.742188 C 213.695312 112.878906 212.449219 115.890625 210.230469 118.109375 C 208.007812 120.328125 205 121.574219 201.859375 121.574219 L 70.632812 121.574219 C 67.496094 121.574219 64.484375 120.328125 62.265625 118.109375 C 60.046875 115.890625 58.800781 112.878906 58.800781 109.742188 C 58.800781 106.601562 60.046875 103.59375 62.265625 101.371094 C 64.484375 99.152344 67.496094 97.90625 70.632812 97.90625 Z M 70.632812 97.90625 " clip-rule="nonzero"/></clipPath><clipPath id="9a583686f0"><path d="M 0.800781 0.90625 L 155.753906 0.90625 L 155.753906 24.574219 L 0.800781 24.574219 Z M 0.800781 0.90625 " clip-rule="nonzero"/></clipPath><clipPath id="b81ec3d830"><path d="M 12.632812 0.90625 L 143.859375 0.90625 C 147 0.90625 150.007812 2.152344 152.230469 4.371094 C 154.449219 6.59375 155.695312 9.601562 155.695312 12.742188 C 155.695312 15.878906 154.449219 18.890625 152.230469 21.109375 C 150.007812 23.328125 147 24.574219 143.859375 24.574219 L 12.632812 24.574219 C 9.496094 24.574219 6.484375 23.328125 4.265625 21.109375 C 2.046875 18.890625 0.800781 15.878906 0.800781 12.742188 C 0.800781 9.601562 2.046875 6.59375 4.265625 4.371094 C 6.484375 2.152344 9.496094 0.90625 12.632812 0.90625 Z M 12.632812 0.90625 " clip-rule="nonzero"/></clipPath><clipPath id="69a983cf49"><rect x="0" width="156" y="0" height="25"/></clipPath><clipPath id="43a6e6efe0"><path d="M 58.800781 168.074219 L 213.753906 168.074219 L 213.753906 191.742188 L 58.800781 191.742188 Z M 58.800781 168.074219 " clip-rule="nonzero"/></clipPath><clipPath id="5c74ff2dd3"><path d="M 70.632812 168.074219 L 201.859375 168.074219 C 205 168.074219 208.007812 169.320312 210.230469 171.542969 C 212.449219 173.761719 213.695312 176.769531 213.695312 179.910156 C 213.695312 183.046875 212.449219 186.058594 210.230469 188.277344 C 208.007812 190.496094 205 191.742188 201.859375 191.742188 L 70.632812 191.742188 C 67.496094 191.742188 64.484375 190.496094 62.265625 188.277344 C 60.046875 186.058594 58.800781 183.046875 58.800781 179.910156 C 58.800781 176.769531 60.046875 173.761719 62.265625 171.542969 C 64.484375 169.320312 67.496094 168.074219 70.632812 168.074219 Z M 70.632812 168.074219 " clip-rule="nonzero"/></clipPath><clipPath id="89b3ea05f3"><path d="M 0.800781 0.0742188 L 155.753906 0.0742188 L 155.753906 23.742188 L 0.800781 23.742188 Z M 0.800781 0.0742188 " clip-rule="nonzero"/></clipPath><clipPath id="60da7f922e"><path d="M 12.632812 0.0742188 L 143.859375 0.0742188 C 147 0.0742188 150.007812 1.320312 152.230469 3.542969 C 154.449219 5.761719 155.695312 8.769531 155.695312 11.910156 C 155.695312 15.046875 154.449219 18.058594 152.230469 20.277344 C 150.007812 22.496094 147 23.742188 143.859375 23.742188 L 12.632812 23.742188 C 9.496094 23.742188 6.484375 22.496094 4.265625 20.277344 C 2.046875 18.058594 0.800781 15.046875 0.800781 11.910156 C 0.800781 8.769531 2.046875 5.761719 4.265625 3.542969 C 6.484375 1.320312 9.496094 0.0742188 12.632812 0.0742188 Z M 12.632812 0.0742188 " clip-rule="nonzero"/></clipPath><clipPath id="37222b06d8"><rect x="0" width="156" y="0" height="24"/></clipPath><clipPath id="acdc438dd7"><path d="M 58.800781 238.425781 L 213.753906 238.425781 L 213.753906 262.09375 L 58.800781 262.09375 Z M 58.800781 238.425781 " clip-rule="nonzero"/></clipPath><clipPath id="c0953953f0"><path d="M 70.632812 238.425781 L 201.859375 238.425781 C 205 238.425781 208.007812 239.671875 210.230469 241.890625 C 212.449219 244.109375 213.695312 247.121094 213.695312 250.257812 C 213.695312 253.398438 212.449219 256.40625 210.230469 258.628906 C 208.007812 260.847656 205 262.09375 201.859375 262.09375 L 70.632812 262.09375 C 67.496094 262.09375 64.484375 260.847656 62.265625 258.628906 C 60.046875 256.40625 58.800781 253.398438 58.800781 250.257812 C 58.800781 247.121094 60.046875 244.109375 62.265625 241.890625 C 64.484375 239.671875 67.496094 238.425781 70.632812 238.425781 Z M 70.632812 238.425781 " clip-rule="nonzero"/></clipPath><clipPath id="1c40e79234"><path d="M 0.800781 0.425781 L 155.753906 0.425781 L 155.753906 24.09375 L 0.800781 24.09375 Z M 0.800781 0.425781 " clip-rule="nonzero"/></clipPath><clipPath id="5db7bf30e5"><path d="M 12.632812 0.425781 L 143.859375 0.425781 C 147 0.425781 150.007812 1.671875 152.230469 3.890625 C 154.449219 6.109375 155.695312 9.121094 155.695312 12.257812 C 155.695312 15.398438 154.449219 18.40625 152.230469 20.628906 C 150.007812 22.847656 147 24.09375 143.859375 24.09375 L 12.632812 24.09375 C 9.496094 24.09375 6.484375 22.847656 4.265625 20.628906 C 2.046875 18.40625 0.800781 15.398438 0.800781 12.257812 C 0.800781 9.121094 2.046875 6.109375 4.265625 3.890625 C 6.484375 1.671875 9.496094 0.425781 12.632812 0.425781 Z M 12.632812 0.425781 " clip-rule="nonzero"/></clipPath><clipPath id="09b40c22d3"><rect x="0" width="156" y="0" height="25"/></clipPath><clipPath id="af895c6323"><path d="M 167 95 L 285 95 L 285 241 L 167 241 Z M 167 95 " clip-rule="nonzero"/></clipPath><clipPath id="2a39d52084"><path d="M 211.042969 243.925781 L 164.152344 214.113281 L 241.707031 92.128906 L 288.597656 121.941406 Z M 211.042969 243.925781 " clip-rule="nonzero"/></clipPath><clipPath id="de77e50bbf"><path d="M 202.8125 238.691406 L 172.382812 219.34375 C 167.835938 216.457031 166.496094 210.429688 169.382812 205.886719 L 236.421875 100.441406 C 239.3125 95.894531 245.335938 94.554688 249.882812 97.445312 L 280.316406 116.792969 C 284.859375 119.679688 286.199219 125.707031 283.3125 130.25 L 216.273438 235.695312 C 213.382812 240.238281 207.359375 241.582031 202.8125 238.691406 Z M 202.8125 238.691406 " clip-rule="nonzero"/></clipPath><clipPath id="c0b3395c26"><path d="M 0 0 L 118 0 L 118 146 L 0 146 Z M 0 0 " clip-rule="nonzero"/></clipPath><clipPath id="234b58673d"><path d="M 44.042969 148.925781 L -2.847656 119.113281 L 74.707031 -2.871094 L 121.597656 26.941406 Z M 44.042969 148.925781 " clip-rule="nonzero"/></clipPath><clipPath id="89f675d6af"><path d="M 35.8125 143.691406 L 5.382812 124.34375 C 0.835938 121.457031 -0.503906 115.429688 2.382812 110.886719 L 69.421875 5.441406 C 72.3125 0.894531 78.335938 -0.445312 82.882812 2.445312 L 113.316406 21.792969 C 117.859375 24.679688 119.199219 30.707031 116.3125 35.25 L 49.273438 140.695312 C 46.382812 145.238281 40.359375 146.582031 35.8125 143.691406 Z M 35.8125 143.691406 " clip-rule="nonzero"/></clipPath><clipPath id="001e4f4e0b"><rect x="0" width="118" y="0" height="146"/></clipPath><clipPath id="1ff0c26113"><path d="M 174 42 L 318 42 L 318 236 L 174 236 Z M 174 42 " clip-rule="nonzero"/></clipPath><clipPath id="aec38f8754"><path d="M 204.667969 240.816406 L 168.453125 217.089844 L 286.621094 36.71875 L 322.835938 60.445312 Z M 204.667969 240.816406 " clip-rule="nonzero"/></clipPath><clipPath id="0798d4681b"><path d="M 192.121094 232.59375 L 181 225.308594 C 174.070312 220.769531 172.132812 211.472656 176.671875 204.542969 L 278.363281 49.324219 C 282.902344 42.394531 292.199219 40.457031 299.128906 44.996094 L 310.25 52.28125 C 317.179688 56.824219 319.117188 66.121094 314.578125 73.050781 L 212.886719 228.269531 C 208.347656 235.199219 199.050781 237.136719 192.121094 232.59375 Z M 192.121094 232.59375 " clip-rule="nonzero"/></clipPath><clipPath id="1905c6f94e"><path d="M 0 0 L 144 0 L 144 194 L 0 194 Z M 0 0 " clip-rule="nonzero"/></clipPath><clipPath id="812754fc16"><path d="M 30.667969 198.816406 L -5.546875 175.089844 L 112.621094 -5.28125 L 148.835938 18.445312 Z M 30.667969 198.816406 " clip-rule="nonzero"/></clipPath><clipPath id="256ed0f332"><path d="M 18.121094 190.59375 L 7 183.308594 C 0.0703125 178.769531 -1.867188 169.472656 2.671875 162.542969 L 104.363281 7.324219 C 108.902344 0.394531 118.199219 -1.542969 125.128906 2.996094 L 136.25 10.28125 C 143.179688 14.824219 145.117188 24.121094 140.578125 31.050781 L 38.886719 186.269531 C 34.347656 193.199219 25.050781 195.136719 18.121094 190.59375 Z M 18.121094 190.59375 " clip-rule="nonzero"/></clipPath><clipPath id="722731a66d"><rect x="0" width="144" y="0" height="194"/></clipPath><clipPath id="d885598cc3"><path d="M 168 214 L 205 214 L 205 254 L 168 254 Z M 168 214 " clip-rule="nonzero"/></clipPath><clipPath id="2fcac3ac6b"><path d="M 173.75 212.714844 L 206.660156 234.273438 L 187.167969 264.023438 L 154.261719 242.464844 Z M 173.75 212.714844 " clip-rule="nonzero"/></clipPath><clipPath id="4c81372b00"><path d="M 168.578125 248.929688 L 170.363281 219.050781 C 170.464844 217.351562 171.464844 215.832031 172.988281 215.066406 C 174.511719 214.300781 176.328125 214.402344 177.757812 215.339844 L 202.566406 231.59375 C 203.992188 232.527344 204.8125 234.152344 204.722656 235.855469 C 204.628906 237.558594 203.632812 239.082031 202.113281 239.855469 L 175.4375 253.421875 C 173.925781 254.191406 172.121094 254.09375 170.703125 253.164062 C 169.289062 252.234375 168.476562 250.621094 168.578125 248.929688 Z M 168.578125 248.929688 " clip-rule="nonzero"/></clipPath><clipPath id="f7691b9310"><path d="M 0.238281 0.078125 L 36.960938 0.078125 L 36.960938 40 L 0.238281 40 Z M 0.238281 0.078125 " clip-rule="nonzero"/></clipPath><clipPath id="f02669f8c5"><path d="M 5.75 -1.285156 L 38.660156 20.273438 L 19.167969 50.023438 L -13.738281 28.464844 Z M 5.75 -1.285156 " clip-rule="nonzero"/></clipPath><clipPath id="111219732b"><path d="M 0.578125 34.929688 L 2.363281 5.050781 C 2.464844 3.351562 3.464844 1.832031 4.988281 1.066406 C 6.511719 0.300781 8.328125 0.402344 9.757812 1.339844 L 34.566406 17.59375 C 35.992188 18.527344 36.8125 20.152344 36.722656 21.855469 C 36.628906 23.558594 35.632812 25.082031 34.113281 25.855469 L 7.4375 39.421875 C 5.925781 40.191406 4.121094 40.09375 2.703125 39.164062 C 1.289062 38.234375 0.476562 36.621094 0.578125 34.929688 Z M 0.578125 34.929688 " clip-rule="nonzero"/></clipPath><clipPath id="d9db301351"><rect x="0" width="37" y="0" height="40"/></clipPath></defs><g clip-path="url(#10c13072ee)"><g clip-path="url(#322d923052)"><g transform="matrix(1, 0, 0, 1, 36, 41)"><g clip-path="url(#9069e24822)"><g clip-path="url(#5ff5358c96)"><g clip-path="url(#2bbcd3e1a1)"><path fill="#ff914d" d="M 0 0.265625 L 200.496094 0.265625 L 200.496094 277.511719 L 0 277.511719 Z M 0 0.265625 " fill-opacity="1" fill-rule="nonzero"/></g></g></g></g></g></g><g clip-path="url(#8747c00725)"><g clip-path="url(#aface416fe)"><g transform="matrix(1, 0, 0, 1, 58, 97)"><g clip-path="url(#69a983cf49)"><g clip-path="url(#9a583686f0)"><g clip-path="url(#b81ec3d830)"><path fill="#fffbf0" d="M 0.800781 0.90625 L 155.660156 0.90625 L 155.660156 24.574219 L 0.800781 24.574219 Z M 0.800781 0.90625 " fill-opacity="1" fill-rule="nonzero"/></g></g></g></g></g></g><g clip-path="url(#43a6e6efe0)"><g clip-path="url(#5c74ff2dd3)"><g transform="matrix(1, 0, 0, 1, 58, 168)"><g clip-path="url(#37222b06d8)"><g clip-path="url(#89b3ea05f3)"><g clip-path="url(#60da7f922e)"><path fill="#fffbf0" d="M 0.800781 0.0742188 L 155.660156 0.0742188 L 155.660156 23.742188 L 0.800781 23.742188 Z M 0.800781 0.0742188 " fill-opacity="1" fill-rule="nonzero"/></g></g></g></g></g></g><g clip-path="url(#acdc438dd7)"><g clip-path="url(#c0953953f0)"><g transform="matrix(1, 0, 0, 1, 58, 238)"><g clip-path="url(#09b40c22d3)"><g clip-path="url(#1c40e79234)"><g clip-path="url(#5db7bf30e5)"><path fill="#fffbf0" d="M 0.800781 0.425781 L 155.660156 0.425781 L 155.660156 24.09375 L 0.800781 24.09375 Z M 0.800781 0.425781 " fill-opacity="1" fill-rule="nonzero"/></g></g></g></g></g></g><g clip-path="url(#af895c6323)"><g clip-path="url(#2a39d52084)"><g clip-path="url(#de77e50bbf)"><g transform="matrix(1, 0, 0, 1, 167, 95)"><g clip-path="url(#001e4f4e0b)"><g clip-path="url(#c0b3395c26)"><g clip-path="url(#234b58673d)"><g clip-path="url(#89f675d6af)"><path fill="#ffffff" d="M 44.042969 148.925781 L -2.847656 119.113281 L 74.707031 -2.871094 L 121.597656 26.941406 Z M 44.042969 148.925781 " fill-opacity="1" fill-rule="nonzero"/></g></g></g></g></g></g></g></g><g clip-path="url(#1ff0c26113)"><g clip-path="url(#aec38f8754)"><g clip-path="url(#0798d4681b)"><g transform="matrix(1, 0, 0, 1, 174, 42)"><g clip-path="url(#722731a66d)"><g clip-path="url(#1905c6f94e)"><g clip-path="url(#812754fc16)"><g clip-path="url(#256ed0f332)"><path fill="#ff914d" d="M 30.667969 198.816406 L -5.546875 175.089844 L 112.621094 -5.28125 L 148.835938 18.445312 Z M 30.667969 198.816406 " fill-opacity="1" fill-rule="nonzero"/></g></g></g></g></g></g></g></g><g clip-path="url(#d885598cc3)"><g clip-path="url(#2fcac3ac6b)"><g clip-path="url(#4c81372b00)"><g transform="matrix(1, 0, 0, 1, 168, 214)"><g clip-path="url(#d9db301351)"><g clip-path="url(#f7691b9310)"><g clip-path="url(#f02669f8c5)"><g clip-path="url(#111219732b)"><path fill="#ffde59" d="M 2.855469 -3.183594 L 41.425781 22.085938 L 19.347656 55.785156 L -19.222656 30.515625 Z M 2.855469 -3.183594 " fill-opacity="1" fill-rule="nonzero"/></g></g></g></g></g></g></g></g></svg>