<svg xmlns="http://www.w3.org/2000/svg" xmlns:xlink="http://www.w3.org/1999/xlink" width="480" zoomAndPan="magnify" viewBox="0 0 360 359.999987" height="480" preserveAspectRatio="xMidYMid meet" version="1.0"><defs><clipPath id="322e9292f8"><path d="M 36 41.265625 L 236.496094 41.265625 L 236.496094 319 L 36 319 Z M 36 41.265625 " clip-rule="nonzero"/></clipPath><clipPath id="b50723087e"><path d="M 51 41.265625 L 221.496094 41.265625 C 229.78125 41.265625 236.496094 47.980469 236.496094 56.265625 L 236.496094 303.734375 C 236.496094 312.019531 229.78125 318.734375 221.496094 318.734375 L 51 318.734375 C 42.714844 318.734375 36 312.019531 36 303.734375 L 36 56.265625 C 36 47.980469 42.714844 41.265625 51 41.265625 Z M 51 41.265625 " clip-rule="nonzero"/></clipPath><clipPath id="67c9e63980"><path d="M 0 0.265625 L 200.496094 0.265625 L 200.496094 277.960938 L 0 277.960938 Z M 0 0.265625 " clip-rule="nonzero"/></clipPath><clipPath id="79fdf4103f"><path d="M 15 0.265625 L 185.496094 0.265625 C 193.78125 0.265625 200.496094 6.980469 200.496094 15.265625 L 200.496094 262.734375 C 200.496094 271.019531 193.78125 277.734375 185.496094 277.734375 L 15 277.734375 C 6.714844 277.734375 0 271.019531 0 262.734375 L 0 15.265625 C 0 6.980469 6.714844 0.265625 15 0.265625 Z M 15 0.265625 " clip-rule="nonzero"/></clipPath><clipPath id="aabd4d5a32"><rect x="0" width="201" y="0" height="278"/></clipPath><clipPath id="f47898d898"><path d="M 58.800781 97.90625 L 213.753906 97.90625 L 213.753906 121.574219 L 58.800781 121.574219 Z M 58.800781 97.90625 " clip-rule="nonzero"/></clipPath><clipPath id="61fa29a5e0"><path d="M 70.632812 97.90625 L 201.859375 97.90625 C 205 97.90625 208.007812 99.152344 210.230469 101.371094 C 212.449219 103.59375 213.695312 106.601562 213.695312 109.742188 C 213.695312 112.878906 212.449219 115.890625 210.230469 118.109375 C 208.007812 120.328125 205 121.574219 201.859375 121.574219 L 70.632812 121.574219 C 67.496094 121.574219 64.484375 120.328125 62.265625 118.109375 C 60.046875 115.890625 58.800781 112.878906 58.800781 109.742188 C 58.800781 106.601562 60.046875 103.59375 62.265625 101.371094 C 64.484375 99.152344 67.496094 97.90625 70.632812 97.90625 Z M 70.632812 97.90625 " clip-rule="nonzero"/></clipPath><clipPath id="3eba17fce5"><path d="M 0.800781 0.90625 L 155.753906 0.90625 L 155.753906 24.574219 L 0.800781 24.574219 Z M 0.800781 0.90625 " clip-rule="nonzero"/></clipPath><clipPath id="99f6486cf2"><path d="M 12.632812 0.90625 L 143.859375 0.90625 C 147 0.90625 150.007812 2.152344 152.230469 4.371094 C 154.449219 6.59375 155.695312 9.601562 155.695312 12.742188 C 155.695312 15.878906 154.449219 18.890625 152.230469 21.109375 C 150.007812 23.328125 147 24.574219 143.859375 24.574219 L 12.632812 24.574219 C 9.496094 24.574219 6.484375 23.328125 4.265625 21.109375 C 2.046875 18.890625 0.800781 15.878906 0.800781 12.742188 C 0.800781 9.601562 2.046875 6.59375 4.265625 4.371094 C 6.484375 2.152344 9.496094 0.90625 12.632812 0.90625 Z M 12.632812 0.90625 " clip-rule="nonzero"/></clipPath><clipPath id="a29c1f00ab"><rect x="0" width="156" y="0" height="25"/></clipPath><clipPath id="329b9ac022"><path d="M 58.800781 168.074219 L 213.753906 168.074219 L 213.753906 191.742188 L 58.800781 191.742188 Z M 58.800781 168.074219 " clip-rule="nonzero"/></clipPath><clipPath id="b247f1bbd7"><path d="M 70.632812 168.074219 L 201.859375 168.074219 C 205 168.074219 208.007812 169.320312 210.230469 171.542969 C 212.449219 173.761719 213.695312 176.769531 213.695312 179.910156 C 213.695312 183.046875 212.449219 186.058594 210.230469 188.277344 C 208.007812 190.496094 205 191.742188 201.859375 191.742188 L 70.632812 191.742188 C 67.496094 191.742188 64.484375 190.496094 62.265625 188.277344 C 60.046875 186.058594 58.800781 183.046875 58.800781 179.910156 C 58.800781 176.769531 60.046875 173.761719 62.265625 171.542969 C 64.484375 169.320312 67.496094 168.074219 70.632812 168.074219 Z M 70.632812 168.074219 " clip-rule="nonzero"/></clipPath><clipPath id="7fac18886c"><path d="M 0.800781 0.0742188 L 155.753906 0.0742188 L 155.753906 23.742188 L 0.800781 23.742188 Z M 0.800781 0.0742188 " clip-rule="nonzero"/></clipPath><clipPath id="1ca5aac895"><path d="M 12.632812 0.0742188 L 143.859375 0.0742188 C 147 0.0742188 150.007812 1.320312 152.230469 3.542969 C 154.449219 5.761719 155.695312 8.769531 155.695312 11.910156 C 155.695312 15.046875 154.449219 18.058594 152.230469 20.277344 C 150.007812 22.496094 147 23.742188 143.859375 23.742188 L 12.632812 23.742188 C 9.496094 23.742188 6.484375 22.496094 4.265625 20.277344 C 2.046875 18.058594 0.800781 15.046875 0.800781 11.910156 C 0.800781 8.769531 2.046875 5.761719 4.265625 3.542969 C 6.484375 1.320312 9.496094 0.0742188 12.632812 0.0742188 Z M 12.632812 0.0742188 " clip-rule="nonzero"/></clipPath><clipPath id="dfd44a2f9f"><rect x="0" width="156" y="0" height="24"/></clipPath><clipPath id="e3a417feed"><path d="M 58.800781 238.425781 L 213.753906 238.425781 L 213.753906 262.09375 L 58.800781 262.09375 Z M 58.800781 238.425781 " clip-rule="nonzero"/></clipPath><clipPath id="d49027aece"><path d="M 70.632812 238.425781 L 201.859375 238.425781 C 205 238.425781 208.007812 239.671875 210.230469 241.890625 C 212.449219 244.109375 213.695312 247.121094 213.695312 250.257812 C 213.695312 253.398438 212.449219 256.40625 210.230469 258.628906 C 208.007812 260.847656 205 262.09375 201.859375 262.09375 L 70.632812 262.09375 C 67.496094 262.09375 64.484375 260.847656 62.265625 258.628906 C 60.046875 256.40625 58.800781 253.398438 58.800781 250.257812 C 58.800781 247.121094 60.046875 244.109375 62.265625 241.890625 C 64.484375 239.671875 67.496094 238.425781 70.632812 238.425781 Z M 70.632812 238.425781 " clip-rule="nonzero"/></clipPath><clipPath id="249dfd30cf"><path d="M 0.800781 0.425781 L 155.753906 0.425781 L 155.753906 24.09375 L 0.800781 24.09375 Z M 0.800781 0.425781 " clip-rule="nonzero"/></clipPath><clipPath id="bf1216bbed"><path d="M 12.632812 0.425781 L 143.859375 0.425781 C 147 0.425781 150.007812 1.671875 152.230469 3.890625 C 154.449219 6.109375 155.695312 9.121094 155.695312 12.257812 C 155.695312 15.398438 154.449219 18.40625 152.230469 20.628906 C 150.007812 22.847656 147 24.09375 143.859375 24.09375 L 12.632812 24.09375 C 9.496094 24.09375 6.484375 22.847656 4.265625 20.628906 C 2.046875 18.40625 0.800781 15.398438 0.800781 12.257812 C 0.800781 9.121094 2.046875 6.109375 4.265625 3.890625 C 6.484375 1.671875 9.496094 0.425781 12.632812 0.425781 Z M 12.632812 0.425781 " clip-rule="nonzero"/></clipPath><clipPath id="4858289f00"><rect x="0" width="156" y="0" height="25"/></clipPath><clipPath id="86683ffe55"><path d="M 280.703125 103.171875 L 324 103.171875 L 324 318.800781 L 280.703125 318.800781 Z M 280.703125 103.171875 " clip-rule="nonzero"/></clipPath><clipPath id="dd2e53aa97"><path d="M 295.703125 103.171875 L 309 103.171875 C 317.285156 103.171875 324 109.886719 324 118.171875 L 324 303.734375 C 324 312.019531 317.285156 318.734375 309 318.734375 L 295.703125 318.734375 C 287.421875 318.734375 280.703125 312.019531 280.703125 303.734375 L 280.703125 118.171875 C 280.703125 109.886719 287.421875 103.171875 295.703125 103.171875 Z M 295.703125 103.171875 " clip-rule="nonzero"/></clipPath><clipPath id="88974e9c27"><path d="M 0.703125 0.171875 L 44 0.171875 L 44 215.800781 L 0.703125 215.800781 Z M 0.703125 0.171875 " clip-rule="nonzero"/></clipPath><clipPath id="c7822f02a0"><path d="M 15.703125 0.171875 L 29 0.171875 C 37.285156 0.171875 44 6.886719 44 15.171875 L 44 200.734375 C 44 209.019531 37.285156 215.734375 29 215.734375 L 15.703125 215.734375 C 7.421875 215.734375 0.703125 209.019531 0.703125 200.734375 L 0.703125 15.171875 C 0.703125 6.886719 7.421875 0.171875 15.703125 0.171875 Z M 15.703125 0.171875 " clip-rule="nonzero"/></clipPath><clipPath id="92b8a1eeaa"><rect x="0" width="44" y="0" height="216"/></clipPath><clipPath id="68d89bc996"><path d="M 282.628906 74.167969 L 321.96875 74.167969 L 321.96875 109.730469 L 282.628906 109.730469 Z M 282.628906 74.167969 " clip-rule="nonzero"/></clipPath><clipPath id="dbeada62b0"><path d="M 306.453125 76.605469 L 321.332031 102.574219 C 322.179688 104.054688 322.175781 105.871094 321.320312 107.347656 C 320.464844 108.824219 318.886719 109.730469 317.183594 109.730469 L 287.519531 109.730469 C 285.816406 109.730469 284.238281 108.824219 283.382812 107.347656 C 282.527344 105.871094 282.523438 104.054688 283.371094 102.574219 L 298.25 76.605469 C 299.09375 75.132812 300.65625 74.226562 302.351562 74.226562 C 304.046875 74.226562 305.609375 75.132812 306.453125 76.605469 Z M 306.453125 76.605469 " clip-rule="nonzero"/></clipPath><clipPath id="af3448116a"><path d="M 0.628906 0.167969 L 39.96875 0.167969 L 39.96875 35.730469 L 0.628906 35.730469 Z M 0.628906 0.167969 " clip-rule="nonzero"/></clipPath><clipPath id="983b08ad48"><path d="M 24.453125 2.605469 L 39.332031 28.574219 C 40.179688 30.054688 40.175781 31.871094 39.320312 33.347656 C 38.464844 34.824219 36.886719 35.730469 35.183594 35.730469 L 5.519531 35.730469 C 3.816406 35.730469 2.238281 34.824219 1.382812 33.347656 C 0.527344 31.871094 0.523438 30.054688 1.371094 28.574219 L 16.25 2.605469 C 17.09375 1.132812 18.65625 0.226562 20.351562 0.226562 C 22.046875 0.226562 23.609375 1.132812 24.453125 2.605469 Z M 24.453125 2.605469 " clip-rule="nonzero"/></clipPath><clipPath id="cdafea6d04"><rect x="0" width="40" y="0" height="36"/></clipPath></defs><g clip-path="url(#322e9292f8)"><g clip-path="url(#b50723087e)"><g transform="matrix(1, 0, 0, 1, 36, 41)"><g clip-path="url(#aabd4d5a32)"><g clip-path="url(#67c9e63980)"><g clip-path="url(#79fdf4103f)"><path fill="#404040" d="M 0 0.265625 L 200.496094 0.265625 L 200.496094 277.511719 L 0 277.511719 Z M 0 0.265625 " fill-opacity="1" fill-rule="nonzero"/></g></g></g></g></g></g><g clip-path="url(#f47898d898)"><g clip-path="url(#61fa29a5e0)"><g transform="matrix(1, 0, 0, 1, 58, 97)"><g clip-path="url(#a29c1f00ab)"><g clip-path="url(#3eba17fce5)"><g clip-path="url(#99f6486cf2)"><path fill="#e6e6e6" d="M 0.800781 0.90625 L 155.660156 0.90625 L 155.660156 24.574219 L 0.800781 24.574219 Z M 0.800781 0.90625 " fill-opacity="1" fill-rule="nonzero"/></g></g></g></g></g></g><g clip-path="url(#329b9ac022)"><g clip-path="url(#b247f1bbd7)"><g transform="matrix(1, 0, 0, 1, 58, 168)"><g clip-path="url(#dfd44a2f9f)"><g clip-path="url(#7fac18886c)"><g clip-path="url(#1ca5aac895)"><path fill="#e6e6e6" d="M 0.800781 0.0742188 L 155.660156 0.0742188 L 155.660156 23.742188 L 0.800781 23.742188 Z M 0.800781 0.0742188 " fill-opacity="1" fill-rule="nonzero"/></g></g></g></g></g></g><g clip-path="url(#e3a417feed)"><g clip-path="url(#d49027aece)"><g transform="matrix(1, 0, 0, 1, 58, 238)"><g clip-path="url(#4858289f00)"><g clip-path="url(#249dfd30cf)"><g clip-path="url(#bf1216bbed)"><path fill="#e6e6e6" d="M 0.800781 0.425781 L 155.660156 0.425781 L 155.660156 24.09375 L 0.800781 24.09375 Z M 0.800781 0.425781 " fill-opacity="1" fill-rule="nonzero"/></g></g></g></g></g></g><g clip-path="url(#86683ffe55)"><g clip-path="url(#dd2e53aa97)"><g transform="matrix(1, 0, 0, 1, 280, 103)"><g clip-path="url(#92b8a1eeaa)"><g clip-path="url(#88974e9c27)"><g clip-path="url(#c7822f02a0)"><path fill="#404040" d="M 0.703125 0.171875 L 44 0.171875 L 44 215.800781 L 0.703125 215.800781 Z M 0.703125 0.171875 " fill-opacity="1" fill-rule="nonzero"/></g></g></g></g></g></g><g clip-path="url(#68d89bc996)"><g clip-path="url(#dbeada62b0)"><g transform="matrix(1, 0, 0, 1, 282, 74)"><g clip-path="url(#cdafea6d04)"><g clip-path="url(#af3448116a)"><g clip-path="url(#983b08ad48)"><path fill="#e6e6e6" d="M 43.433594 35.730469 L -2.675781 35.730469 L -2.675781 -4.554688 L 43.433594 -4.554688 Z M 43.433594 35.730469 " fill-opacity="1" fill-rule="nonzero"/></g></g></g></g></g></g></svg>