<svg xmlns="http://www.w3.org/2000/svg" xmlns:xlink="http://www.w3.org/1999/xlink" width="480" zoomAndPan="magnify" viewBox="0 0 360 359.999987" height="480" preserveAspectRatio="xMidYMid meet" version="1.0"><defs><clipPath id="18d12be822"><path d="M 36 41.265625 L 236.496094 41.265625 L 236.496094 319 L 36 319 Z M 36 41.265625 " clip-rule="nonzero"/></clipPath><clipPath id="5cdf11e282"><path d="M 51 41.265625 L 221.496094 41.265625 C 229.78125 41.265625 236.496094 47.980469 236.496094 56.265625 L 236.496094 303.734375 C 236.496094 312.019531 229.78125 318.734375 221.496094 318.734375 L 51 318.734375 C 42.714844 318.734375 36 312.019531 36 303.734375 L 36 56.265625 C 36 47.980469 42.714844 41.265625 51 41.265625 Z M 51 41.265625 " clip-rule="nonzero"/></clipPath><clipPath id="14527bac2e"><path d="M 0 0.265625 L 200.496094 0.265625 L 200.496094 277.960938 L 0 277.960938 Z M 0 0.265625 " clip-rule="nonzero"/></clipPath><clipPath id="c63bdd9247"><path d="M 15 0.265625 L 185.496094 0.265625 C 193.78125 0.265625 200.496094 6.980469 200.496094 15.265625 L 200.496094 262.734375 C 200.496094 271.019531 193.78125 277.734375 185.496094 277.734375 L 15 277.734375 C 6.714844 277.734375 0 271.019531 0 262.734375 L 0 15.265625 C 0 6.980469 6.714844 0.265625 15 0.265625 Z M 15 0.265625 " clip-rule="nonzero"/></clipPath><clipPath id="2c4c6eeca6"><rect x="0" width="201" y="0" height="278"/></clipPath><clipPath id="d7b5c94304"><path d="M 58.800781 97.90625 L 213.753906 97.90625 L 213.753906 121.574219 L 58.800781 121.574219 Z M 58.800781 97.90625 " clip-rule="nonzero"/></clipPath><clipPath id="221cdadb88"><path d="M 70.632812 97.90625 L 201.859375 97.90625 C 205 97.90625 208.007812 99.152344 210.230469 101.371094 C 212.449219 103.59375 213.695312 106.601562 213.695312 109.742188 C 213.695312 112.878906 212.449219 115.890625 210.230469 118.109375 C 208.007812 120.328125 205 121.574219 201.859375 121.574219 L 70.632812 121.574219 C 67.496094 121.574219 64.484375 120.328125 62.265625 118.109375 C 60.046875 115.890625 58.800781 112.878906 58.800781 109.742188 C 58.800781 106.601562 60.046875 103.59375 62.265625 101.371094 C 64.484375 99.152344 67.496094 97.90625 70.632812 97.90625 Z M 70.632812 97.90625 " clip-rule="nonzero"/></clipPath><clipPath id="08bb2ef351"><path d="M 0.800781 0.90625 L 155.753906 0.90625 L 155.753906 24.574219 L 0.800781 24.574219 Z M 0.800781 0.90625 " clip-rule="nonzero"/></clipPath><clipPath id="ca6be65ab0"><path d="M 12.632812 0.90625 L 143.859375 0.90625 C 147 0.90625 150.007812 2.152344 152.230469 4.371094 C 154.449219 6.59375 155.695312 9.601562 155.695312 12.742188 C 155.695312 15.878906 154.449219 18.890625 152.230469 21.109375 C 150.007812 23.328125 147 24.574219 143.859375 24.574219 L 12.632812 24.574219 C 9.496094 24.574219 6.484375 23.328125 4.265625 21.109375 C 2.046875 18.890625 0.800781 15.878906 0.800781 12.742188 C 0.800781 9.601562 2.046875 6.59375 4.265625 4.371094 C 6.484375 2.152344 9.496094 0.90625 12.632812 0.90625 Z M 12.632812 0.90625 " clip-rule="nonzero"/></clipPath><clipPath id="d823093f79"><rect x="0" width="156" y="0" height="25"/></clipPath><clipPath id="4053fe11c7"><path d="M 58.800781 168.074219 L 213.753906 168.074219 L 213.753906 191.742188 L 58.800781 191.742188 Z M 58.800781 168.074219 " clip-rule="nonzero"/></clipPath><clipPath id="15d49198ce"><path d="M 70.632812 168.074219 L 201.859375 168.074219 C 205 168.074219 208.007812 169.320312 210.230469 171.542969 C 212.449219 173.761719 213.695312 176.769531 213.695312 179.910156 C 213.695312 183.046875 212.449219 186.058594 210.230469 188.277344 C 208.007812 190.496094 205 191.742188 201.859375 191.742188 L 70.632812 191.742188 C 67.496094 191.742188 64.484375 190.496094 62.265625 188.277344 C 60.046875 186.058594 58.800781 183.046875 58.800781 179.910156 C 58.800781 176.769531 60.046875 173.761719 62.265625 171.542969 C 64.484375 169.320312 67.496094 168.074219 70.632812 168.074219 Z M 70.632812 168.074219 " clip-rule="nonzero"/></clipPath><clipPath id="ead126dec1"><path d="M 0.800781 0.0742188 L 155.753906 0.0742188 L 155.753906 23.742188 L 0.800781 23.742188 Z M 0.800781 0.0742188 " clip-rule="nonzero"/></clipPath><clipPath id="f39039a35f"><path d="M 12.632812 0.0742188 L 143.859375 0.0742188 C 147 0.0742188 150.007812 1.320312 152.230469 3.542969 C 154.449219 5.761719 155.695312 8.769531 155.695312 11.910156 C 155.695312 15.046875 154.449219 18.058594 152.230469 20.277344 C 150.007812 22.496094 147 23.742188 143.859375 23.742188 L 12.632812 23.742188 C 9.496094 23.742188 6.484375 22.496094 4.265625 20.277344 C 2.046875 18.058594 0.800781 15.046875 0.800781 11.910156 C 0.800781 8.769531 2.046875 5.761719 4.265625 3.542969 C 6.484375 1.320312 9.496094 0.0742188 12.632812 0.0742188 Z M 12.632812 0.0742188 " clip-rule="nonzero"/></clipPath><clipPath id="fd2e6ff83d"><rect x="0" width="156" y="0" height="24"/></clipPath><clipPath id="95bea21adf"><path d="M 58.800781 238.425781 L 213.753906 238.425781 L 213.753906 262.09375 L 58.800781 262.09375 Z M 58.800781 238.425781 " clip-rule="nonzero"/></clipPath><clipPath id="a003423f01"><path d="M 70.632812 238.425781 L 201.859375 238.425781 C 205 238.425781 208.007812 239.671875 210.230469 241.890625 C 212.449219 244.109375 213.695312 247.121094 213.695312 250.257812 C 213.695312 253.398438 212.449219 256.40625 210.230469 258.628906 C 208.007812 260.847656 205 262.09375 201.859375 262.09375 L 70.632812 262.09375 C 67.496094 262.09375 64.484375 260.847656 62.265625 258.628906 C 60.046875 256.40625 58.800781 253.398438 58.800781 250.257812 C 58.800781 247.121094 60.046875 244.109375 62.265625 241.890625 C 64.484375 239.671875 67.496094 238.425781 70.632812 238.425781 Z M 70.632812 238.425781 " clip-rule="nonzero"/></clipPath><clipPath id="d3acf9c788"><path d="M 0.800781 0.425781 L 155.753906 0.425781 L 155.753906 24.09375 L 0.800781 24.09375 Z M 0.800781 0.425781 " clip-rule="nonzero"/></clipPath><clipPath id="449639fdbe"><path d="M 12.632812 0.425781 L 143.859375 0.425781 C 147 0.425781 150.007812 1.671875 152.230469 3.890625 C 154.449219 6.109375 155.695312 9.121094 155.695312 12.257812 C 155.695312 15.398438 154.449219 18.40625 152.230469 20.628906 C 150.007812 22.847656 147 24.09375 143.859375 24.09375 L 12.632812 24.09375 C 9.496094 24.09375 6.484375 22.847656 4.265625 20.628906 C 2.046875 18.40625 0.800781 15.398438 0.800781 12.257812 C 0.800781 9.121094 2.046875 6.109375 4.265625 3.890625 C 6.484375 1.671875 9.496094 0.425781 12.632812 0.425781 Z M 12.632812 0.425781 " clip-rule="nonzero"/></clipPath><clipPath id="951aacac0a"><rect x="0" width="156" y="0" height="25"/></clipPath><clipPath id="98070b2b47"><path d="M 280.703125 74.984375 L 324 74.984375 L 324 290.613281 L 280.703125 290.613281 Z M 280.703125 74.984375 " clip-rule="nonzero"/></clipPath><clipPath id="9edd1817a7"><path d="M 295.703125 74.984375 L 309 74.984375 C 317.285156 74.984375 324 81.699219 324 89.984375 L 324 275.546875 C 324 283.828125 317.285156 290.546875 309 290.546875 L 295.703125 290.546875 C 287.421875 290.546875 280.703125 283.828125 280.703125 275.546875 L 280.703125 89.984375 C 280.703125 81.699219 287.421875 74.984375 295.703125 74.984375 Z M 295.703125 74.984375 " clip-rule="nonzero"/></clipPath><clipPath id="c914e41dd7"><path d="M 0.703125 0.984375 L 44 0.984375 L 44 216.613281 L 0.703125 216.613281 Z M 0.703125 0.984375 " clip-rule="nonzero"/></clipPath><clipPath id="2e64f7a899"><path d="M 15.703125 0.984375 L 29 0.984375 C 37.285156 0.984375 44 7.699219 44 15.984375 L 44 201.546875 C 44 209.828125 37.285156 216.546875 29 216.546875 L 15.703125 216.546875 C 7.421875 216.546875 0.703125 209.828125 0.703125 201.546875 L 0.703125 15.984375 C 0.703125 7.699219 7.421875 0.984375 15.703125 0.984375 Z M 15.703125 0.984375 " clip-rule="nonzero"/></clipPath><clipPath id="e3962d841f"><rect x="0" width="44" y="0" height="217"/></clipPath><clipPath id="123d613d6c"><path d="M 282.628906 46 L 321.96875 46 L 321.96875 81.542969 L 282.628906 81.542969 Z M 282.628906 46 " clip-rule="nonzero"/></clipPath><clipPath id="58befbbdc1"><path d="M 306.453125 48.414062 L 321.332031 74.386719 C 322.179688 75.863281 322.175781 77.683594 321.320312 79.160156 C 320.464844 80.636719 318.886719 81.542969 317.183594 81.542969 L 287.519531 81.542969 C 285.816406 81.542969 284.238281 80.636719 283.382812 79.160156 C 282.527344 77.683594 282.523438 75.863281 283.371094 74.386719 L 298.25 48.414062 C 299.09375 46.945312 300.65625 46.039062 302.351562 46.039062 C 304.046875 46.039062 305.609375 46.945312 306.453125 48.414062 Z M 306.453125 48.414062 " clip-rule="nonzero"/></clipPath><clipPath id="8b7d55b7d3"><path d="M 0.628906 0 L 39.96875 0 L 39.96875 35.542969 L 0.628906 35.542969 Z M 0.628906 0 " clip-rule="nonzero"/></clipPath><clipPath id="e3fe291377"><path d="M 24.453125 2.414062 L 39.332031 28.386719 C 40.179688 29.863281 40.175781 31.683594 39.320312 33.160156 C 38.464844 34.636719 36.886719 35.542969 35.183594 35.542969 L 5.519531 35.542969 C 3.816406 35.542969 2.238281 34.636719 1.382812 33.160156 C 0.527344 31.683594 0.523438 29.863281 1.371094 28.386719 L 16.25 2.414062 C 17.09375 0.945312 18.65625 0.0390625 20.351562 0.0390625 C 22.046875 0.0390625 23.609375 0.945312 24.453125 2.414062 Z M 24.453125 2.414062 " clip-rule="nonzero"/></clipPath><clipPath id="d03cc1da6a"><rect x="0" width="40" y="0" height="36"/></clipPath></defs><g clip-path="url(#18d12be822)"><g clip-path="url(#5cdf11e282)"><g transform="matrix(1, 0, 0, 1, 36, 41)"><g clip-path="url(#2c4c6eeca6)"><g clip-path="url(#14527bac2e)"><g clip-path="url(#c63bdd9247)"><path fill="#ff914d" d="M 0 0.265625 L 200.496094 0.265625 L 200.496094 277.511719 L 0 277.511719 Z M 0 0.265625 " fill-opacity="1" fill-rule="nonzero"/></g></g></g></g></g></g><g clip-path="url(#d7b5c94304)"><g clip-path="url(#221cdadb88)"><g transform="matrix(1, 0, 0, 1, 58, 97)"><g clip-path="url(#d823093f79)"><g clip-path="url(#08bb2ef351)"><g clip-path="url(#ca6be65ab0)"><path fill="#fffbf0" d="M 0.800781 0.90625 L 155.660156 0.90625 L 155.660156 24.574219 L 0.800781 24.574219 Z M 0.800781 0.90625 " fill-opacity="1" fill-rule="nonzero"/></g></g></g></g></g></g><g clip-path="url(#4053fe11c7)"><g clip-path="url(#15d49198ce)"><g transform="matrix(1, 0, 0, 1, 58, 168)"><g clip-path="url(#fd2e6ff83d)"><g clip-path="url(#ead126dec1)"><g clip-path="url(#f39039a35f)"><path fill="#fffbf0" d="M 0.800781 0.0742188 L 155.660156 0.0742188 L 155.660156 23.742188 L 0.800781 23.742188 Z M 0.800781 0.0742188 " fill-opacity="1" fill-rule="nonzero"/></g></g></g></g></g></g><g clip-path="url(#95bea21adf)"><g clip-path="url(#a003423f01)"><g transform="matrix(1, 0, 0, 1, 58, 238)"><g clip-path="url(#951aacac0a)"><g clip-path="url(#d3acf9c788)"><g clip-path="url(#449639fdbe)"><path fill="#fffbf0" d="M 0.800781 0.425781 L 155.660156 0.425781 L 155.660156 24.09375 L 0.800781 24.09375 Z M 0.800781 0.425781 " fill-opacity="1" fill-rule="nonzero"/></g></g></g></g></g></g><g clip-path="url(#98070b2b47)"><g clip-path="url(#9edd1817a7)"><g transform="matrix(1, 0, 0, 1, 280, 74)"><g clip-path="url(#e3962d841f)"><g clip-path="url(#c914e41dd7)"><g clip-path="url(#2e64f7a899)"><path fill="#ff914d" d="M 0.703125 0.984375 L 44 0.984375 L 44 216.613281 L 0.703125 216.613281 Z M 0.703125 0.984375 " fill-opacity="1" fill-rule="nonzero"/></g></g></g></g></g></g><g clip-path="url(#123d613d6c)"><g clip-path="url(#58befbbdc1)"><g transform="matrix(1, 0, 0, 1, 282, 46)"><g clip-path="url(#d03cc1da6a)"><g clip-path="url(#8b7d55b7d3)"><g clip-path="url(#e3fe291377)"><path fill="#ffde59" d="M 43.433594 35.542969 L -2.675781 35.542969 L -2.675781 -4.742188 L 43.433594 -4.742188 Z M 43.433594 35.542969 " fill-opacity="1" fill-rule="nonzero"/></g></g></g></g></g></g></svg>